<svg xmlns="http://www.w3.org/2000/svg" display="none"><symbol id="icon-aws" viewBox="0 0 128 128"><path fill="#F7A80D" d="M38.089 77.466l-11.4 4.896 10.559 4.514 12.241-4.514-11.4-4.896zm-17.138 6.12l-.382 22.034 16.679 7.345V90.089l-16.297-6.503zm34.276 0l-15.073 5.739V110.9l15.073-6.121V83.586zm17.979-68.551L61.73 19.931l10.635 4.515 12.241-4.515-11.4-4.896zm-15.914 6.503v22.034l14.231 4.132.459-20.046-14.69-6.12zm31.828 1.224L75.654 28.5v21.652l13.466-6.121V22.762zM19.306 46.047L7.907 50.944l10.558 4.514 12.241-4.514-11.4-4.897zM2.168 52.168l-.382 22.034 16.679 7.345V58.671L2.168 52.168zm34.275 0l-15.071 5.738V79.48l15.071-6.12V52.168zm19.587-6.937l-11.4 4.897 10.558 4.514 12.241-4.514-11.399-4.897zm-17.137 6.121l-.383 22.035 16.679 7.345V57.855l-16.296-6.503zm34.275 0L58.096 57.09v21.576l15.072-6.121V51.352zm35.908-36.317l-11.399 4.896 10.559 4.515 12.241-4.515-11.401-4.896zm-17.137 6.121l-.382 22.034 16.679 7.344V27.658l-16.297-6.502zm34.275 0l-15.071 5.738v21.575l15.071-6.12V21.156z"/></symbol><symbol id="icon-angular" viewBox="0 0 128 128"><path fill="#C4473A" d="M52.864 64h23.28L63.769 38.123zM63.81 1.026L4.553 21.88l9.363 77.637 49.957 27.457 50.214-27.828 9.36-77.635L63.81 1.026zM48.044 75l-7.265 18.176-13.581.056 36.608-81.079-.07-.153h-.064l.001-.133.063.133h.141l.123-.274V12h-.124l-.069.153 38.189 81.417-13.074-.287-8.042-18.58-17.173.082"/></symbol><symbol id="icon-apache" viewBox="0 0 128 128"><path fill="#303284" d="M127.6 75.9l-.3-.5-.2-.1v-.4l-.1-.4-.2-.3-.4-.2h-.1l-.1-.2-.3-.2-.3-.2-.4-.1h-.2l-.4-.4-.5-.3-.6-.3-.6-.2h-.2l-.5-.6-.6-.4-.6-.3-.6-.2h-.1l-.6-.4-.8-.3-.5-.1-.5-.4-.5-.2-.5-.1-.5-.1h-.5l-.6.1h-.1l-.4-.6-.6-.4-.8-.2h-.9l-1 .2-.4.1-.8-.3-.8-.2h-2.6l-1-.4-.9-.3-.9-.1h-.6l-.8-.8-.9-.6-.8-.4-.8-.2h-.8l-.4.3-.5-.4-.6-.3-.7-.1-.6.1-.7-.3-.7-.2h-1l-1.1-.4-1.2-.3-1.1-.1h-.2l-1.2-.7-1.2-.3h-1.1.1l-1.7-.4-1.1-.1h-.5l-.7-.7-.8-.5-.9-.2-.9.1-.6.2-.8-.1h-1.8v-.2L76 60l-1.4-.2-1.3-.1-.5.1v-.1l-1-.1-1-.1h-.1l-1.1-.5-1.1-.3-1-.1h-.8l-1.1-.4-.9-.2h-1l-1.1-.8-.9-.3-.7-.1-.8-.4-1.2-.2h-1.1l-1.1-.5-1-.2h-.6l-1.2-.6-1-.3-1-.1-.3.1h.1l-1.4-.8-1.1-.4-1-.1h-.1l-.7-.5-.6-.3-.6-.2-.7-.1-.7.1-.8-.6-.7-.3-.9-.1h-.8l-.9.2-.2.1-1-.5-1-.3h-.9l-.8-.5-.7-.3h-.8l-.7.1-.7.2h-.1l-.7-.7-.6-.4-.7-.1-.7.1-.6.3-.2-.1-.3-.2-.3-.1-.3-.1h-.7l-.3.1-.5.3-.1.1-.9-.2h-.8l-.7.2-.6.5-.4.5-.3.7-.3.8-.2.8-.1.8-.1 1.6.1 1.8v.3c-.5-.2-1-.4-1.6-.6v-.4l.1-.6.1-1.3.1-1.2-.1-1.2-.1-.6-.1-.5-.1-.5-.2-.5-.2-.4-.3-.4-.3-.4-.6-.5.2.9.1.6.1.6.1.5.1.6.1.5v.1-.1l-.1-.3-.1-.3-.2-.6-.3-1-.1-.3-.2-1.3v-.4l.1-.7.1-.3.2-.7h-.2l-.5.6-.3.7-.3.7-.1.6V50l.1.7.1.7-.1-.1-.3-.4-.3-.4-.2-.5-.2-.5-.2-.5-.1-.7-.1-1-.7.6-.3.6-.2.6v.6l.1.6.2.6.3.6.1.2-.2.2-.6-.1-.1.2.4.2.4.3 1 .8.3.3.5.6.5.5.5.5.4.4.3.4.2.2c-5.7-2.3-11.7-5-19.1-8.5l-.4-.2.2.4c1 1.7 3.9 3.4 6.4 5 1.2.7 2.3 1.4 3.1 2 2.4 1.3 5.6 2.7 8.4 3.8h-.2l-2 .4-1.4.3-1.4.5-.7.3-.7.2-.6.4-.5.4-.5.5-.4.5-.3.6-.2.7.2.1.2-.2.5-.5.2-.2.6-.4.3-.2.3-.2.6-.3.4-.1.3-.1.7-.2.7-.1.6-.2 1.3-.7.6-.4.6-.4.5-.3.4-.2.3-.1.6.2-2.4 1.2-1.3.8-.7.5-.6.5-.6.5-.5.6-.3.5-.2.6-.1.6.1.7.4.9.5-1 .4-.6.4-.5.4-.4.4-.3.9-.6.4-.2-.1.4-.2.8v.9l.1 1 .3 1.1h.2l.2-1.1.3-1 .2-.5.4-.9.5-.9.8-1.4 1.1-1.8c.4.2.8.3 1.2.4l-.1.2-.7 1.4-.4.6-.3.7-.1.7-.2.7-.1.7v.7l.1.6.3.6.5.5.7.4.8.3.3.6.4.5.4.4.4.3.4.2.4.1h1v.1l.4.6.6.5.7.3h.8l.8-.2.2.2.6.6.6.4.7.3.8.1h.6l.6.4.7.3.8.2.6.5.8.4 1 .2 1.1.1h.2l.7.6.8.4.7.3.8.1.9-.2.4.2.6.3.6.1h.6l.6-.1.3.2 1 .3 1.1.1 1.3-.1.4.2.9.3 1 .1 1.4-.1h.1l.9.3 1 .1 1.1-.1.4.3 1 .4 1 .1 1.1-.1v-.1l.6.2h1l1.1-.2.7.2h.8l.8-.1 1.1.2.3.2 1 .3 1 .2 1.1.1 1.1-.1v-.1l.6.2.9.1.9.1v-.1l.6.2 1.2.4 1.3.3 1.4-.3v-.1h.2l.9.2.8.1h.9l.1.1.8.6.8.4H83l.8-.4.7-.6.9.1 1.1-.1h1.2v.1l.3.2 1.1.2 1.1-.1 1.1-.5h1l1.2.1 1-.1.6.1h1.4l.9-.1.5.2.6.1.6-.1.6-.3.1.1.8.1h2.5l.8-.3 1.1-.4h1.6l.8-.1.5.2.8.2.8.1.8-.1.9-.2.2.1.9.4.8.3h.8l.6-.3.5-.5.3.1.5.1.5.1h.5l.5-.1.5-.2.7.1.8-.1.7-.3h.7l.6-.1.6-.3.5-.4.1-.1.6.1.6-.1.5.1h.9l.4-.3.3-.2.1-.2h.1l.3-.1.3-.2.2-.5.1-.6h.2l.3-.1.1-.3.1.1v-.7zm-107-16.3l.2-.5.3.1-.2.2-.3.2zm.6-6.8l.1.5.1.5.1.5.3 1.6.2.7-.4-.2h.1l-.2-.1-.5-.4v-2.4l.1-.8.1.1z"/></symbol><symbol id="icon-css" viewBox="0 0 128 128"><path fill="#1572B6" d="M8.76 1l10.055 112.883 45.118 12.58 45.244-12.626L119.24 1H8.76zm89.591 25.862l-3.347 37.605.01.203-.014.467v-.004l-2.378 26.294-.262 2.336L64 101.607v.001l-.022.019-28.311-7.888L33.75 72h13.883l.985 11.054 15.386 4.17-.004.008v-.002l15.443-4.229L81.075 65H48.792l-.277-3.043-.631-7.129L47.553 51h34.749l1.264-14H30.64l-.277-3.041-.63-7.131L29.401 23h69.281l-.331 3.862z"/></symbol><symbol id="icon-docker" viewBox="0 0 128 128"><path fill="#019BC6" d="M124.8 52.1c-4.3-2.5-10-2.8-14.8-1.4-.6-5.2-4-9.7-8-12.9l-1.6-1.3-1.4 1.6c-2.7 3.1-3.5 8.3-3.1 12.3.3 2.9 1.2 5.9 3 8.3-1.4.8-2.9 1.9-4.3 2.4-2.8 1-5.9 2-8.9 2H79V49H66V24H51v12H26v13H13v14H1.8l-.2 1.5c-.5 6.4.3 12.6 3 18.5l1.1 2.2.1.2c7.9 13.4 21.7 19 36.8 19 29.2 0 53.3-13.1 64.3-40.6 7.4.4 15-1.8 18.6-8.9l.9-1.8-1.6-1zM28 39h10v11H28V39zm13.1 44.2c0 1.7-1.4 3.1-3.1 3.1-1.7 0-3.1-1.4-3.1-3.1 0-1.7 1.4-3.1 3.1-3.1 1.7.1 3.1 1.4 3.1 3.1zM28 52h10v11H28V52zm-13 0h11v11H15V52zm27.7 50.2c-15.8-.1-24.3-5.4-31.3-12.4 2.1.1 4.1.2 5.9.2 1.6 0 3.2 0 4.7-.1 3.9-.2 7.3-.7 10.1-1.5 2.3 5.3 6.5 10.2 14 13.8h-3.4zM51 63H40V52h11v11zm0-13H40V39h11v11zm13 13H53V52h11v11zm0-13H53V39h11v11zm0-13H53V26h11v11zm13 26H66V52h11v11zM38.8 81.2c-.2-.1-.5-.2-.8-.2-1.2 0-2.2 1-2.2 2.2 0 1.2 1 2.2 2.2 2.2s2.2-1 2.2-2.2c0-.3-.1-.6-.2-.8-.2.3-.4.5-.8.5-.5 0-.9-.4-.9-.9.1-.4.3-.7.5-.8z"/></symbol><symbol id="icon-elm" viewBox="-16 -16 360 360"><path fill="#F0AD00" d="M161.649 152.782l69.865-69.866H91.783z"/><path fill="#7FD13B" d="M8.867 0l70.374 70.375h152.972L161.838 0z"/><path fill="#7FD13B" transform="rotate(45.001 246.83 161.471)" d="M192.99 107.392h107.676v108.167H192.99z"/><path fill="#60B5CC" d="M323.298 143.724V0H179.573z"/><path fill="#5A6378" d="M152.781 161.649L0 8.868v305.564z"/><path fill="#F0AD00" d="M255.522 246.655l67.776 67.777V178.879z"/><path fill="#60B5CC" d="M161.649 170.517L8.869 323.298H314.43z"/></symbol><symbol id="icon-git" viewBox="0 0 128 128"><path fill="#F34F29" d="M124.737 58.378L69.621 3.264c-3.172-3.174-8.32-3.174-11.497 0L46.68 14.71l14.518 14.518c3.375-1.139 7.243-.375 9.932 2.314 2.703 2.706 3.461 6.607 2.294 9.993l13.992 13.993c3.385-1.167 7.292-.413 9.994 2.295 3.78 3.777 3.78 9.9 0 13.679a9.673 9.673 0 0 1-13.683 0 9.677 9.677 0 0 1-2.105-10.521L68.574 47.933l-.002 34.341a9.708 9.708 0 0 1 2.559 1.828c3.778 3.777 3.778 9.898 0 13.683-3.779 3.777-9.904 3.777-13.679 0-3.778-3.784-3.778-9.905 0-13.683a9.65 9.65 0 0 1 3.167-2.11V47.333a9.581 9.581 0 0 1-3.167-2.111c-2.862-2.86-3.551-7.06-2.083-10.576L41.056 20.333 3.264 58.123a8.133 8.133 0 0 0 0 11.5l55.117 55.114c3.174 3.174 8.32 3.174 11.499 0l54.858-54.858a8.135 8.135 0 0 0-.001-11.501z"/></symbol><symbol id="icon-github" viewBox="0 0 128 128"><path fill-rule="evenodd" clip-rule="evenodd" d="M64 5.103c-33.347 0-60.388 27.035-60.388 60.388 0 26.682 17.303 49.317 41.297 57.303 3.017.56 4.125-1.31 4.125-2.905 0-1.44-.056-6.197-.082-11.243-16.8 3.653-20.345-7.125-20.345-7.125-2.747-6.98-6.705-8.836-6.705-8.836-5.48-3.748.413-3.67.413-3.67 6.063.425 9.257 6.223 9.257 6.223 5.386 9.23 14.127 6.562 17.573 5.02.542-3.903 2.107-6.568 3.834-8.076-13.413-1.525-27.514-6.704-27.514-29.843 0-6.593 2.36-11.98 6.223-16.21-.628-1.52-2.695-7.662.584-15.98 0 0 5.07-1.623 16.61 6.19C53.7 35 58.867 34.327 64 34.304c5.13.023 10.3.694 15.127 2.033 11.526-7.813 16.59-6.19 16.59-6.19 3.287 8.317 1.22 14.46.593 15.98 3.872 4.23 6.215 9.617 6.215 16.21 0 23.194-14.127 28.3-27.574 29.796 2.167 1.874 4.097 5.55 4.097 11.183 0 8.08-.07 14.583-.07 16.572 0 1.607 1.088 3.49 4.148 2.897 23.98-7.994 41.263-30.622 41.263-57.294C124.388 32.14 97.35 5.104 64 5.104z"/><path d="M26.484 91.806c-.133.3-.605.39-1.035.185-.44-.196-.685-.605-.543-.906.13-.31.603-.395 1.04-.188.44.197.69.61.537.91zm2.446 2.729c-.287.267-.85.143-1.232-.28-.396-.42-.47-.983-.177-1.254.298-.266.844-.14 1.24.28.394.426.472.984.17 1.255zM31.312 98.012c-.37.258-.976.017-1.35-.52-.37-.538-.37-1.183.01-1.44.373-.258.97-.025 1.35.507.368.545.368 1.19-.01 1.452zm3.261 3.361c-.33.365-1.036.267-1.552-.23-.527-.487-.674-1.18-.343-1.544.336-.366 1.045-.264 1.564.23.527.486.686 1.18.333 1.543zm4.5 1.951c-.147.473-.825.688-1.51.486-.683-.207-1.13-.76-.99-1.238.14-.477.823-.7 1.512-.485.683.206 1.13.756.988 1.237zm4.943.361c.017.498-.563.91-1.28.92-.723.017-1.308-.387-1.315-.877 0-.503.568-.91 1.29-.924.717-.013 1.306.387 1.306.88zm4.598-.782c.086.485-.413.984-1.126 1.117-.7.13-1.35-.172-1.44-.653-.086-.498.422-.997 1.122-1.126.714-.123 1.354.17 1.444.663zm0 0"/></symbol><symbol id="icon-grunt" viewBox="0 0 128 128"><path fill-rule="evenodd" clip-rule="evenodd" fill="#FCAA1A" d="M99.317 67.238c2.712-1.541 5.517-3.078 7.829-5.126 4.158-3.682 3.741-8.945-.589-12.396-.709-.564-1.706-1.161-1.896-1.913-.856-3.389-1.632-6.815.458-10.14a16.461 16.461 0 0 0 1.876-4.177c1.174-4.106-.788-7.508-4.896-8.717-.703-.208-1.472-.214-2.154-.464-.431-.158-1.021-.549-1.09-.92-.771-4.112-.255-5.844 2.961-7.677 1.518-.865 3.289-1.294 4.96-1.88.646-.227 1.333-.339 2.061-.518C105 7.947 98.218 5.687 91.482 7.357c-5.282 1.309-9.078 4.713-12.503 8.692-.402.469-1.119.922-1.7.934-1.589.033-1.935-1.151-1.658-2.4.538-2.434 1.24-4.831 1.888-7.293-3.005-.079-5.299 1.829-7.935 3.667-.314-1.627-.72-2.984-.803-4.359-.085-1.435.142-2.889.239-4.441-4.632 1.666-8.171 4.309-9.161 9.493l-.6.006-1.383-6.472c-.561.358-1.169.644-1.648 1.072-2.817 2.514-4.544 5.598-4.869 9.419-.04.463-.375 1.251-.624 1.271-.479.039-1.097-.253-1.472-.606-.758-.712-1.362-1.586-2.083-2.342-4.34-4.557-9.442-7.527-15.95-7.134-4.922.296-9.122 2.146-11.946 6.205 2.418.913 4.858 1.579 7.048 2.725 2.75 1.438 3.391 3.488 3.084 6.473-.172 1.675-.954 2.048-2.395 2.273-4.99.783-7.36 4.623-5.889 9.44.303.991.62 2.071 1.252 2.849 2.279 2.806 1.779 5.979 1.482 9.161-.142 1.51-.856 2.577-2.063 3.512-5.025 3.894-5.151 9.321-.18 13.347 2.034 1.647 4.367 2.98 6.704 4.184 3.192 1.644 4.456 4.276 4.446 7.656-.009 2.769-.13 5.54-.288 8.304-.113 1.963-.374 3.918-.568 5.877l-.564.154c-1.15-1.563-2.465-3.036-3.407-4.717-.934-1.666-1.492-3.542-2.215-5.326-7.409 6.106-7.611 23.632 4.233 29.038 1.657.757 2.724 1.796 3.642 3.343 3.153 5.313 7.816 8.55 13.953 9.611a4.824 4.824 0 0 1 1.827.738c8.158 5.494 21.059 5.515 29.176.038.492-.333 1.063-.659 1.635-.749 6.825-1.08 11.668-4.854 14.96-10.819.303-.548.799-1.147 1.35-1.375 7.023-2.9 10.426-8.298 10.891-15.705.343-5.461-1.122-10.297-5.28-14.41-.854 4.179-2.692 7.555-6.278 10.224-.177-5.156-.494-10.313-.476-15.467.008-2.727 1.473-4.795 3.963-6.21zM32.121 15.796c3.103-.017 7.242 3.487 6.955 6.414-.106 1.082-1.493 2.513-2.599 2.883-1.051.352-2.735-.11-3.069-1.862-.159-.84-.275-1.688-.422-2.53-.279-1.604-.566-3.207-.865-4.905zm7.734 91.281c-1.693-.292-3.355-.44-4.938-.874-6.886-1.888-10.736-6.76-10.858-13.893-.035-2.043.441-4.096.703-6.142.005-.039.262-.077.388-.05.043.008.045.216.065.333 3.477 7.423 10.109 9.433 17.411 10.118l-3.395 6.311.624 4.197zM39 51.847v-4.625c3 2.267 7.195 4.498 9.861 7.583.241.269.492.525.712.81.143.181.238.403.343.597C46.401 58.933 39 57.227 39 51.847zm19.394 54.295c-.746 1.048-1.454 2.126-2.246 3.139-1.853 2.369-4.483 2.518-6.694.41-.705-.671-1.392-1.363-2.086-2.044l.004.009-.382-.382c-.813-3.931-.731-4.033 3.489-4.065 1.968-.016 3.936-.047 5.9.012 2.201.065 2.647.758 2.015 2.921zm22.564.789l-.399.718.005-.005-.01.015.005-.009c-.53.575-1.046 1.164-1.595 1.721-2.498 2.536-5.238 2.372-7.4-.459-.697-.914-1.328-1.878-1.989-2.819-.589-2.115-.098-2.829 2.111-2.877 2.276-.05 4.554-.031 6.83-.006 3.065.035 3.57.821 2.442 3.721zm-2.94-50.763l1.099-1.328C81.78 51.746 85 49.518 89 47.227v4.628c0 5.267-7.266 7.101-10.982 4.313zm24.42 30.845l.488-1.1c1.542 4.989 1.669 9.889-1.235 14.321-3.119 4.759-7.967 6.416-13.492 6.758l.511-4.114-3.29-6.277c6.896-.786 13.522-2.422 17.018-9.588zm-7.737-64.357c-.187 1.122-.541 1.898-1.883 2.352-2.002.677-2.709-.756-3.514-1.8-.389-.503-.229-1.687.063-2.41.951-2.367 2.53-4.191 5.121-4.884.501-.133 1.027-.17 1.335-.219-.406 2.529-.753 4.747-1.122 6.961z"/></symbol><symbol id="icon-gulp" viewBox="0 0 128 128"><path fill-rule="evenodd" clip-rule="evenodd" fill="#EB4A4B" d="M36.965 35.459c.877 9.232 1.747 18.412 2.637 27.798 1.451-2.495 2.501-4.888 4.085-6.848 1.475-1.826 3.334-3.511 5.357-4.678 2.641-1.524 6.104-.089 6.96 2.614.23.725-.319 1.697-.511 2.556-.646-.341-1.479-.529-1.901-1.051-1.793-2.217-2.873-2.479-4.856-.563-3.699 3.576-5.779 8.056-6.573 13.091-.153.974.456 2.067.713 3.105 1.011-.348 2.185-.476 3.002-1.084 2.656-1.977 4.302-4.666 5.21-7.88.197-.696 1.265-1.145 1.933-1.708.32.658 1.05 1.433.897 1.954a373.814 373.814 0 0 1-4.536 14.429c-.162.484-1.051.725-1.604 1.079-.223-.636-.692-1.302-.617-1.901.168-1.358.605-2.683.91-3.927l-7.24 3.333c.405 4.622.825 9.807 1.323 14.985.382 3.954 1.029 4.978 4.923 5.728 4.544.875 9.173 1.434 13.792 1.774a60.391 60.391 0 0 0 20.23-1.904c2.472-.664 3.458-2.29 3.635-4.717.162-2.235.524-4.456.775-6.685.493-4.391.972-8.783 1.476-13.358-1.667 1.056-2.978 2.238-4.511 2.739-1.116.365-2.524-.169-3.803-.303.245-1.174.23-2.497.796-3.487.922-1.618 2.224-3.021 3.364-4.515l-.491-.591c-.817.483-1.832.8-2.413 1.485-1.182 1.394-2.339 2.886-3.13 4.52-1.324 2.735-2.333 5.622-3.518 8.426-.515 1.216-.959 3.076-2.684 2.366-1.845-.761-.547-2.386-.114-3.542.689-1.844 1.599-3.606 2.215-4.962-1.746.208-3.516.459-5.294.614-.752.064-1.646-.348-2.261-.07-2.045.924-3.341.553-3.766-1.711-.947.615-1.749 1.448-2.694 1.672-1.147.273-2.703.452-3.543-.121-.673-.459-.918-2.184-.688-3.196.457-2.012 1.311-3.946 2.122-5.859.502-1.185 1.007-3.077 2.701-2.253 1.674.813.154 2.185-.232 3.286-.599 1.702-1.209 3.401-1.813 5.101l.96.58c.914-.794 2.053-1.441 2.693-2.415 1.048-1.592 1.681-3.452 2.673-5.086.411-.677 1.296-1.065 1.967-1.584.136.862.462 1.748.354 2.58-.107.841-.698 1.61-.981 2.442-.425 1.246-.768 2.52-1.2 3.969 2.043.078 2.918-.782 3.495-2.299 1.826-4.793 3.672-9.581 5.679-14.3.343-.808 1.509-1.264 2.296-1.884.091.974.525 2.078.216 2.899-1.645 4.349-3.492 8.62-5.228 12.935-.293.727-.387 1.534-.572 2.304 3.059-1.375 5.612-2.895 6.544-6.146.228-.79 1.162-1.377 1.771-2.058l1.416 1.5c.43-.362.824-.774 1.291-1.075 1.47-.947 3.053-1.782 4.603-.315 1.604 1.517.39 2.995-.448 4.307-.912 1.431-2.029 2.73-3.057 4.086 2.312-1.49 5.469-2.158 5.889-5.378 1.024-7.865 1.924-15.746 2.837-23.625.271-2.332.416-4.679.627-7.109-18.21 4.409-36.029 4.436-54.088-.069zm7.816 61.369c.877 2.317 2.209 4.593 2.558 7.011.737 5.147.924 10.372 1.446 15.554.076.755.565 1.792 1.175 2.124 8.98 4.88 18.047 5.726 27.209.389 1.367-.796 1.62-1.847 1.797-3.325.857-7.181-1.051-14.798 3.54-21.56-12.856 3.189-25.403 3.288-37.725-.193zm30.991-60.08c4.362-.421 8.671-1.445 12.985-2.291.813-.159 1.535-.778 2.299-1.185-1.007-.885-1.878-1.311-2.788-1.418-4.53-.535-9.076-.947-13.603-1.508-.684-.085-1.905-.929-1.854-1.083 1.321-3.98 1.256-8.485 4.254-11.839 3.789-4.24 7.617-8.443 11.416-12.648-2.826-3.04-2.864-3.044-5.425-.383-1.448 1.504-2.771 3.15-4.342 4.512-5.813 5.038-9.896 11.005-10.692 18.872-.183 1.805-1.174 2.457-3.069 2.485-6.256.091-12.519.263-18.761.674-3.093.203-6.148.997-9.221 1.523l-.028 1.149c1.923.593 3.809 1.372 5.773 1.749 10.944 2.098 21.991 2.458 33.056 1.391zM72.276 34c-2.477 2-4.524 2-6.501 0h6.501z"/></symbol><symbol id="icon-haskell" viewBox="0 -70 480 480"><defs><clipPath id="clip1"><path d="M0 340.156h481.89V0H0v340.156zm0 0"/></clipPath></defs><g clip-path="url(#clip1)" id="surface0"><path d="M0 340.156l113.387-170.078L0 0h85.04l113.386 170.078L85.039 340.156H0zm0 0" fill="#666"/><path d="M113.387 340.156l113.386-170.078L113.387 0h85.039l226.77 340.156h-85.04L269.293 233.86l-70.867 106.297h-85.04zm0 0" fill="#999"/><path d="M387.402 240.945l-37.793-56.691 132.282-.004v56.695h-94.489zm0 0M330.71 155.906l-37.796-56.691 188.977-.004v56.695H330.71zm0 0" fill="#666"/></g></symbol><symbol id="icon-html" viewBox="0 0 128 128"><path fill="#E44D26" d="M9.032 2l10.005 112.093 44.896 12.401 45.02-12.387L118.968 2H9.032zm89.126 26.539l-.627 7.172L97.255 39H44.59l1.257 14h50.156l-.336 3.471-3.233 36.119-.238 2.27L64 102.609v.002l-.034.018-28.177-7.423L33.876 74h13.815l.979 10.919L63.957 89H64v-.546l15.355-3.875L80.959 67H33.261l-3.383-38.117L29.549 25h68.939l-.33 3.539z"/></symbol><symbol id="icon-jenkins" viewBox="0 0 180 180"><g transform="matrix(1.25 0 0 -1.25 0 180)"><path d="M107.965 30.661l-12.507-1.876-16.883-1.876-10.943-.312-10.629.312-8.13 2.502-7.19 7.816-5.628 15.944-1.25 3.44-7.503 2.5-4.378 7.191-3.126 10.318 3.44 9.067 8.128 2.813 6.565-3.127 3.127-6.878 3.752.626 1.25 1.563-1.25 7.19-.313 9.068 1.876 12.505-.074 7.143L52 125.704l10.005 7.191 17.508 7.504 19.384-2.814 16.882-12.193 7.817-12.506 5.002-9.067 1.25-22.51-3.751-19.384-6.878-17.195-6.566-9.067" fill="#f0d6b7" fill-rule="evenodd"/><path d="M97.334-23.425l-44.708-1.876v-7.504l3.751-26.262-1.876-2.189-31.263 10.63-2.19 3.752-3.126 35.328-7.19 21.26-1.563 5.002 25.01 17.195 7.817 3.127 6.878-8.44 5.94-5.316 6.879-2.188 3.126-.938L68.57 1.899l2.814-3.44L78.575.961l-5.002-9.693 27.2-12.818-3.439-1.875" fill="#335061" fill-rule="evenodd"/><path d="M23.238 85.687l8.128 2.813 6.565-3.127 3.127-6.878 3.752.626.938 3.752-1.876 7.19 1.876 17.196-1.564 9.38 5.628 6.565 12.193 9.691-3.44 4.69-17.195-8.441-7.19-5.628-4.065-8.754-6.253-8.441-1.876-10.005 1.252-10.63" fill="#6d6b6d" fill-rule="evenodd"/><path d="M36.055 115.075s4.69 11.567 23.449 17.195c18.758 5.627.938 4.065.938 4.065l-20.322-7.817-7.816-7.816-3.439-6.253 7.19.626m-9.379-27.2s-6.565 21.885 18.446 25.011l-.938 3.752-17.195-4.065-5.003-16.257 1.252-10.63 3.438 2.189" fill="#dcd9d8" fill-rule="evenodd"/><path d="M36.68 58.799l4.094 3.966s1.848-.214 2.16-2.402c.312-2.19 1.25-21.886 14.694-32.517 1.226-.97-10.004 1.565-10.004 1.565L37.619 45.042m56.59 19.697s.729 9.477 3.28 8.748c2.553-.729 2.553-3.28 2.553-3.28s-6.198-4.01-5.833-5.468" fill="#f7e4cd" fill-rule="evenodd"/><path d="M120.157 99.442s-5.153-1.088-5.628-5.627c-.474-4.54 5.628-.938 6.566-.626m-38.768 5.94s-6.879-.938-6.879-5.314c0-4.378 7.817-4.065 10.005-2.19" fill="#f7e4cd"/><path d="M39.807 78.808s-11.88 7.19-13.13.312c-1.251-6.878-4.066-11.88 1.875-19.07l-4.064 1.25-3.752 9.691-1.25 9.38 7.19 7.504 8.129-.626 4.69-3.752.312-4.69m5.628 19.697s5.315 27.512 32.202 32.828c22.137 4.375 33.765-.938 38.142-5.94 0 0-19.696 23.447-38.455 16.257-18.758-7.191-32.514-20.322-32.202-28.763.533-14.376.313-14.382.313-14.382m72.534 23.762s-9.066.312-9.38-7.817c0 0 0-1.25.625-2.5 0 0 7.192 8.129 11.568 3.751" fill="#f7e4cd" fill-rule="evenodd"/><path d="M78.268 111.102s-1.561 12.477-12.199 5.223c-6.878-4.69-6.252-11.255-5.002-12.506 1.25-1.25.91-3.769 1.862-2.04.952 1.728.638 7.356 4.078 8.918 3.44 1.564 9.077 3.31 11.26.405" fill="#f7e4cd" fill-rule="evenodd"/><path d="M48.874 26.597l-29.388-13.13s12.193-48.46 5.94-63.468l-4.377 1.563-.313 18.446-8.128 35.016-3.44 9.692 30.64 20.634 9.066-8.753M51.896-.206l4.17-5.087v-18.759h-5.004s-.624 13.131-.624 14.695c0 1.563.624 7.19.624 7.19M52-26.866l-14.069-.624 4.065-2.814L52-31.867" fill="#49728b" fill-rule="evenodd"/><path d="M100.148-23.739l11.567.313 2.814-28.764-11.88-1.562-2.501 30.013" fill="#335061" fill-rule="evenodd"/><path d="M103.274-23.739l17.508.938s7.19 18.133 7.19 19.071c0 .938 6.254 26.262 6.254 26.262l-14.07 14.694-2.813 2.501-7.503-7.503V3.148l-6.566-26.887" fill="#335061" fill-rule="evenodd"/><path d="M111.09-21.55l-10.942-2.189 1.563-8.754c4.064-1.876 10.942 3.127 10.942 3.127m-1.25 62.528l21.885-16.257.625 7.503-16.57 15.32-5.94-6.566" fill="#49728b" fill-rule="evenodd"/><path d="M62.85-85.332l-6.473 26.265-3.219 19.38-.532 14.386 29.296 1.56 18.226.002-1.657-32.83 2.813-25.324-.312-4.69-23.76-1.876-14.382 3.127" fill="#fff" fill-rule="evenodd"/><path d="M96.083-23.426s-1.563-32.515 3.127-55.65c0 0-9.38-5.941-23.136-7.504l26.262.938 3.126 1.876-3.751 51.273-.938 10.943" fill="#dcd9d8" fill-rule="evenodd"/><path d="M115.062-49.691l12.193 3.44 23.135 1.25 3.44 10.629-6.254 18.446-7.19.938-10.005-3.126-9.599-4.687-5.095.935-3.972-1.56" fill="#fff" fill-rule="evenodd"/><path d="M114.841-43.435s8.129 3.75 9.38 3.438L120.782-22.8l4.064 1.563s2.814-16.257 2.814-18.133c0 0 17.508-.938 19.071-.938 0 0 3.752 7.191 2.814 14.695l3.44-10.005.312-5.628-5.002-7.503-5.628-1.25-9.38.312-3.125 4.064-10.943-1.563-3.44-1.251" fill="#dcd9d8" fill-rule="evenodd"/><path d="M102.556-21.241L95.678-3.733 88.487 6.585s1.562 4.377 3.751 4.377h7.191l6.878-2.502-.624-11.567-3.127-18.134" fill="#fff"/><path d="M103.9-15.297S95.145 1.585 95.145 4.086c0 0 1.563 3.752 3.752 2.814 2.189-.938 6.878-3.439 6.878-3.439v5.94l-10.63 2.19-7.19-.939 12.193-28.763 2.5-.313" fill="#dcd9d8" fill-rule="evenodd"/><path d="M65.664 25.968l-8.66.941-8.13 2.502v-2.814l3.972-4.38 12.505-5.628" fill="#fff"/><path d="M51.689 25.03s9.692-4.064 12.819-3.126l.31-3.748-8.752 1.872-5.315 3.752.938 1.25" fill="#dcd9d8" fill-rule="evenodd"/><path d="M115.028 9.897c-5.305.156-10.098.786-14.294 1.97.285 1.72-.248 3.408.18 4.647 1.17.843 3.13.83 4.898 1.027-1.529.752-3.677 1.049-5.44.615-.042 1.194-.578 1.934-.902 2.868 2.982 1.065 10.023 8.044 13.984 5.733 1.887-1.1 2.69-7.378 2.836-10.431.122-2.533-.23-5.087-1.262-6.429" fill="#d33833" fill-rule="evenodd"/><path d="M115.028 9.897c-5.305.156-10.098.786-14.294 1.97.285 1.72-.248 3.408.18 4.647 1.17.843 3.13.83 4.898 1.027-1.529.752-3.677 1.049-5.44.615-.042 1.194-.578 1.934-.902 2.868 2.982 1.065 10.023 8.044 13.984 5.733 1.887-1.1 2.69-7.378 2.836-10.431.122-2.533-.23-5.087-1.262-6.429z" fill="none" stroke="#d33833" stroke-width="2"/><path d="M89.66 18.57c-.014-.402-.03-.806-.047-1.211-1.656-1.088-4.33-1.075-6.148-1.99 2.68-.117 4.79-.762 6.614-1.672l-.118-3.032c-3.036-2.079-5.81-5.174-9.384-7.123-1.69-.922-7.622-3.294-9.42-2.875-1.017.237-1.109 1.5-1.516 2.69-.866 2.548-2.861 6.604-3.035 10.44-.222 4.846-.71 12.966 4.51 11.968 4.213-.804 9.113-2.744 12.374-4.526 1.993-1.09 3.146-2.437 6.17-2.67" fill="#d33833" fill-rule="evenodd"/><path d="M89.66 18.57c-.014-.402-.03-.806-.047-1.211-1.656-1.088-4.33-1.075-6.148-1.99 2.68-.117 4.79-.762 6.614-1.672l-.118-3.032c-3.036-2.079-5.81-5.174-9.384-7.123-1.69-.922-7.622-3.294-9.42-2.875-1.017.237-1.109 1.5-1.516 2.69-.866 2.548-2.861 6.604-3.035 10.44-.222 4.846-.71 12.966 4.51 11.968 4.213-.804 9.113-2.744 12.374-4.526 1.993-1.09 3.146-2.437 6.17-2.67z" fill="none" stroke="#d33833" stroke-width="2"/><path d="M92.675 12.788c-.463 2.64-.998 3.392-.791 5.695 7.039 4.693 8.36-8.061.791-5.695" fill="#d33833" fill-rule="evenodd"/><path d="M92.675 12.788c-.463 2.64-.998 3.392-.791 5.695 7.039 4.693 8.36-8.061.791-5.695z" fill="none" stroke="#d33833" stroke-width="2"/><path d="M102.868 10.649s-2.19 3.127-.626 4.065c1.564.938 3.127-.001 4.065 1.562.938 1.564 0 2.502.313 4.377.312 1.876 1.876 2.19 3.439 2.502 1.563.312 5.94.938 6.566-.626l-1.876 5.628-3.752 1.25-11.88-6.878-.626-3.44v-6.877M70.04.331c-.375 4.88-.772 9.752-1.215 14.626-.661 7.279 1.749 6.009 8.058 6.009.963 0 5.933-1.15 6.288-1.876 1.706-3.483-2.85-2.709 1.964-5.335 4.065-2.216 11.246 1.346 9.604 6.273-.92 1.095-4.79.341-6.176 1.06l-7.328 3.8c-3.107 1.612-10.29 3.962-13.603 1.71-8.394-5.71.53-19.975 3.525-25.93" fill="#ef3d3a" fill-rule="evenodd"/><path d="M78.268 111.102c-8.522 1.984-12.756-3.566-15.339-9.323-2.306.559-1.388 3.695-.806 5.293 1.525 4.195 7.672 9.778 12.695 9.021 2.16-.325 5.086-2.301 3.45-4.991m41.518-9.704l.404-.016c1.926-4 3.593-8.238 6.022-11.77-1.627-3.79-12.322-7.143-12.157-.338 2.313 1.011 6.305.207 8.356 1.498-1.186 3.254-2.897 6.023-2.625 10.626m-37.156-.104c1.827-3.35 2.422-6.869 5.02-9.4 1.169-1.14 3.443-2.529 2.316-5.698-.264-.748-2.19-2.414-3.3-2.742-4.061-1.198-13.522-.247-10.318 4.815 3.358-.157 7.871-2.181 10.381.257-1.927 3.08-5.364 9.176-4.099 12.768m35.632-34.041c-6.113-3.928-12.93-8.198-22.947-7.208-2.14 1.861-2.957 6.002-.877 8.737 1.082-1.86.402-5.283 3.419-5.798 5.683-.973 12.299 3.477 16.387 5.032 2.535 4.274-.218 5.846-2.502 8.597-4.676 5.636-10.948 12.622-10.72 21.06 1.89 1.37 2.053-2.092 2.324-2.723 2.442-5.713 8.586-13.02 13.07-17.911 1.101-1.204 2.914-2.36 3.116-3.156.582-2.316-1.513-5.09-1.27-6.63m-80.594 4.134c-1.917 1.094-2.373 5.91-4.622 6.048-3.215.195-2.63-6.25-2.616-10.018-2.213 2.009-2.602 8.194-.977 11.371-1.852.91-2.68-1.003-3.707-1.678 1.32 9.595 14.036 4.45 11.922-5.723m84.487-8.13c-2.846-5.417-6.872-11.382-15.222-11.555-.17 1.749-.3 4.41.009 5.464 6.383.613 10.325 3.862 15.212 6.091m-40.005-3.512c5.326-2.8 15.114-3.101 22.353-2.89.388-1.585.379-3.545.394-5.479-9.305-.464-20.307 1.839-22.747 8.37m-1.013-5.223c3.683-9.247 16.342-8.183 27.016-7.927-.47-1.2-1.488-2.62-2.754-3.132-3.421-1.392-12.856-2.448-17.604.074-3.012 1.601-4.947 5.219-6.597 7.34-.797 1.023-4.765 3.64-.06 3.645" fill="#231f20" fill-rule="evenodd"/><path d="M117.818 3.516c-4.322-7.402-8.458-15.005-13.585-21.534 2.15 6.32 3.07 16.9 3.394 24.965 4.497 2.104 8.348-.474 10.19-3.431" fill="#81b0c4" fill-rule="evenodd"/><path d="M141.074-23.089c-4.838-.968-8.238-5.671-12.959-5.37 2.594 3.658 7.14 5.2 12.96 5.37m2.135-7.572c-3.945-.417-8.577-1.056-12.578-.727 1.894 2.893 9.19 1.895 12.577.727m1.367-6.529c-4.433-.096-9.942-.008-14.156.346 2.493 2.676 11.28.993 14.156-.346" fill="#231f20" fill-rule="evenodd"/><path d="M109.478-55.057c.635-5.567 2.842-11.207 2.566-17.304-2.451-.826-3.859-1.55-7.143-1.545-.231 5.182-.924 13.102-.717 18.041 1.615-.106 3.996 1.154 5.294.808" fill="#dcd9d8" fill-rule="evenodd"/><path d="M102.331 26.985c-2.225-1.452-4.12-3.266-6.258-4.818-4.74-.234-7.327.329-10.81 3.05.057.219.407.121.42.39 5.074-2.262 11.525.92 16.648 1.378" fill="#f0d6b7" fill-rule="evenodd"/><path d="M75.694-7.603c1.394 6.04 6.857 9.17 11.817 12.496 5.12-6.498 8.234-14.854 11.663-22.919-8.101 2.443-16.38 6.405-23.48 10.423" fill="#81b0c4" fill-rule="evenodd"/><path d="M104.184-55.865c-.207-4.939.486-12.86.717-18.04 3.284-.005 4.692.718 7.143 1.544.276 6.097-1.93 11.737-2.567 17.304-1.297.346-3.678-.914-5.293-.808zm-51.13 28.09c2.165-19.905 5.301-36.639 11.053-54.265 12.767-3.877 28.157-4.214 39.44-.717-2.071 9.949-1.166 22.061-2.377 32.678-.912 7.98-.447 16.008-1.698 24.15-13.673 2.844-33 .664-46.418-1.846zm49.65 1.72c-.115-8.549.383-16.981 1.036-25.541 3.283.493 5.51.822 8.56 1.49-.99 8.24-.868 17.513-2.885 24.803-2.332-.022-4.385.027-6.71-.752zm16.654 1.378c-1.558.358-3.372.014-4.86-.015.699-6.968 2.397-14.658 2.994-21.974 2.342-.072 3.593 1.032 5.52 1.404.103 6.42-.561 15.267-3.654 20.585zm25.215-23.038c4.882 1.186 7.952 7.165 6.586 13.306-.916 4.126-2.548 11.897-4.295 14.537-1.29 1.953-4.79 4.51-7.584 2.72-4.545-2.91-12.552-3.755-15.867-7.278 1.662-5.534 2.178-13.135 2.864-20.146 5.678-.354 12.665 1.562 17.387-.472-3.297-1.068-7.575-1.076-10.423-2.632 2.328-1.125 7.778-.898 11.332-.035zm-45.399 29.69c-3.429 8.064-6.543 16.42-11.663 22.918-4.96-3.326-10.423-6.455-11.817-12.496 7.1-4.018 15.379-7.98 23.48-10.423zm8.453 24.972c-.325-8.065-1.245-18.645-3.394-24.965 5.127 6.529 9.263 14.132 13.585 21.534-1.843 2.957-5.694 5.535-10.191 3.43zm-9.582 3.404c-1.942.21-3.591-2.233-6.117-1.177-.579-.64-1.105-1.333-1.695-1.957 5.579-6.723 8.114-16.262 12.423-24.163 2.312 7.59 2.046 15.904 2.555 24.188-3.177-.202-4.94 2.873-7.166 3.11zm-6.161 8.132c-.207-2.303.328-3.056.791-5.695 7.57-2.366 6.248 10.388-.791 5.695zM83.49 21.24c-3.261 1.782-8.16 3.722-12.373 4.526-5.222 1-4.733-7.122-4.511-11.968.174-3.836 2.169-7.892 3.035-10.44.407-1.19.499-2.453 1.516-2.69 1.798-.419 7.73 1.953 9.42 2.875 3.575 1.949 6.348 5.044 9.384 7.123l.118 3.032c-1.825.91-3.934 1.555-6.614 1.672 1.818.915 4.492.902 6.148 1.99.016.405.033.809.047 1.21-3.024.233-4.177 1.58-6.17 2.67zm-31.152 5.658c-2.706-2.748 7.592-6.494 10.872-6.696-.019 1.74.99 3.379.787 4.626-3.894.684-9.013.233-11.659 2.07zm33.345-1.29c-.013-.269-.363-.171-.42-.39 3.483-2.721 6.07-3.284 10.81-3.05 2.137 1.552 4.033 3.366 6.258 4.818-5.123-.457-11.574-3.64-16.648-1.378zm30.607-9.281c-.147 3.053-.949 9.331-2.836 10.43-3.96 2.313-11.002-4.667-13.984-5.732.324-.934.86-1.674.901-2.868 1.764.434 3.912.137 5.441-.615-1.768-.197-3.728-.184-4.898-1.027-.428-1.239.105-2.927-.18-4.647 4.196-1.184 8.99-1.814 14.294-1.97 1.032 1.342 1.384 3.896 1.262 6.429zm-68.51 7.912c-.85.606-6.6 8.088-7.388 7.777-10.405-4.103-20.134-11.198-28.828-17.91C19.855-3.68 23.2-25.471 23.792-46.475c9.495-4.441 17.836-10.843 30.722-11.512-1.492 10.55-2.853 19.962-3.7 29.895-3.237 1.364-7.882-.062-10.912.423-.025 3.651 4.628 1.599 5.015 4.054.292 1.857-2.56 1.998-1.631 4.922 2.369-.86 3.612-2.762 6.139-3.477 2.308 5.05-.033 13.985.3 18.206.063.792.396 4.39 2.17 3.759 1.572-.559-.089-9.569.083-13.563.157-3.68-.444-7.242 1.046-9.552a355.804 355.804 0 0 0 38.577 3.16c-2.964 1.271-6.485 2.475-10.346 4.65-2.092 1.18-8.689 3.635-9.293 5.623-.963 3.167 2.528 4.854 3.125 7.57-6.285-3.428-7.51 3.285-8.998 8.042-1.347 4.307-2.114 7.525-2.444 10.01-5.415 2.581-11.203 5.195-15.864 8.505zm63.01 6.872c8.669 4.204 10.231-15.71 6.833-22.126.526-1.914 2.332-2.646 3.07-4.366-4.839-8.667-10.212-16.756-15.148-25.32 3.672 2.285 8.917.408 13.238 2.12 1.58.624 2.722 4.24 3.918 7.132 3.29 7.958 6.743 17.991 8.28 25.586.346 1.73 1.292 5.5 1.08 7.04-.378 2.758-4.12 4.803-6.023 6.508-3.506 3.15-5.713 5.921-9.37 8.866-1.483-2.189-4.666-3.66-5.878-5.44zm-82.836 76.88c-4.131-4.545-3.266-13.061-2.766-19.12 7.466 4.697 17.377-.372 17.284-8.36 3.564.094 1.331 4.451.686 7.259-2.107 9.169 3.55 19.13.257 27.516-6.395-.485-11.65-3.097-15.461-7.295zm29.557 26.38c-9.351-2.65-21.337-9.445-25.18-17.846 2.976.432 5.042 1.933 7.977 2.118 1.11.073 2.563-.465 3.838-.148 2.54.63 4.685 6.328 6.602 8.447 1.869 2.07 4.114 2.955 5.651 4.842.988.476 2.448.443 2.504 1.926-.428.458-.879.807-1.392.662zm48.682-2.492c-9.707 5.476-26.137 9.595-36.462 4.448-8.33-4.154-19.591-11.027-23.431-19.737 3.587-8.404-1.062-16.106-1.359-24.639-.157-4.54 2.138-8.504 2.314-13.447-1.228-2.025-4.978-2.275-7.573-2.136-.874 4.373-2.404 9.288-6.906 9.78-6.372.698-11.03-4.575-11.32-10.086-.342-6.48 4.977-17.22 12.518-16.474 2.912.288 3.628 3.207 6.801 3.177 1.72-3.431-2.653-4.51-3.103-6.964-.117-.634.363-3.112.642-4.274 1.37-5.658 4.423-12.982 7.428-17.29 3.814-5.464 11.307-6.287 19.368-6.823 1.44 3.102 6.744 2.847 10.2 2.035-4.142 1.64-7.992 5.618-11.184 9.138-3.665 4.038-7.378 8.37-7.566 13.65 6.927-9.61 12.65-18.003 25.246-22.23 9.531-3.197 20.662 1.465 27.986 6.607 3.039 2.138 4.853 5.53 7.013 8.634 8.082 11.625 11.853 28.22 11.024 44.303-.341 6.633-.326 13.243-2.552 17.706-2.326 4.666-10.193 8.84-14.799 4.62-.853 4.538 3.83 7.344 9.33 5.711-3.922 5.062-8.038 11.145-13.613 14.29zm18.084-149.663c7.585 3.77 21.757 10.15 26.512-.014 1.755-3.746 3.814-10.079 4.723-13.946 1.284-5.456-1.392-16.923-7-18.754-4.953-1.617-10.733-1.518-16.699-.32-.702.585-1.484 1.603-2.031 2.665-4.26.165-8.25-.229-11.615-1.98.32-3.15-1.812-3.656-3.81-4.305-1.48-5.872 2.963-13.54 1.9-18.895-.759-3.815-5.452-4.405-8.902-5.119-.113-2.12.15-3.89.386-5.683-.788-2.906-4.326-4.56-7.678-4.966-11.03-1.326-27.776-1.922-38.384 1.893-2.96 7.261-5.292 16.093-7.758 24.384-10.347-1.105-18.715 4.464-26.604 8.113-2.73 1.266-6.51 1.964-7.53 4.138-.989 2.105-.584 6.14-.83 9.95-.624 9.733-1.16 19.12-3.73 29.086C14.076-7.065 12.064-3.12 10.66 1.19 9.363 5.183 7.097 10.119 6.506 14.1c-.876 5.902 4.681 6.23 8.235 8.788 5.494 3.956 9.807 6.143 15.756 9.713 1.763 1.057 7.077 3.733 7.682 4.965 1.201 2.443-2.063 5.888-2.936 7.804-1.38 3.028-2.1 5.601-2.298 8.59-4.991.788-8.775 3.758-11.06 7.108-3.781 5.543-6.403 15.798-3.132 23.599.257.614 1.536 1.822 1.725 2.766.372 1.858-.7 4.328-.767 6.305-.344 10.139 1.715 18.875 8.54 21.932 2.771 11.039 12.689 14.709 22.033 20.195 3.492 2.05 7.343 3.36 11.319 4.823 14.264 5.25 36.15 4.261 47.988-4.692 5.02-3.797 13.044-11.813 15.914-17.617 7.58-15.323 7.042-40.931 1.74-59.57-.713-2.503-1.747-6.182-3.19-9.188-1.007-2.099-4.135-6.299-3.755-8.152.391-1.916 7.132-7.035 8.578-8.428 2.602-2.511 7.547-5.844 7.948-9.012.43-3.372-1.486-7.985-2.457-11.238-3.245-10.859-6.412-20.895-10.091-30.576" fill="#231f20" fill-rule="evenodd"/><path d="M73.674 57.38c.411.548 2.674 1.38 5.84-.145 0 0-3.752-.625-3.44-6.88l-1.564.313s-1.615 5.672-.836 6.712" fill="#f7e4cd" fill-rule="evenodd"/><path d="M101.086 3.617a1.72 1.72 0 1 0-3.44.001 1.72 1.72 0 0 0 3.44-.001m1.719-7.972a1.72 1.72 0 1 0-3.44 0 1.72 1.72 0 0 0 3.44 0" fill="#1d1919" fill-rule="evenodd"/><rect width="70.412" height="4.12" x="16.854" y="177.378" transform="matrix(.8 0 0 -.8 0 144)" rx=".983" ry=".983"/><rect width="50.037" height="3.296" x="78.502" y="-2.097" rx=".786" ry=".786" transform="scale(1 -1)"/><rect width="54.831" height="3.296" x="13.483" y="-3.697" rx=".786" ry=".786" transform="scale(1 -1)"/><rect width="45.243" height="3.296" x="83.296" y="-3.697" rx=".786" ry=".786" transform="scale(1 -1)"/></g></symbol><symbol id="icon-js" viewBox="0 0 128 128"><path fill="#83CD29" d="M112.771 30.334L68.674 4.729c-2.781-1.584-6.402-1.584-9.205 0L14.901 30.334C12.031 31.985 10 35.088 10 38.407v51.142c0 3.319 2.084 6.423 4.954 8.083l11.775 6.688c5.628 2.772 7.617 2.772 10.178 2.772 8.333 0 13.093-5.039 13.093-13.828v-50.49c0-.713-.371-1.774-1.071-1.774h-5.623C42.594 41 41 42.061 41 42.773v50.49c0 3.896-3.524 7.773-10.11 4.48L18.723 90.73c-.424-.23-.723-.693-.723-1.181V38.407c0-.482.555-.966.982-1.213l44.424-25.561c.415-.235 1.025-.235 1.439 0l43.882 25.555c.42.253.272.722.272 1.219v51.142c0 .488.183.963-.232 1.198l-44.086 25.576c-.378.227-.847.227-1.261 0l-11.307-6.749c-.341-.198-.746-.269-1.073-.086-3.146 1.783-3.726 2.02-6.677 3.043-.726.253-1.797.692.41 1.929l14.798 8.754a9.294 9.294 0 0 0 4.647 1.246c1.642 0 3.25-.426 4.667-1.246l43.885-25.582c2.87-1.672 4.23-4.764 4.23-8.083V38.407c0-3.319-1.36-6.414-4.229-8.073zM77.91 81.445c-11.726 0-14.309-3.235-15.17-9.066-.1-.628-.633-1.379-1.272-1.379h-5.731c-.709 0-1.279.86-1.279 1.566 0 7.466 4.059 16.512 23.453 16.512 14.039 0 22.088-5.455 22.088-15.109 0-9.572-6.467-12.084-20.082-13.886-13.762-1.819-15.16-2.738-15.16-5.962 0-2.658 1.184-6.203 11.374-6.203 9.105 0 12.461 1.954 13.842 8.091.118.577.645.991 1.24.991h5.754c.354 0 .692-.143.94-.396.24-.272.367-.613.335-.979-.891-10.568-7.912-15.493-22.112-15.493-12.631 0-20.166 5.334-20.166 14.275 0 9.698 7.497 12.378 19.622 13.577 14.505 1.422 15.633 3.542 15.633 6.395 0 4.955-3.978 7.066-13.309 7.066z"/></symbol><symbol id="icon-nginx" viewBox="0 0 128 128"><path fill="#090" d="M24.5 50.5c-1.5 0-2.5 1.2-2.5 2.7v14.1l-15.9-16c-.8-.8-2.2-1-3.2-.6S1 52.1 1 53.2v20.7c0 1.5 1.5 2.7 3 2.7s3-1.2 3-2.7V59.8l16.1 16c.5.5 1.2.8 1.9.8.3 0 .4-.1.7-.2 1-.4 1.3-1.4 1.3-2.5V53.3c0-1.5-1-2.8-2.5-2.8zm19.7 11.8c-1.4 0-2.7 1.4-2.7 2.8s1.3 2.8 2.7 2.8l6.6.4-1.5 3.7h-8.5l-4.2-7.9 4.3-8.1H50l2.1 4h5.5L54 52.1l-.8-1.1H37.6l-.7 1.2L31 62.5l-.7 1.3.7 1.3 5.8 10.3.8 1.6h15.1l.7-1.7 4.3-9 1.9-4.3h-4.4l-11 .3zM65 50.5c-1.4 0-3 1.3-3 2.7V60h6v-6.7c0-1.5-1.6-2.8-3-2.8zm30.4.3c-1-.4-2.4-.2-3.1.6L76 67.4V53.3c0-1.5-1-2.7-2.5-2.7S71 51.8 71 53.3V74c0 1.1.7 2.1 1.7 2.5.3.1.7.2 1 .2.7 0 1.6-.3 2.1-.8l16.2-16V74c0 1.5 1 2.7 2.5 2.7S97 75.5 97 74V53.3c0-1.1-.6-2.1-1.6-2.5zm21.8 12.8l8.4-8.4c1.1-1.1 1.1-2.8 0-3.8-1.1-1.1-2.8-1.1-3.8 0l-8.4 8.4-8.4-8.4c-1.1-1.1-2.8-1.1-3.8 0-1.1 1.1-1.1 2.8 0 3.8l8.4 8.4-8.4 8.4c-1.1 1.1-1.1 2.8 0 3.8.5.5 1.2.8 1.9.8s1.4-.3 1.9-.8l8.4-8.4 8.4 8.4c.5.5 1.2.8 1.9.8s1.4-.3 1.9-.8c1.1-1.1 1.1-2.8 0-3.8l-8.4-8.4zM62 73.9c0 1.4 1.5 2.7 3 2.7 1.4 0 3-1.3 3-2.7V62h-6v11.9z"/></symbol><symbol id="icon-php" viewBox="0 0 128 128"><path fill="#6181B6" d="M64 33.039C30.26 33.039 2.906 46.901 2.906 64S30.26 94.961 64 94.961 125.094 81.099 125.094 64 97.74 33.039 64 33.039zM48.103 70.032c-1.458 1.364-3.077 1.927-4.86 2.507-1.783.581-4.052.461-6.811.461h-6.253l-1.733 10h-7.301l6.515-34H41.7c4.224 0 7.305 1.215 9.242 3.432 1.937 2.217 2.519 5.364 1.747 9.337-.319 1.637-.856 3.159-1.614 4.515a15.118 15.118 0 0 1-2.972 3.748zM69.414 73l2.881-14.42c.328-1.688.208-2.942-.361-3.555-.57-.614-1.782-1.025-3.635-1.025h-5.79l-3.731 19h-7.244l6.515-33h7.244l-1.732 9h6.453c4.061 0 6.861.815 8.402 2.231s2.003 3.356 1.387 6.528L76.772 73h-7.358zm40.259-11.178c-.318 1.637-.856 3.133-1.613 4.488-.758 1.357-1.748 2.598-2.971 3.722-1.458 1.364-3.078 1.927-4.86 2.507-1.782.581-4.053.461-6.812.461h-6.253l-1.732 10h-7.301l6.514-34h14.041c4.224 0 7.305 1.215 9.241 3.432 1.935 2.217 2.518 5.418 1.746 9.39zM95.919 54h-5.001l-2.727 14h4.442c2.942 0 5.136-.29 6.576-1.4 1.442-1.108 2.413-2.828 2.918-5.421.484-2.491.264-4.434-.66-5.458-.925-1.024-2.774-1.721-5.548-1.721zm-56.985 0h-5.002l-2.727 14h4.441c2.943 0 5.136-.29 6.577-1.4 1.441-1.108 2.413-2.828 2.917-5.421.484-2.491.264-4.434-.66-5.458S41.708 54 38.934 54z"/></symbol><symbol id="icon-postgresql" viewBox="0 0 128 128"><path fill-rule="evenodd" clip-rule="evenodd" fill="#336791" d="M123.258 76.784c-.45-2.918-2.901-4.829-5.752-4.958-1.032-.047-2.08.061-3.109.192-1.243.158-2.471.438-3.711.623-.857.128-1.726.187-2.582.275l-.021-.111c1.598-3.018 3.263-6.003 4.775-9.064 1.159-2.348 2.151-4.781 3.176-7.194 1.696-3.998 3.051-8.12 4.173-12.309 1.075-4.011 1.995-8.066 2.284-12.227.116-1.662.196-3.331.187-4.995-.008-1.327-.151-2.656-.284-3.979-.15-1.516-.608-2.953-1.242-4.336-.836-1.822-2.132-3.317-3.496-4.737-1.092-1.137-2.293-2.173-3.484-3.208-1.698-1.477-3.607-2.656-5.59-3.703a32.18 32.18 0 0 0-7.09-2.75c-1.493-.381-3.02-.664-4.532-.966-.544-.11-1.089-.337-1.633-.337H85.086c-.37 0-.737.191-1.11.233-2.452.273-4.875.735-7.228 1.464-.88.273-1.684.101-2.52.024-.641-.059-1.271-.231-1.912-.263-2.442-.122-4.887-.301-7.328-.275-2.339.024-4.654.409-6.918 1.052-1.895.538-3.749 1.195-5.447 2.191-.727.426-1.303.346-2.055.129-2.527-.729-5.072-1.414-7.639-1.989-1.6-.358-3.245-.536-4.879-.707a57.214 57.214 0 0 0-4.718-.294c-1.538-.033-3.087-.032-4.618.104a30.16 30.16 0 0 0-7.158 1.513 23.813 23.813 0 0 0-7.086 3.865c-2.167 1.715-3.905 3.809-5.303 6.2-1.473 2.523-2.483 5.224-3.111 8.061-.34 1.537-.555 3.117-.788 4.678-.073.486.732.972-.268 1.456v6.794c1 .452.208.903.266 1.356.139 1.089.262 2.187.446 3.268.291 1.711.636 3.417.988 5.117a324.86 324.86 0 0 0 1.546 7.111c.396 1.72.847 3.43 1.319 5.131.721 2.598 1.431 5.201 2.246 7.77.757 2.387 1.624 4.74 2.484 7.093 1.191 3.255 2.617 6.405 4.327 9.424 1.479 2.614 3.169 5.062 5.436 7.076 1.494 1.327 3.157 2.347 5.093 2.857 1.521.4 3.067.448 4.624.129a10.979 10.979 0 0 0 4.824-2.311c.163-.134.342-.236.535.01.735.931 1.719 1.552 2.748 2.089 2.777 1.448 5.803 1.882 8.877 2.059.744.043 1.496-.064 2.246-.085 1.461-.04 2.881-.325 4.278-.729.732-.212 1.447-.481 2.192-.732.039.793.089 1.557.112 2.321l.104 4.166c.019.634.044 1.27.103 1.901.151 1.627.299 3.255.493 4.877.135 1.118.275 2.245.538 3.336a38.176 38.176 0 0 0 2.158 6.428 13.81 13.81 0 0 0 3.9 5.185c2.22 1.836 4.822 2.619 7.632 2.764 1.162.061 2.357.004 3.501-.204a49.01 49.01 0 0 0 5.387-1.275c3.591-1.084 6.695-2.956 9.014-5.981 1.32-1.724 2.404-3.589 3.1-5.648.574-1.701 1.115-3.419 1.545-5.16.34-1.372.508-2.787.715-4.188.137-.927.219-1.863.305-2.797.14-1.517.283-3.033.384-4.553.07-1.058.067-2.121.109-3.181.013-.323.065-.644.095-.966.028-.298.178-.401.482-.396 1.071.016 2.144.044 3.212-.004 1.197-.054 2.405-.105 3.583-.303a56.542 56.542 0 0 0 4.99-1.067c1.943-.508 3.725-1.418 5.44-2.455 1.998-1.207 3.819-2.623 5.297-4.447 1.285-1.591 1.894-3.43 1.584-5.438zm-3.412.982c-.066.915-.485 1.699-1.093 2.369-2.869 3.163-6.468 5.082-10.585 6.027-1.564.358-3.178.544-4.779.692a32.093 32.093 0 0 1-4.114.097c-1.006-.038-2.004-.268-3.032-.416-.103.94-.201 1.919-.32 2.896l-.479 3.745c-.145 1.187-.258 2.378-.407 3.564-.146 1.151-.328 2.298-.481 3.449-.143 1.072-.248 2.149-.407 3.219-.245 1.64-.479 3.284-.799 4.911-.384 1.945-.973 3.829-1.934 5.583-1.172 2.141-2.834 3.772-4.949 4.98-2.18 1.246-4.563 1.894-6.979 2.436-1.71.384-3.472.447-5.204.291-3.004-.272-5.568-1.557-7.506-3.886-1.85-2.223-3.102-4.771-3.55-7.655a63.102 63.102 0 0 1-.491-4.136 108.067 108.067 0 0 1-.299-4.62 250.203 250.203 0 0 1-.197-5.871c-.053-2.406-.07-4.812-.104-7.218l-.006-.092c-1.224.734-2.427 1.538-3.703 2.2a12.392 12.392 0 0 1-4.798 1.353c-1.318.1-2.653.191-3.965.086-2.151-.173-4.3-.51-6.226-1.569-.781-.43-1.596-.953-2.134-1.64-1.29-1.646-.672-3.726 1.273-4.727 1.344-.693 2.811-.982 4.268-1.319a44.368 44.368 0 0 0 3.761-1.029c1.222-.4 1.993-1.391 2.754-2.363l1.206-1.551c-.503-.053-.977-.107-1.451-.151-1.439-.136-2.812-.532-4.125-1.114-1.124-.497-1.141-.551-1.965.343-1.376 1.494-2.714 3.023-4.062 4.542-.992 1.117-1.978 2.241-2.965 3.361-.978 1.108-1.894 2.279-2.947 3.31-1.564 1.531-3.449 2.452-5.698 2.348-1.443-.066-2.764-.572-3.952-1.399-2.452-1.708-4.104-4.097-5.608-6.606-1.927-3.215-3.406-6.64-4.672-10.159-.876-2.432-1.756-4.866-2.521-7.333-.831-2.681-1.56-5.396-2.277-8.11a157.373 157.373 0 0 1-1.482-6.182 216.117 216.117 0 0 1-1.464-7.079c-.298-1.599-.471-3.221-.712-4.831-.325-2.17-.385-4.36-.267-6.539.105-1.963.387-3.921.667-5.871.388-2.698 1.277-5.244 2.556-7.648.783-1.473 1.755-2.812 2.879-4.056 1.845-2.042 4.078-3.518 6.562-4.626 1.736-.774 3.57-1.24 5.439-1.604 2.774-.54 5.573-.519 8.373-.461 1.224.025 2.443.248 3.666.369 2.633.262 5.214.816 7.762 1.5 1.857.498 3.676 1.143 5.518 1.703.185.056.456.051.607-.048 2.496-1.629 5.224-2.704 8.125-3.319 1.101-.233 2.237-.335 3.363-.407 1.369-.087 2.749-.167 4.115-.088 1.642.094 3.276.336 4.908.56.792.108 1.565.383 2.359.458.38.036.783-.242 1.185-.335 2.049-.473 4.089-1 6.156-1.374 1.539-.278 3.111-.409 4.676-.499 1.745-.1 3.503-.173 5.247-.089a36.66 36.66 0 0 1 6.555.923c2.677.623 5.245 1.528 7.686 2.784 1.824.938 3.558 2.026 5.119 3.364 1.023.878 2.07 1.745 2.994 2.723 1.14 1.206 2.303 2.413 3.018 3.958.538 1.165.922 2.371 1.028 3.647.132 1.586.292 3.178.277 4.766-.014 1.519-.221 3.037-.368 4.552-.334 3.454-1.085 6.833-1.997 10.167a116.972 116.972 0 0 1-2.589 8.17c-.879 2.481-1.893 4.917-2.918 7.343a80.07 80.07 0 0 1-2.458 5.303c-1.677 3.286-3.421 6.538-5.438 9.633-.348.535-.678 1.083-1.018 1.629.88.594 1.877.803 2.881.911.955.104 1.929.166 2.883.095 1.527-.113 3.049-.331 4.567-.544 1.504-.21 2.978-.638 4.522-.525 1.542.112 2.645 1.284 2.54 2.729zm-22.013-3.353c-.655-.846-1.323-1.682-1.964-2.538-1.006-1.344-1.729-2.845-2.455-4.353-.688-1.429-1.532-2.782-2.257-4.195-1.265-2.465-2.553-4.922-3.718-7.435-1.465-3.157-2.62-6.426-2.984-9.923-.154-1.48-.193-2.958.106-4.424.479-2.341 1.702-4.172 3.758-5.428 1.907-1.165 4.032-1.541 6.209-1.659 1.351-.073 2.708-.013 4.11-.013l-.047-.237c-.872-1.823-1.687-3.677-2.641-5.457-1.346-2.512-3.068-4.777-4.986-6.877-1.421-1.555-2.96-2.998-4.646-4.273-1.658-1.255-3.405-2.376-5.269-3.293-2.223-1.093-4.538-1.938-6.967-2.477-2.334-.518-4.683-.835-7.077-.861-2.042-.022-4.071.07-6.06.531-3.002.695-5.748 1.931-8.137 3.933a21.143 21.143 0 0 0-3.517 3.77c-1.196 1.643-2.161 3.417-2.986 5.277-1.132 2.552-1.909 5.208-2.44 7.938-.266 1.361-.474 2.734-.686 4.106-.074.48-.08.971-.123 1.521.369-.192.635-.34.907-.472l.885-.397c2.993-1.369 6.094-2.25 9.427-2.149 1.416.043 2.771.323 4.03.943 2.415 1.191 3.828 3.216 4.442 5.779.424 1.769.714 3.573.996 5.372.221 1.405.447 2.825.473 4.242.037 2.071-.068 4.146-.181 6.216a17.386 17.386 0 0 1-1.08 5.146c-1.12 2.993-2.368 5.937-3.534 8.913-.385.983-.681 2.001-1.045 3.082.562 0 1.018-.004 1.474.002.178.003.36.008.532.049 1.34.316 2.502.923 3.455 1.954 1.271 1.372 1.938 2.973 1.972 4.826.019 1.027-.089 2.057-.084 3.084.021 4.786.057 9.572.097 14.357.007.782.046 1.565.102 2.346.117 1.635.235 3.271.395 4.902.112 1.157.268 2.312.451 3.461.259 1.628 1 3.077 1.841 4.462.724 1.191 1.665 2.203 2.905 2.901 2.107 1.186 4.376 1.285 6.663.848 1.545-.295 3.062-.769 4.562-1.258a10.128 10.128 0 0 0 3.937-2.354c1.051-1.019 1.797-2.261 2.3-3.632.976-2.659 1.28-5.459 1.684-8.237.151-1.04.282-2.083.42-3.125.157-1.186.316-2.371.468-3.556.112-.883.214-1.768.322-2.651.154-1.268.317-2.535.464-3.804.113-.981.209-1.966.309-2.949.129-1.256.268-2.512.379-3.77.086-.955.051-1.927.22-2.864.311-1.718 1.123-3.18 2.646-4.125.637-.395 1.356-.655 2.063-.989l-.12-.186zm-57.597-7.052a17.526 17.526 0 0 1-1.354-5.622c-.128-1.825.089-3.643.276-5.46.182-1.76.333-3.528.386-5.296.088-2.906-.108-5.808-.247-8.712-.084-1.729.117-3.479.271-5.212.139-1.561.312-3.126.607-4.664.495-2.581 1.152-5.125 2.086-7.591.887-2.338 1.906-4.615 3.345-6.665.986-1.406 2.105-2.72 3.18-4.094l-.319-.113c-3.498-1.111-7.053-1.979-10.709-2.358-1.729-.179-3.464-.284-5.198-.387-.532-.032-1.072.04-1.606.091-1.322.126-2.66.176-3.961.424-2.214.421-4.338 1.129-6.305 2.282-1.766 1.035-3.249 2.373-4.491 3.978-1.372 1.772-2.295 3.776-2.958 5.913-.783 2.521-1.156 5.115-1.257 7.733-.088 2.295-.132 4.603.264 6.889.295 1.702.492 3.422.817 5.117.443 2.311.918 4.617 1.467 6.904.785 3.274 1.569 6.553 2.499 9.787.89 3.099 1.894 6.17 2.982 9.204.89 2.476 1.919 4.906 3.003 7.304.706 1.562 1.561 3.065 2.457 4.528.953 1.553 2.037 3.027 3.508 4.154 1.856 1.423 3.293 1.644 5.179.083.808-.669 1.491-1.495 2.194-2.282 1.117-1.25 2.195-2.534 3.307-3.788 1.416-1.598 2.85-3.179 4.273-4.769.301-.336.59-.682.883-1.022l-.484-.425a17.695 17.695 0 0 1-4.095-5.931zm53.688-47.569a61.488 61.488 0 0 1 3.309 4.204c2 2.809 3.598 5.842 4.775 9.087.521 1.43.937 2.874.751 4.439-.129 1.096-.118 2.208-.215 3.31-.081.917-.226 1.829-.345 2.743-.178 1.378-.436 2.752-.513 4.136-.073 1.317.003 2.648.086 3.968.084 1.341.265 2.676.388 4.015.139 1.518.326 3.036.369 4.557.035 1.249-.076 2.506-.185 3.753-.13 1.502-.511 2.956-1.079 4.351-.399.982-.876 1.934-1.327 2.917l.181.192.275.213.277-.496a93.621 93.621 0 0 0 6.222-11.493 186.333 186.333 0 0 0 3.287-7.766c1.624-4.064 2.909-8.242 3.903-12.503.446-1.913.787-3.855 1.09-5.797.236-1.518.433-3.054.477-4.586.047-1.625-.043-3.263-.193-4.884-.112-1.224-.414-2.456-1.181-3.451-1.233-1.602-2.564-3.134-4.201-4.346-1.378-1.021-2.751-2.068-4.23-2.927-2.345-1.36-4.883-2.266-7.535-2.883-2.588-.603-5.21-.863-7.849-.918-1.556-.033-3.119.134-4.672.28-1.407.132-2.805.357-4.222.543 1.52.855 3.019 1.615 4.433 2.511 2.973 1.883 5.637 4.149 7.924 6.831zM55.299 72.514c.961-3.073 2.27-6.007 3.538-8.959 1.028-2.394 1.59-4.916 1.777-7.506.093-1.277.067-2.57.004-3.851a44.628 44.628 0 0 0-.392-4.259c-.266-1.801-.569-3.603-.995-5.371-.462-1.913-1.627-3.245-3.623-3.736-1.216-.299-2.424-.287-3.653-.093-3.002.473-5.75 1.579-8.31 3.199-.515.326-.798.589-.709 1.328.188 1.565.229 3.155.222 4.735-.01 2.236-.105 4.472-.19 6.707-.028.728-.133 1.452-.211 2.177-.12 1.11-.351 2.219-.344 3.327.007 1.142.124 2.311.401 3.417.88 3.507 2.744 6.377 5.799 8.402 1.879 1.245 3.958 1.873 6.24 1.992.155-.524.293-1.019.446-1.509zm-3.586-30.087c-.402-.844-.172-1.543.76-1.867.227-.08.461-.165.697-.188.324-.032.654-.008.982-.008 1.182.006 2.319.171 3.295.923.626.482.794 1.122.389 1.779-.575.932-1.452 1.4-2.529 1.49-1.697.141-2.888-.65-3.594-2.129zm47.04-.308c.136-1.124.245-2.251.384-3.375.056-.452-.182-.574-.561-.585-1.192-.033-2.384-.075-3.576-.097-1.344-.024-2.652.192-3.896.703-1.38.568-2.431 1.478-2.86 2.98a9.042 9.042 0 0 0-.293 3.41 20.11 20.11 0 0 0 1.193 5.176c.834 2.221 1.707 4.441 2.75 6.569 1.413 2.881 3.012 5.67 4.513 8.507.401.757.738 1.547 1.156 2.431a13.783 13.783 0 0 0 1.351-5.622c.041-1.61-.088-3.227-.182-4.838-.059-.986-.198-1.966-.294-2.95-.134-1.371-.337-2.741-.368-4.115-.031-1.397.068-2.802.188-4.197.113-1.338.334-2.665.495-3.997zm-2.689-1.082c-.443 1.223-1.39 1.913-2.618 2.116-1.145.188-2.148-.235-2.894-1.148-.531-.65-.328-1.42.468-1.859.914-.506 1.919-.634 3.104-.711.322.059.807.108 1.268.24.669.189.916.692.672 1.362zm-35.422 37.66c-.655-.535-1.521-.566-2.144.021-.773.73-1.453 1.565-2.133 2.388-.785.951-1.521 1.94-2.534 2.677-1.474 1.071-3.192 1.515-4.919 1.935-1.373.334-2.752.644-4.129.965l-.017.178c.409.189.805.425 1.231.56 2.1.665 4.236.996 6.455.808 1.602-.136 3.128-.485 4.574-1.171 1.99-.943 3.521-2.437 4.823-4.175.218-.29.317-.719.343-1.093.089-1.321-.582-2.303-1.55-3.093zm51.751.526c-1.69.181-3.382.373-5.077.47-.818.047-1.648-.109-2.474-.176-1.385-.112-2.737-.42-3.908-1.16-.678-.427-1.241-.475-1.961-.233-1.028.346-1.867.872-2.115 1.986-.169.753-.23 1.533-.298 2.304-.013.136.157.386.287.42.793.209 1.59.456 2.401.529.996.09 2.01.061 3.013.011 1.083-.054 2.173-.124 3.24-.304 2.515-.422 4.948-1.11 7.109-2.536.779-.515 1.551-1.041 2.325-1.562l-.064-.11c-.826.123-1.648.273-2.478.361z"/></symbol><symbol id="icon-react" viewBox="0 0 128 128"><path fill="#61DAFB" d="M107.3 45.2c-2.2-.8-4.5-1.6-6.9-2.3.6-2.4 1.1-4.8 1.5-7.1 2.1-13.2-.2-22.5-6.6-26.1-1.9-1.1-4-1.6-6.4-1.6-7 0-15.9 5.2-24.9 13.9-9-8.7-17.9-13.9-24.9-13.9-2.4 0-4.5.5-6.4 1.6-6.4 3.7-8.7 13-6.6 26.1.4 2.3.9 4.7 1.5 7.1-2.4.7-4.7 1.4-6.9 2.3C8.2 50 1.4 56.6 1.4 64s6.9 14 19.3 18.8c2.2.8 4.5 1.6 6.9 2.3-.6 2.4-1.1 4.8-1.5 7.1-2.1 13.2.2 22.5 6.6 26.1 1.9 1.1 4 1.6 6.4 1.6 7.1 0 16-5.2 24.9-13.9 9 8.7 17.9 13.9 24.9 13.9 2.4 0 4.5-.5 6.4-1.6 6.4-3.7 8.7-13 6.6-26.1-.4-2.3-.9-4.7-1.5-7.1 2.4-.7 4.7-1.4 6.9-2.3 12.5-4.8 19.3-11.4 19.3-18.8s-6.8-14-19.3-18.8zM92.5 14.7c4.1 2.4 5.5 9.8 3.8 20.3-.3 2.1-.8 4.3-1.4 6.6-5.2-1.2-10.7-2-16.5-2.5-3.4-4.8-6.9-9.1-10.4-13 7.4-7.3 14.9-12.3 21-12.3 1.3 0 2.5.3 3.5.9zM81.3 74c-1.8 3.2-3.9 6.4-6.1 9.6-3.7.3-7.4.4-11.2.4-3.9 0-7.6-.1-11.2-.4-2.2-3.2-4.2-6.4-6-9.6-1.9-3.3-3.7-6.7-5.3-10 1.6-3.3 3.4-6.7 5.3-10 1.8-3.2 3.9-6.4 6.1-9.6 3.7-.3 7.4-.4 11.2-.4 3.9 0 7.6.1 11.2.4 2.2 3.2 4.2 6.4 6 9.6 1.9 3.3 3.7 6.7 5.3 10-1.7 3.3-3.4 6.6-5.3 10zm8.3-3.3c1.5 3.5 2.7 6.9 3.8 10.3-3.4.8-7 1.4-10.8 1.9 1.2-1.9 2.5-3.9 3.6-6 1.2-2.1 2.3-4.2 3.4-6.2zM64 97.8c-2.4-2.6-4.7-5.4-6.9-8.3 2.3.1 4.6.2 6.9.2 2.3 0 4.6-.1 6.9-.2-2.2 2.9-4.5 5.7-6.9 8.3zm-18.6-15c-3.8-.5-7.4-1.1-10.8-1.9 1.1-3.3 2.3-6.8 3.8-10.3 1.1 2 2.2 4.1 3.4 6.1 1.2 2.2 2.4 4.1 3.6 6.1zm-7-25.5c-1.5-3.5-2.7-6.9-3.8-10.3 3.4-.8 7-1.4 10.8-1.9-1.2 1.9-2.5 3.9-3.6 6-1.2 2.1-2.3 4.2-3.4 6.2zM64 30.2c2.4 2.6 4.7 5.4 6.9 8.3-2.3-.1-4.6-.2-6.9-.2-2.3 0-4.6.1-6.9.2 2.2-2.9 4.5-5.7 6.9-8.3zm22.2 21l-3.6-6c3.8.5 7.4 1.1 10.8 1.9-1.1 3.3-2.3 6.8-3.8 10.3-1.1-2.1-2.2-4.2-3.4-6.2zM31.7 35c-1.7-10.5-.3-17.9 3.8-20.3 1-.6 2.2-.9 3.5-.9 6 0 13.5 4.9 21 12.3-3.5 3.8-7 8.2-10.4 13-5.8.5-11.3 1.4-16.5 2.5-.6-2.3-1-4.5-1.4-6.6zM7 64c0-4.7 5.7-9.7 15.7-13.4 2-.8 4.2-1.5 6.4-2.1 1.6 5 3.6 10.3 6 15.6-2.4 5.3-4.5 10.5-6 15.5C15.3 75.6 7 69.6 7 64zm28.5 49.3c-4.1-2.4-5.5-9.8-3.8-20.3.3-2.1.8-4.3 1.4-6.6 5.2 1.2 10.7 2 16.5 2.5 3.4 4.8 6.9 9.1 10.4 13-7.4 7.3-14.9 12.3-21 12.3-1.3 0-2.5-.3-3.5-.9zM96.3 93c1.7 10.5.3 17.9-3.8 20.3-1 .6-2.2.9-3.5.9-6 0-13.5-4.9-21-12.3 3.5-3.8 7-8.2 10.4-13 5.8-.5 11.3-1.4 16.5-2.5.6 2.3 1 4.5 1.4 6.6zm9-15.6c-2 .8-4.2 1.5-6.4 2.1-1.6-5-3.6-10.3-6-15.6 2.4-5.3 4.5-10.5 6-15.5 13.8 4 22.1 10 22.1 15.6 0 4.7-5.8 9.7-15.7 13.4z"/></symbol><symbol id="icon-ruby" viewBox="0 0 128 128"><path fill-rule="evenodd" clip-rule="evenodd" fill="#D91404" d="M35.971 111.33l81.958 11.188c-9.374-15.606-18.507-30.813-27.713-46.144L35.971 111.33zm89.71-86.383c-2.421 3.636-4.847 7.269-7.265 10.907a67619.72 67619.72 0 0 0-24.903 37.485c-.462.696-1.061 1.248-.41 2.321 8.016 13.237 15.969 26.513 23.942 39.777 1.258 2.095 2.53 4.182 4.157 6.192l4.834-96.58-.355-.102zM16.252 66.22c.375.355 1.311.562 1.747.347 7.689-3.779 15.427-7.474 22.948-11.564 2.453-1.333 4.339-3.723 6.452-5.661 6.997-6.417 13.983-12.847 20.966-19.278.427-.395.933-.777 1.188-1.275 2.508-4.902 4.973-9.829 7.525-14.898-3.043-1.144-5.928-2.263-8.849-3.281-.396-.138-1.02.136-1.449.375-6.761 3.777-13.649 7.353-20.195 11.472-3.275 2.061-5.943 5.098-8.843 7.743-4.674 4.266-9.342 8.542-13.948 12.882a24.011 24.011 0 0 0-3.288 3.854c-3.15 4.587-6.206 9.24-9.402 14.025 1.786 1.847 3.41 3.613 5.148 5.259zm28.102-6.271l-11.556 48.823 54.3-34.987-42.744-13.836zm76.631-34.846l-46.15 7.71 15.662 38.096c10.221-15.359 20.24-30.41 30.488-45.806zM44.996 56.644l41.892 13.6c-5.25-12.79-10.32-25.133-15.495-37.737L44.996 56.644zM16.831 75.643L2.169 110.691l27.925-.825-13.263-34.223zm13.593 26.096l.346-.076c3.353-13.941 6.754-27.786 10.177-42.272L18.544 71.035c3.819 9.926 7.891 20.397 11.88 30.704zm84.927-78.897c-4.459-1.181-8.918-2.366-13.379-3.539-6.412-1.686-12.829-3.351-19.237-5.052-.801-.213-1.38-.352-1.851.613-2.265 4.64-4.6 9.245-6.901 13.868-.071.143-.056.328-.111.687l41.47-6.285.009-.292zM89.482 12.288l36.343 10.054-6.005-17.11-30.285 6.715-.053.341zM33.505 114.007c-4.501-.519-9.122-.042-13.687.037-3.75.063-7.5.206-11.25.323-.386.012-.771.09-1.156.506 31.003 2.866 62.005 5.732 93.007 8.6l.063-.414-29.815-4.07c-12.384-1.691-24.747-3.551-37.162-4.982zM2.782 99.994c3.995-9.27 7.973-18.546 11.984-27.809.401-.929.37-1.56-.415-2.308-1.678-1.597-3.237-3.318-5.071-5.226-2.479 12.24-4.897 24.177-7.317 36.113l.271.127c.185-.297.411-.578.548-.897zm78.74-90.153c6.737-1.738 13.572-3.097 20.367-4.613.44-.099.87-.244 1.303-.368l-.067-.332-29.194 3.928c2.741 1.197 4.853 2.091 7.591 1.385z"/></symbol><symbol id="icon-sass" viewBox="0 0 128 128"><path fill-rule="evenodd" clip-rule="evenodd" fill="#CB6699" d="M1.219 56.156c0 .703.207 1.167.323 1.618.756 2.933 2.381 5.45 4.309 7.746 2.746 3.272 6.109 5.906 9.554 8.383 2.988 2.148 6.037 4.248 9.037 6.38.515.366 1.002.787 1.561 1.236-.481.26-.881.489-1.297.7-3.959 2.008-7.768 4.259-11.279 6.986-2.116 1.644-4.162 3.391-5.607 5.674-2.325 3.672-3.148 7.584-1.415 11.761.506 1.22 1.278 2.274 2.367 3.053.353.252.749.502 1.162.6 1.058.249 2.136.412 3.207.609l3.033-.002c3.354-.299 6.407-1.448 9.166-3.352 4.312-2.976 7.217-6.966 8.466-12.087.908-3.722.945-7.448-.125-11.153a11.696 11.696 0 0 0-.354-1.014c-.13-.333-.283-.657-.463-1.072l6.876-3.954.103.088c-.125.409-.258.817-.371 1.23-.817 2.984-1.36 6.02-1.165 9.117.208 3.3 1.129 6.389 3.061 9.146 1.562 2.23 5.284 2.313 6.944.075.589-.795 1.16-1.626 1.589-2.513 1.121-2.315 2.159-4.671 3.23-7.011l.187-.428c-.077 1.108-.167 2.081-.208 3.055-.064 1.521.025 3.033.545 4.48.445 1.238 1.202 2.163 2.62 2.326.97.111 1.743-.333 2.456-.896a10.384 10.384 0 0 0 2.691-3.199c1.901-3.491 3.853-6.961 5.576-10.54 1.864-3.871 3.494-7.855 5.225-11.792l.286-.698c.409 1.607.694 3.181 1.219 4.671.61 1.729 1.365 3.417 2.187 5.058.389.775.344 1.278-.195 1.928-2.256 2.72-4.473 5.473-6.692 8.223-.491.607-.98 1.225-1.389 1.888a3.701 3.701 0 0 0-.48 1.364 1.737 1.737 0 0 0 1.383 1.971 9.661 9.661 0 0 0 2.708.193c3.097-.228 5.909-1.315 8.395-3.157 3.221-2.386 4.255-5.642 3.475-9.501-.211-1.047-.584-2.065-.947-3.074-.163-.455-.174-.774.123-1.198 2.575-3.677 4.775-7.578 6.821-11.569.081-.157.164-.314.306-.482.663 3.45 1.661 6.775 3.449 9.792-.912.879-1.815 1.676-2.632 2.554-1.799 1.934-3.359 4.034-4.173 6.595-.35 1.104-.619 2.226-.463 3.405.242 1.831 1.742 3.021 3.543 2.604 3.854-.892 7.181-2.708 9.612-5.925 1.636-2.166 1.785-4.582 1.1-7.113-.188-.688-.411-1.365-.651-2.154.951-.295 1.878-.649 2.837-.868 4.979-1.136 9.904-.938 14.702.86 2.801 1.05 5.064 2.807 6.406 5.571 1.639 3.379.733 6.585-2.452 8.721-.297.199-.637.356-.883.605a.869.869 0 0 0-.205.67c.021.123.346.277.533.275 1.047-.008 1.896-.557 2.711-1.121 2.042-1.413 3.532-3.314 3.853-5.817l.063-.188-.077-1.63c-.031-.094.023-.187.016-.258-.434-3.645-2.381-6.472-5.213-8.688-3.28-2.565-7.153-3.621-11.249-3.788a25.401 25.401 0 0 0-9.765 1.503c-.897.325-1.786.71-2.688 1.073-.121-.219-.251-.429-.358-.646-.926-1.896-2.048-3.708-2.296-5.882-.176-1.544-.392-3.086-.025-4.613.353-1.469.813-2.913 1.246-4.362.223-.746.066-1.164-.646-1.5a2.854 2.854 0 0 0-.786-.258c-1.75-.254-3.476-.109-5.171.384-.6.175-1.036.511-1.169 1.175-.076.381-.231.746-.339 1.122-.443 1.563-.757 3.156-1.473 4.645-1.794 3.735-3.842 7.329-5.938 10.897-.227.385-.466.763-.752 1.23-.736-1.54-1.521-2.922-1.759-4.542-.269-1.832-.481-3.661-.025-5.479.339-1.356.782-2.687 1.19-4.025.193-.636.104-.97-.472-1.305-.291-.169-.62-.319-.948-.368a11.643 11.643 0 0 0-5.354.438c-.543.176-.828.527-.994 1.087-.488 1.652-.904 3.344-1.589 4.915-2.774 6.36-5.628 12.687-8.479 19.013-.595 1.321-1.292 2.596-1.963 3.882-.17.326-.418.613-.63.919-.17-.201-.236-.339-.235-.477.005-.813-.092-1.65.063-2.436a172.189 172.189 0 0 1 1.578-7.099c.47-1.946 1.017-3.874 1.538-5.807.175-.647.178-1.252-.287-1.796-.781-.911-2.413-1.111-3.381-.409l-.428.242.083-.69c.204-1.479.245-2.953-.161-4.41-.506-1.816-1.802-2.861-3.686-2.803-.878.027-1.8.177-2.613.497-3.419 1.34-6.048 3.713-8.286 6.568a2.592 2.592 0 0 1-.757.654c-2.893 1.604-5.795 3.188-8.696 4.778l-3.229 1.769c-.866-.826-1.653-1.683-2.546-2.41-2.727-2.224-5.498-4.393-8.244-6.592-2.434-1.949-4.792-3.979-6.596-6.56-1.342-1.92-2.207-4.021-2.29-6.395-.105-3.025.753-5.789 2.293-8.362 1.97-3.292 4.657-5.934 7.611-8.327 3.125-2.53 6.505-4.678 10.008-6.639 4.901-2.743 9.942-5.171 15.347-6.774 5.542-1.644 11.165-2.585 16.965-1.929 2.28.258 4.494.78 6.527 1.895 1.557.853 2.834 1.97 3.428 3.716.586 1.718.568 3.459.162 5.204-.825 3.534-2.76 6.447-5.195 9.05-3.994 4.267-8.866 7.172-14.351 9.091a39.478 39.478 0 0 1-9.765 2.083c-2.729.229-5.401-.013-7.985-.962-1.711-.629-3.201-1.591-4.399-2.987-.214-.25-.488-.521-.887-.287-.391.23-.46.602-.329.979.219.626.421 1.278.762 1.838.857 1.405 2.107 2.424 3.483 3.298 2.643 1.681 5.597 2.246 8.66 2.377 4.648.201 9.183-.493 13.654-1.74 6.383-1.78 11.933-4.924 16.384-9.884 3.706-4.13 6.353-8.791 6.92-14.419.277-2.747-.018-5.438-1.304-7.944-1.395-2.715-3.613-4.734-6.265-6.125C68.756 18.179 64.588 17 60.286 17h-4.31c-5.21 0-10.247 1.493-15.143 3.274-3.706 1.349-7.34 2.941-10.868 4.703-7.683 3.839-14.838 8.468-20.715 14.833-2.928 3.171-5.407 6.67-6.833 10.79a40.494 40.494 0 0 0-1.111 3.746m27.839 36.013c-.333 4.459-2.354 8.074-5.657 11.002-1.858 1.646-3.989 2.818-6.471 3.23-.9.149-1.821.185-2.694-.188-1.245-.532-1.524-1.637-1.548-2.814-.037-1.876.62-3.572 1.521-5.186 1.176-2.104 2.9-3.708 4.741-5.206 2.9-2.361 6.046-4.359 9.268-6.245l.243-.1c.498 1.84.735 3.657.597 5.507zM54.303 70.98c-.235 1.424-.529 2.849-.945 4.229-1.438 4.777-3.285 9.406-5.282 13.973-.369.845-.906 1.616-1.373 2.417a1.689 1.689 0 0 1-.283.334c-.578.571-1.126.541-1.418-.206-.34-.868-.549-1.797-.729-2.716-.121-.617-.092-1.265-.13-1.897.039-4.494 1.41-8.578 3.736-12.38.959-1.568 2.003-3.062 3.598-4.054a6.27 6.27 0 0 1 1.595-.706c.85-.239 1.372.154 1.231 1.006zm17.164 21.868l6.169-7.203c.257 2.675-4.29 8.015-6.169 7.203zm19.703-4.847c-.436.25-.911.43-1.358.661-.409.212-.544-.002-.556-.354a2.385 2.385 0 0 1 .093-.721c.833-2.938 2.366-5.446 4.647-7.486l.16-.082c1.085 3.035-.169 6.368-2.986 7.982z"/></symbol><symbol id="icon-star" viewBox="0 0 1792 1792"><path d="M1728 647q0 22-26 48l-363 354 86 500q1 7 1 20 0 21-10.5 35.5T1385 1619q-19 0-40-12l-449-236-449 236q-22 12-40 12-21 0-31.5-14.5T365 1569q0-6 2-20l86-500L89 695q-25-27-25-48 0-37 56-46l502-73L847 73q19-41 49-41t49 41l225 455 502 73q56 9 56 46z"/></symbol><symbol id="icon-travis" viewBox="0 0 128 128"><path fill="#BB2031" d="M40 34h18v61h-8v11h28V94h-7V33h19v9h10V24H29v18h11zm82.2-31H6.031C4.005 3 2 4.226 2 6.225v116.154c0 2 2.005 3.621 4.031 3.621H122.2c2.026 0 2.8-1.621 2.8-3.621V6.225C125 4.226 124.226 3 122.2 3zM106 48H85v-9h-9v48h9v24H45V88h6V40h-6v8H22V18h84v30z"/></symbol><symbol id="icon-twitter" viewBox="-16 -40 212 212"><defs id="defs6"><clipPath id="clipPath20"><path id="path18" d="M0 10.012h1366.9v1110.9H0z"/></clipPath></defs><g id="g10" transform="matrix(1.3333 0 0 -1.3333 0 150.67)"><g id="g12" transform="scale(.1)"><g id="g14"><g id="g16" clip-path="url(#clipPath20)"><path id="path22" d="M1366.9 989.39c-50.27-22.309-104.33-37.387-161.05-44.18 57.89 34.723 102.34 89.679 123.28 155.15-54.18-32.15-114.18-55.47-178.09-68.04-51.13 54.49-124.02 88.55-204.68 88.55-154.89 0-280.43-125.55-280.43-280.43 0-21.988 2.457-43.398 7.258-63.91-233.08 11.68-439.72 123.36-578.04 293.01-24.141-41.4-37.969-89.567-37.969-140.97 0-97.308 49.489-183.13 124.76-233.44-45.969 1.437-89.218 14.058-127.03 35.078-.043-1.18-.043-2.348-.043-3.52 0-135.9 96.68-249.22 224.96-275-23.512-6.41-48.281-9.8-73.86-9.8a279.245 279.245 0 0 0-52.781 5c35.711-111.41 139.26-192.5 262-194.77-96.058-75.23-216.96-120.04-348.36-120.04a573.814 573.814 0 0 0-66.918 3.91c124.16-79.568 271.55-125.98 429.94-125.98 515.82 0 797.86 427.31 797.86 797.93 0 12.153-.28 24.223-.79 36.25 54.77 39.571 102.31 88.95 139.93 145.2"/></g></g></g></g></symbol><symbol id="icon-wildlyinaccurate" viewBox="0 0 100 100"><path d="M80.906 9.406c-3.648.045-7.071 1.287-9.219 3.438-2.6 2.604-3.662 5.88-3.874 11.969-.167 4.762.072 5.876 2.53 12.843 2.4 6.802 1.98 9.14-3.187 12.125l-3.719-2.25-2.812 4.625-5.531-3.312-3.344 5.593-3.75-2.28-2.375 3.968L42.5 54.25 40.844 57c-.076.013-.144.05-.219.063l-1.688-1.032-.874 1.469c-8.483 1.488-12.199 2.352-14.97 3.469-3.522 1.419-8.43 2.08-11.437 4.5C8.423 68.07 5 71.159 5 71.5c0 .175.174.161.406-.031.217-.18 2.053-1.138 4.094-2.156 10.412-5.193 18.996-3.595 26.938.03.934.427 2.077 1.022 2.53 1.344l.813.594-.531-1.781c-.425-1.39-.738-2.921-.781-3.719l.531.313c.09.28.17.596.25.937.21.895 1.183 3.828 2.188 6.531 1.2 3.233 1.757 5.16 1.624 5.594-.11.364-.832 1.478-1.593 2.5-1.348 1.81-1.362 1.909-1.219 3.719.194 2.45.981 4.317 2 4.781.844.385 6.41.503 7.313.156.753-.289.654-.726-.563-2.437-.596-.839-1.094-1.66-1.094-1.844 0-.183.82-1.591 1.844-3.125 1.024-1.533 2.18-3.567 2.531-4.5 1.28-3.402.589-7.624-1.75-10.687-1.128-1.479-1.043-1.767.25-.75 1.073.844 2.613 3.963 3.063 6.25l.343 1.875 3.126-.156c3.558-.172 3.09.235-.657.562l-2.5.188-.812 2.124c-.458 1.167-1.536 3.26-2.375 4.657-.84 1.396-2.469 3.29-2.469 3.406 0 .277 1.684 2.068 2.375 3.031.468.652 1.65 1.111 3.563 1.219 2.466.14 2.448.25.687-2.063-.561-.737-1.031-1.676-1.031-2.093 0-.417.566-1.86 1.25-3.219.683-1.36 1.445-3.335 1.687-4.375.243-1.04.478-1.921.532-1.969.053-.047 1.117-.318 2.343-.594 4.298-.966 4.25-.981 4.25 4.22 0 3.45.126 4.515.75 6.593.41 1.363.993 2.722 1.281 3.031.62.665 2.996 1.04 5.876.906 2.498-.116 2.896-.434 1.78-1.468-.463-.43-1.142-1.362-1.5-2.063-.563-1.104-.604-1.607-.437-3.781.445-5.773.537-8.37.344-9.656l-.219-1.375-1.156.594c-1.243.634-3.735 1.39-3.938 1.187-.069-.07.819-.505 2-.969 3.07-1.204 3.202-1.412 1.626-3.281-.716-.849-1.193-1.563-1.032-1.563.55 0 3.94 3.874 4.531 5.188.567 1.26.887 1.384.907 3.938.03 3.83.294 7.048 1 7.687 1.225 1.109 7.345 2.318 7.625 1.719.417-.893.307-1.758-.031-3.031-.578-2.171-.29-2.033-.72-6.688 0 0 .039-3.067-.437-4.969l-1.844-3.375c-1.252-2.3-2.426-3.956-3.687-5.219l-1.844-1.843 1.25.656c1.202.613 3.1 2.446 3.781 3.656.31.549.407.529 1.407-.437 1.282-1.24 2.557-3.758 3.031-5.969.205-.955.276-3.165.188-5.375-.247-6.134-1.916-10.739-6.626-18.188-3.174-5.02-4.21-7.958-4.218-11.906-.013-5.61 2.472-8.494 7.281-8.5 1.866-.002 2.869.383 4.313 1.688.678.613 1.656 1.156 2.343 1.281.65.118 1.797.535 2.563.938.765.402 1.771.718 2.219.718 1.008 0 2.437-1.08 2.437-1.843 0-.878-2.114-5.64-2.875-6.47-.914-.994-2.184-1.485-4.406-1.718-1.023-.107-2.953-.375-4.281-.563a16.55 16.55 0 0 0-2.532-.156zm9.375 3.625c.807 0 1.313.621 1.313 1.625 0 .873-.01.886-.938.406-.653-.337-.937-.711-.937-1.25 0-.531.175-.78.562-.78z"/></symbol></svg>