<svg xmlns="http://www.w3.org/2000/svg" style="display:none;">
    <!-- Icons from http://devicon.fr/ unless otherwise stated -->

    <symbol id="icon-aws" viewBox="0 0 128 128">
        <path fill="#F7A80D" d="M38.089 77.466l-11.4 4.896 10.559 4.514 12.241-4.514-11.4-4.896zm-17.138 6.12l-.382 22.034 16.679 7.345v-22.876l-16.297-6.503zm34.276 0l-15.073 5.739v21.575l15.073-6.121v-21.193zM73.206 15.035l-11.476 4.896 10.635 4.515 12.241-4.515-11.4-4.896zm-15.914 6.503v22.034l14.231 4.132.459-20.046-14.69-6.12zm31.828 1.224l-13.466 5.738v21.652l13.466-6.121v-21.269zM19.306 46.047l-11.399 4.897 10.558 4.514 12.241-4.514-11.4-4.897zm-17.138 6.121l-.382 22.034 16.679 7.345v-22.876l-16.297-6.503zm34.275 0l-15.071 5.738v21.574l15.071-6.12v-21.192zM56.03 45.231l-11.4 4.897 10.558 4.514 12.241-4.514-11.399-4.897zm-17.137 6.121l-.383 22.035 16.679 7.345v-22.877l-16.296-6.503zm34.275 0l-15.072 5.738v21.576l15.072-6.121v-21.193zM109.076 15.035l-11.399 4.896 10.559 4.515 12.241-4.515-11.401-4.896zm-17.137 6.121l-.382 22.034 16.679 7.344v-22.876l-16.297-6.502zm34.275 0l-15.071 5.738v21.575l15.071-6.12v-21.193z"></path>
    </symbol>

    <symbol id="icon-angular" viewBox="0 0 128 128">
        <path fill="#C4473A" d="M52.864 64h23.28l-12.375-25.877zM63.81 1.026l-59.257 20.854 9.363 77.637 49.957 27.457 50.214-27.828 9.36-77.635-59.637-20.485zm-15.766 73.974l-7.265 18.176-13.581.056 36.608-81.079-.07-.153h-.064l.001-.133.063.133h.14100000000000001l.123-.274v.274h-.124l-.069.153 38.189 81.417-13.074-.287-8.042-18.58-17.173.082"></path>
    </symbol>

    <symbol id="icon-css" viewBox="0 0 128 128">
        <path fill="#1572B6" d="M8.76 1l10.055 112.883 45.118 12.58 45.244-12.626 10.063-112.837h-110.48zm89.591 25.862l-3.347 37.605.01.203-.014.467v-.004l-2.378 26.294-.262 2.336-28.36 7.844v.001l-.022.019-28.311-7.888-1.917-21.739h13.883l.985 11.054 15.386 4.17-.004.008v-.002l15.443-4.229 1.632-18.001h-32.282999999999994l-.277-3.043-.631-7.129-.331-3.828h34.748999999999995l1.264-14h-52.926l-.277-3.041-.63-7.131-.332-3.828h69.281l-.331 3.862z"></path>
    </symbol>

    <symbol id="icon-docker" viewBox="0 0 128 128">
        <path fill="#019BC6" d="M124.8 52.1c-4.3-2.5-10-2.8-14.8-1.4-.6-5.2-4-9.7-8-12.9l-1.6-1.3-1.4 1.6c-2.7 3.1-3.5 8.3-3.1 12.3.3 2.9 1.2 5.9 3 8.3-1.4.8-2.9 1.9-4.3 2.4-2.8 1-5.9 2-8.9 2h-6.7v-14.1h-13v-25h-15v12h-25v13h-13v14h-11.2l-.2 1.5c-.5 6.4.3 12.6 3 18.5l1.1 2.2.1.2c7.9 13.4 21.7 19 36.8 19 29.2 0 53.3-13.1 64.3-40.6 7.4.4 15-1.8 18.6-8.9l.9-1.8-1.6-1zm-96.8-13.1h10v11h-10v-11zm13.1 44.2c0 1.7-1.4 3.1-3.1 3.1-1.7 0-3.1-1.4-3.1-3.1 0-1.7 1.4-3.1 3.1-3.1 1.7.1 3.1 1.4 3.1 3.1zm-13.1-31.2h10v11h-10v-11zm-13 0h11v11h-11v-11zm27.7 50.2c-15.8-.1-24.3-5.4-31.3-12.4 2.1.1 4.1.2 5.9.2 1.6 0 3.2 0 4.7-.1 3.9-.2 7.3-.7 10.1-1.5 2.3 5.3 6.5 10.2 14 13.8h-3.4zm8.3-39.2h-11v-11h11v11zm0-13h-11v-11h11v11zm13 13h-11v-11h11v11zm0-13h-11v-11h11v11zm0-13h-11v-11h11v11zm13 26h-11v-11h11v11zM38.8 81.2c-.2-.1-.5-.2-.8-.2-1.2 0-2.2 1-2.2 2.2 0 1.2 1 2.2 2.2 2.2s2.2-1 2.2-2.2c0-.3-.1-.6-.2-.8-.2.3-.4.5-.8.5-.5 0-.9-.4-.9-.9.1-.4.3-.7.5-.8z"></path>
    </symbol>

    <!-- Taken from https://github.com/evancz/elm-svg/blob/master/examples/Logo.elm -->
    <symbol id="icon-elm" viewBox="-16 -16 360 360">
        <polygon fill="#F0AD00" points="161.649,152.782 231.514,82.916 91.783,82.916"></polygon><polygon fill="#7FD13B" points="8.867,0 79.241,70.375 232.213,70.375 161.838,0"></polygon><rect fill="#7FD13B" x="192.99" y="107.392" width="107.676" height="108.167" transform="matrix(0.7071 0.7071 -0.7071 0.7071 186.4727 -127.2386)"></rect><polygon fill="#60B5CC" points="323.298,143.724 323.298,0 179.573,0"></polygon><polygon fill="#5A6378" points="152.781,161.649 0,8.868 0,314.432"></polygon><polygon fill="#F0AD00" points="255.522,246.655 323.298,314.432 323.298,178.879"></polygon><polygon fill="#60B5CC" points="161.649,170.517 8.869,323.298 314.43,323.298"></polygon>
    </symbol>

    <symbol id="icon-git" viewBox="0 0 128 128">
        <path fill="#F34F29" d="M124.737 58.378l-55.116-55.114c-3.172-3.174-8.32-3.174-11.497 0l-11.444 11.446 14.518 14.518c3.375-1.139 7.243-.375 9.932 2.314 2.703 2.706 3.461 6.607 2.294 9.993l13.992 13.993c3.385-1.167 7.292-.413 9.994 2.295 3.78 3.777 3.78 9.9 0 13.679-3.78 3.78-9.901 3.78-13.683 0-2.842-2.844-3.545-7.019-2.105-10.521l-13.048-13.048-.002 34.341c.922.455 1.791 1.063 2.559 1.828 3.778 3.777 3.778 9.898 0 13.683-3.779 3.777-9.904 3.777-13.679 0-3.778-3.784-3.778-9.905 0-13.683.934-.933 2.014-1.638 3.167-2.11v-34.659c-1.153-.472-2.231-1.172-3.167-2.111-2.862-2.86-3.551-7.06-2.083-10.576l-14.313-14.313-37.792 37.79c-3.175 3.177-3.175 8.325 0 11.5l55.117 55.114c3.174 3.174 8.32 3.174 11.499 0l54.858-54.858c3.174-3.176 3.174-8.327-.001-11.501z"></path>
    </symbol>

    <symbol id="icon-github" viewBox="0 0 128 128">
        <path fill-rule="evenodd" clip-rule="evenodd" d="M64 5.103c-33.347 0-60.388 27.035-60.388 60.388 0 26.682 17.303 49.317 41.297 57.303 3.017.56 4.125-1.31 4.125-2.905 0-1.44-.056-6.197-.082-11.243-16.8 3.653-20.345-7.125-20.345-7.125-2.747-6.98-6.705-8.836-6.705-8.836-5.48-3.748.413-3.67.413-3.67 6.063.425 9.257 6.223 9.257 6.223 5.386 9.23 14.127 6.562 17.573 5.02.542-3.903 2.107-6.568 3.834-8.076-13.413-1.525-27.514-6.704-27.514-29.843 0-6.593 2.36-11.98 6.223-16.21-.628-1.52-2.695-7.662.584-15.98 0 0 5.07-1.623 16.61 6.19C53.7 35 58.867 34.327 64 34.304c5.13.023 10.3.694 15.127 2.033 11.526-7.813 16.59-6.19 16.59-6.19 3.287 8.317 1.22 14.46.593 15.98 3.872 4.23 6.215 9.617 6.215 16.21 0 23.194-14.127 28.3-27.574 29.796 2.167 1.874 4.097 5.55 4.097 11.183 0 8.08-.07 14.583-.07 16.572 0 1.607 1.088 3.49 4.148 2.897 23.98-7.994 41.263-30.622 41.263-57.294C124.388 32.14 97.35 5.104 64 5.104z"></path><path d="M26.484 91.806c-.133.3-.605.39-1.035.185-.44-.196-.685-.605-.543-.906.13-.31.603-.395 1.04-.188.44.197.69.61.537.91zm-.743-.55M28.93 94.535c-.287.267-.85.143-1.232-.28-.396-.42-.47-.983-.177-1.254.298-.266.844-.14 1.24.28.394.426.472.984.17 1.255zm-.575-.618M31.312 98.012c-.37.258-.976.017-1.35-.52-.37-.538-.37-1.183.01-1.44.373-.258.97-.025 1.35.507.368.545.368 1.19-.01 1.452zm0 0M34.573 101.373c-.33.365-1.036.267-1.552-.23-.527-.487-.674-1.18-.343-1.544.336-.366 1.045-.264 1.564.23.527.486.686 1.18.333 1.543zm0 0M39.073 103.324c-.147.473-.825.688-1.51.486-.683-.207-1.13-.76-.99-1.238.14-.477.823-.7 1.512-.485.683.206 1.13.756.988 1.237zm0 0M44.016 103.685c.017.498-.563.91-1.28.92-.723.017-1.308-.387-1.315-.877 0-.503.568-.91 1.29-.924.717-.013 1.306.387 1.306.88zm0 0M48.614 102.903c.086.485-.413.984-1.126 1.117-.7.13-1.35-.172-1.44-.653-.086-.498.422-.997 1.122-1.126.714-.123 1.354.17 1.444.663zm0 0"></path>
    </symbol>

    <symbol id="icon-gulp" viewBox="0 0 128 128">
        <path fill-rule="evenodd" clip-rule="evenodd" fill="#EB4A4B" d="M36.965 35.459c.877 9.232 1.747 18.412 2.637 27.798 1.451-2.495 2.501-4.888 4.085-6.848 1.475-1.826 3.334-3.511 5.357-4.678 2.641-1.524 6.104-.089 6.96 2.614.23.725-.319 1.697-.511 2.556-.646-.341-1.479-.529-1.901-1.051-1.793-2.217-2.873-2.479-4.856-.563-3.699 3.576-5.779 8.056-6.573 13.091-.153.974.456 2.067.713 3.105 1.011-.348 2.185-.476 3.002-1.084 2.656-1.977 4.302-4.666 5.21-7.88.197-.696 1.265-1.145 1.933-1.708.32.658 1.05 1.433.897 1.954-1.407 4.84-2.934 9.649-4.536 14.429-.162.484-1.051.725-1.604 1.079-.223-.636-.692-1.302-.617-1.901.168-1.358.605-2.683.91-3.927l-7.24 3.333c.405 4.622.825 9.807 1.323 14.985.382 3.954 1.029 4.978 4.923 5.728 4.544.875 9.173 1.434 13.792 1.774 6.825.503 13.59-.119 20.23-1.904 2.472-.664 3.458-2.29 3.635-4.717.162-2.235.524-4.456.775-6.685.493-4.391.972-8.783 1.476-13.358-1.667 1.056-2.978 2.238-4.511 2.739-1.116.365-2.524-.169-3.803-.303.245-1.174.23-2.497.796-3.487.922-1.618 2.224-3.021 3.364-4.515l-.491-.591c-.817.483-1.832.8-2.413 1.485-1.182 1.394-2.339 2.886-3.13 4.52-1.324 2.735-2.333 5.622-3.518 8.426-.515 1.216-.959 3.076-2.684 2.366-1.845-.761-.547-2.386-.114-3.542.689-1.844 1.599-3.606 2.215-4.962-1.746.208-3.516.459-5.294.614-.752.064-1.646-.348-2.261-.07-2.045.924-3.341.553-3.766-1.711-.947.615-1.749 1.448-2.694 1.672-1.147.273-2.703.452-3.543-.121-.673-.459-.918-2.184-.688-3.196.457-2.012 1.311-3.946 2.122-5.859.502-1.185 1.007-3.077 2.701-2.253 1.674.813.154 2.185-.232 3.286-.599 1.702-1.209 3.401-1.813 5.101l.96.58c.914-.794 2.053-1.441 2.693-2.415 1.048-1.592 1.681-3.452 2.673-5.086.411-.677 1.296-1.065 1.967-1.584.136.862.462 1.748.354 2.58-.107.841-.698 1.61-.981 2.442-.425 1.246-.768 2.52-1.2 3.969 2.043.078 2.918-.782 3.495-2.299 1.826-4.793 3.672-9.581 5.679-14.3.343-.808 1.509-1.264 2.296-1.884.091.974.525 2.078.216 2.899-1.645 4.349-3.492 8.62-5.228 12.935-.293.727-.387 1.534-.572 2.304 3.059-1.375 5.612-2.895 6.544-6.146.228-.79 1.162-1.377 1.771-2.058l1.416 1.5c.43-.362.824-.774 1.291-1.075 1.47-.947 3.053-1.782 4.603-.315 1.604 1.517.39 2.995-.448 4.307-.912 1.431-2.029 2.73-3.057 4.086 2.312-1.49 5.469-2.158 5.889-5.378 1.024-7.865 1.924-15.746 2.837-23.625.271-2.332.416-4.679.627-7.109-18.21 4.409-36.029 4.436-54.088-.069zM44.781 96.828c.877 2.317 2.209 4.593 2.558 7.011.737 5.147.924 10.372 1.446 15.554.076.755.565 1.792 1.175 2.124 8.98 4.88 18.047 5.726 27.209.389 1.367-.796 1.62-1.847 1.797-3.325.857-7.181-1.051-14.798 3.54-21.56-12.856 3.189-25.403 3.288-37.725-.193zM75.772 36.748c4.362-.421 8.671-1.445 12.985-2.291.813-.159 1.535-.778 2.299-1.185-1.007-.885-1.878-1.311-2.788-1.418-4.53-.535-9.076-.947-13.603-1.508-.684-.085-1.905-.929-1.854-1.083 1.321-3.98 1.256-8.485 4.254-11.839 3.789-4.24 7.617-8.443 11.416-12.648-2.826-3.04-2.864-3.044-5.425-.383-1.448 1.504-2.771 3.15-4.342 4.512-5.813 5.038-9.896 11.005-10.692 18.872-.183 1.805-1.174 2.457-3.069 2.485-6.256.091-12.519.263-18.761.674-3.093.203-6.148.997-9.221 1.523l-.028 1.149c1.923.593 3.809 1.372 5.773 1.749 10.944 2.098 21.991 2.458 33.056 1.391zm-3.496-2.748c-2.477 2-4.524 2-6.501 0h6.501z"></path>
    </symbol>

    <!-- Taken from https://upload.wikimedia.org/wikipedia/commons/1/1c/Haskell-Logo.svg -->
    <symbol id="icon-haskell" viewBox="0 -70 480 480">
        <defs>
            <clipPath id="clip1">
                <path d="M 0 340.15625 L 481.890625 340.15625 L 481.890625 0 L 0 0 L 0 340.15625 Z M 0 340.15625 "/>
            </clipPath>
        </defs>
        <g id="surface0">
            <g clip-path="url(#clip1)" clip-rule="nonzero">
                <path style=" stroke:none;fill-rule: nonzero; fill: rgb(40%,40%,40%); fill-opacity: 1;" d="M 0 340.15625 L 113.386719 170.078125 L 0 0 L 85.039062 0 L 198.425781 170.078125 L 85.039062 340.15625 L 0 340.15625 Z M 0 340.15625 "/>
                <path style=" stroke:none;fill-rule: nonzero; fill: rgb(60%,60%,60%); fill-opacity: 1;" d="M 113.386719 340.15625 L 226.773438 170.078125 L 113.386719 0 L 198.425781 0 L 425.195312 340.15625 L 340.15625 340.15625 L 269.292969 233.859375 L 198.425781 340.15625 L 113.386719 340.15625 Z M 113.386719 340.15625 "/>
                <path style=" stroke:none;fill-rule: nonzero; fill: rgb(40%,40%,40%); fill-opacity: 1;" d="M 387.402344 240.945312 L 349.609375 184.253906 L 481.890625 184.25 L 481.890625 240.945312 L 387.402344 240.945312 Z M 387.402344 240.945312 "/>
                <path style=" stroke:none;fill-rule: nonzero; fill: rgb(40%,40%,40%); fill-opacity: 1;" d="M 330.710938 155.90625 L 292.914062 99.214844 L 481.890625 99.210938 L 481.890625 155.90625 L 330.710938 155.90625 Z M 330.710938 155.90625 "/>
            </g>
        </g>
    </symbol>

    <symbol id="icon-html" viewBox="0 0 128 128">
        <path fill="#E44D26" d="M9.032 2l10.005 112.093 44.896 12.401 45.02-12.387 10.015-112.107h-109.936zm89.126 26.539l-.627 7.172-.276 3.289h-52.665000000000006l1.257 14h50.156000000000006l-.336 3.471-3.233 36.119-.238 2.27-28.196 7.749v.002l-.034.018-28.177-7.423-1.913-21.206h13.815000000000001l.979 10.919 15.287 4.081h.043v-.546l15.355-3.875 1.604-17.579h-47.698l-3.383-38.117-.329-3.883h68.939l-.33 3.539z"></path>
    </symbol>

    <symbol id="icon-js" viewBox="0 0 128 128">
        <path fill="#F0DB4F" d="M2 1v125h125v-125h-125zm66.119 106.513c-1.845 3.749-5.367 6.212-9.448 7.401-6.271 1.44-12.269.619-16.731-2.059-2.986-1.832-5.318-4.652-6.901-7.901l9.52-5.83c.083.035.333.487.667 1.071 1.214 2.034 2.261 3.474 4.319 4.485 2.022.69 6.461 1.131 8.175-2.427 1.047-1.81.714-7.628.714-14.065-.001-10.115.046-20.188.046-30.188h11.709c0 11 .06 21.418 0 32.152.025 6.58.596 12.446-2.07 17.361zm48.574-3.308c-4.07 13.922-26.762 14.374-35.83 5.176-1.916-2.165-3.117-3.296-4.26-5.795 4.819-2.772 4.819-2.772 9.508-5.485 2.547 3.915 4.902 6.068 9.139 6.949 5.748.702 11.531-1.273 10.234-7.378-1.333-4.986-11.77-6.199-18.873-11.531-7.211-4.843-8.901-16.611-2.975-23.335 1.975-2.487 5.343-4.343 8.877-5.235l3.688-.477c7.081-.143 11.507 1.727 14.756 5.355.904.916 1.642 1.904 3.022 4.045-3.772 2.404-3.76 2.381-9.163 5.879-1.154-2.486-3.069-4.046-5.093-4.724-3.142-.952-7.104.083-7.926 3.403-.285 1.023-.226 1.975.227 3.665 1.273 2.903 5.545 4.165 9.377 5.926 11.031 4.474 14.756 9.271 15.672 14.981.882 4.916-.213 8.105-.38 8.581z"></path>
    </symbol>

    <symbol id="icon-nginx" viewBox="0 0 128 128">
        <path fill="#090" d="M24.5 50.5c-1.5 0-2.5 1.2-2.5 2.7v14.1l-15.9-16c-.8-.8-2.2-1-3.2-.6s-1.9 1.4-1.9 2.5v20.7c0 1.5 1.5 2.7 3 2.7s3-1.2 3-2.7v-14.1l16.1 16c.5.5 1.2.8 1.9.8.3 0 .4-.1.7-.2 1-.4 1.3-1.4 1.3-2.5v-20.6c0-1.5-1-2.8-2.5-2.8zM44.2 62.3c-1.4 0-2.7 1.4-2.7 2.8s1.3 2.8 2.7 2.8l6.6.4-1.5 3.7h-8.5l-4.2-7.9 4.3-8.1h9.1l2.1 4h5.5l-3.6-7.9-.8-1.1h-15.6l-.7 1.2-5.9 10.3-.7 1.3.7 1.3 5.8 10.3.8 1.6h15.1l.7-1.7 4.3-9 1.9-4.3h-4.4l-11 .3zM65 50.5c-1.4 0-3 1.3-3 2.7v6.8h6v-6.7c0-1.5-1.6-2.8-3-2.8zM95.4 50.8c-1-.4-2.4-.2-3.1.6l-16.3 16v-14.1c0-1.5-1-2.7-2.5-2.7s-2.5 1.2-2.5 2.7v20.7c0 1.1.7 2.1 1.7 2.5.3.1.7.2 1 .2.7 0 1.6-.3 2.1-.8l16.2-16v14.1c0 1.5 1 2.7 2.5 2.7s2.5-1.2 2.5-2.7v-20.7c0-1.1-.6-2.1-1.6-2.5zM117.2 63.6l8.4-8.4c1.1-1.1 1.1-2.8 0-3.8-1.1-1.1-2.8-1.1-3.8 0l-8.4 8.4-8.4-8.4c-1.1-1.1-2.8-1.1-3.8 0-1.1 1.1-1.1 2.8 0 3.8l8.4 8.4-8.4 8.4c-1.1 1.1-1.1 2.8 0 3.8.5.5 1.2.8 1.9.8s1.4-.3 1.9-.8l8.4-8.4 8.4 8.4c.5.5 1.2.8 1.9.8s1.4-.3 1.9-.8c1.1-1.1 1.1-2.8 0-3.8l-8.4-8.4zM62 73.9c0 1.4 1.5 2.7 3 2.7 1.4 0 3-1.3 3-2.7v-11.9h-6v11.9z"></path>
    </symbol>

    <symbol id="icon-nodejs" viewBox="0 0 128 128">
        <path fill="#83CD29" d="M112.771 30.334l-44.097-25.605c-2.781-1.584-6.402-1.584-9.205 0l-44.568 25.605c-2.87 1.651-4.901 4.754-4.901 8.073v51.142c0 3.319 2.084 6.423 4.954 8.083l11.775 6.688c5.628 2.772 7.617 2.772 10.178 2.772 8.333 0 13.093-5.039 13.093-13.828v-50.49c0-.713-.371-1.774-1.071-1.774h-5.623c-.712 0-2.306 1.061-2.306 1.773v50.49c0 3.896-3.524 7.773-10.11 4.48l-12.167-7.013c-.424-.23-.723-.693-.723-1.181v-51.142c0-.482.555-.966.982-1.213l44.424-25.561c.415-.235 1.025-.235 1.439 0l43.882 25.555c.42.253.272.722.272 1.219v51.142c0 .488.183.963-.232 1.198l-44.086 25.576c-.378.227-.847.227-1.261 0l-11.307-6.749c-.341-.198-.746-.269-1.073-.086-3.146 1.783-3.726 2.02-6.677 3.043-.726.253-1.797.692.41 1.929l14.798 8.754c1.417.82 3.027 1.246 4.647 1.246 1.642 0 3.25-.426 4.667-1.246l43.885-25.582c2.87-1.672 4.23-4.764 4.23-8.083v-51.142c0-3.319-1.36-6.414-4.229-8.073zM77.91 81.445c-11.726 0-14.309-3.235-15.17-9.066-.1-.628-.633-1.379-1.272-1.379h-5.731c-.709 0-1.279.86-1.279 1.566 0 7.466 4.059 16.512 23.453 16.512 14.039 0 22.088-5.455 22.088-15.109 0-9.572-6.467-12.084-20.082-13.886-13.762-1.819-15.16-2.738-15.16-5.962 0-2.658 1.184-6.203 11.374-6.203 9.105 0 12.461 1.954 13.842 8.091.118.577.645.991 1.24.991h5.754c.354 0 .692-.143.94-.396.24-.272.367-.613.335-.979-.891-10.568-7.912-15.493-22.112-15.493-12.631 0-20.166 5.334-20.166 14.275 0 9.698 7.497 12.378 19.622 13.577 14.505 1.422 15.633 3.542 15.633 6.395 0 4.955-3.978 7.066-13.309 7.066z"></path>
    </symbol>

    <symbol id="icon-react" viewBox="0 0 128 128">
        <path fill="#61DAFB" d="M107.3 45.2c-2.2-.8-4.5-1.6-6.9-2.3.6-2.4 1.1-4.8 1.5-7.1 2.1-13.2-.2-22.5-6.6-26.1-1.9-1.1-4-1.6-6.4-1.6-7 0-15.9 5.2-24.9 13.9-9-8.7-17.9-13.9-24.9-13.9-2.4 0-4.5.5-6.4 1.6-6.4 3.7-8.7 13-6.6 26.1.4 2.3.9 4.7 1.5 7.1-2.4.7-4.7 1.4-6.9 2.3-12.5 4.8-19.3 11.4-19.3 18.8s6.9 14 19.3 18.8c2.2.8 4.5 1.6 6.9 2.3-.6 2.4-1.1 4.8-1.5 7.1-2.1 13.2.2 22.5 6.6 26.1 1.9 1.1 4 1.6 6.4 1.6 7.1 0 16-5.2 24.9-13.9 9 8.7 17.9 13.9 24.9 13.9 2.4 0 4.5-.5 6.4-1.6 6.4-3.7 8.7-13 6.6-26.1-.4-2.3-.9-4.7-1.5-7.1 2.4-.7 4.7-1.4 6.9-2.3 12.5-4.8 19.3-11.4 19.3-18.8s-6.8-14-19.3-18.8zm-14.8-30.5c4.1 2.4 5.5 9.8 3.8 20.3-.3 2.1-.8 4.3-1.4 6.6-5.2-1.2-10.7-2-16.5-2.5-3.4-4.8-6.9-9.1-10.4-13 7.4-7.3 14.9-12.3 21-12.3 1.3 0 2.5.3 3.5.9zm-11.2 59.3c-1.8 3.2-3.9 6.4-6.1 9.6-3.7.3-7.4.4-11.2.4-3.9 0-7.6-.1-11.2-.4-2.2-3.2-4.2-6.4-6-9.6-1.9-3.3-3.7-6.7-5.3-10 1.6-3.3 3.4-6.7 5.3-10 1.8-3.2 3.9-6.4 6.1-9.6 3.7-.3 7.4-.4 11.2-.4 3.9 0 7.6.1 11.2.4 2.2 3.2 4.2 6.4 6 9.6 1.9 3.3 3.7 6.7 5.3 10-1.7 3.3-3.4 6.6-5.3 10zm8.3-3.3c1.5 3.5 2.7 6.9 3.8 10.3-3.4.8-7 1.4-10.8 1.9 1.2-1.9 2.5-3.9 3.6-6 1.2-2.1 2.3-4.2 3.4-6.2zm-25.6 27.1c-2.4-2.6-4.7-5.4-6.9-8.3 2.3.1 4.6.2 6.9.2 2.3 0 4.6-.1 6.9-.2-2.2 2.9-4.5 5.7-6.9 8.3zm-18.6-15c-3.8-.5-7.4-1.1-10.8-1.9 1.1-3.3 2.3-6.8 3.8-10.3 1.1 2 2.2 4.1 3.4 6.1 1.2 2.2 2.4 4.1 3.6 6.1zm-7-25.5c-1.5-3.5-2.7-6.9-3.8-10.3 3.4-.8 7-1.4 10.8-1.9-1.2 1.9-2.5 3.9-3.6 6-1.2 2.1-2.3 4.2-3.4 6.2zm25.6-27.1c2.4 2.6 4.7 5.4 6.9 8.3-2.3-.1-4.6-.2-6.9-.2-2.3 0-4.6.1-6.9.2 2.2-2.9 4.5-5.7 6.9-8.3zm22.2 21l-3.6-6c3.8.5 7.4 1.1 10.8 1.9-1.1 3.3-2.3 6.8-3.8 10.3-1.1-2.1-2.2-4.2-3.4-6.2zm-54.5-16.2c-1.7-10.5-.3-17.9 3.8-20.3 1-.6 2.2-.9 3.5-.9 6 0 13.5 4.9 21 12.3-3.5 3.8-7 8.2-10.4 13-5.8.5-11.3 1.4-16.5 2.5-.6-2.3-1-4.5-1.4-6.6zm-24.7 29c0-4.7 5.7-9.7 15.7-13.4 2-.8 4.2-1.5 6.4-2.1 1.6 5 3.6 10.3 6 15.6-2.4 5.3-4.5 10.5-6 15.5-13.8-4-22.1-10-22.1-15.6zm28.5 49.3c-4.1-2.4-5.5-9.8-3.8-20.3.3-2.1.8-4.3 1.4-6.6 5.2 1.2 10.7 2 16.5 2.5 3.4 4.8 6.9 9.1 10.4 13-7.4 7.3-14.9 12.3-21 12.3-1.3 0-2.5-.3-3.5-.9zm60.8-20.3c1.7 10.5.3 17.9-3.8 20.3-1 .6-2.2.9-3.5.9-6 0-13.5-4.9-21-12.3 3.5-3.8 7-8.2 10.4-13 5.8-.5 11.3-1.4 16.5-2.5.6 2.3 1 4.5 1.4 6.6zm9-15.6c-2 .8-4.2 1.5-6.4 2.1-1.6-5-3.6-10.3-6-15.6 2.4-5.3 4.5-10.5 6-15.5 13.8 4 22.1 10 22.1 15.6 0 4.7-5.8 9.7-15.7 13.4z"></path>
    </symbol>

    <symbol id="icon-ruby" viewBox="0 0 128 128">
        <path fill-rule="evenodd" clip-rule="evenodd" fill="#D91404" d="M35.971 111.33c27.466 3.75 54.444 7.433 81.958 11.188-9.374-15.606-18.507-30.813-27.713-46.144l-54.245 34.956zM125.681 24.947c-2.421 3.636-4.847 7.269-7.265 10.907-8.304 12.493-16.607 24.986-24.903 37.485-.462.696-1.061 1.248-.41 2.321 8.016 13.237 15.969 26.513 23.942 39.777 1.258 2.095 2.53 4.182 4.157 6.192 1.612-32.193 3.223-64.387 4.834-96.58l-.355-.102zM16.252 66.22c.375.355 1.311.562 1.747.347 7.689-3.779 15.427-7.474 22.948-11.564 2.453-1.333 4.339-3.723 6.452-5.661 6.997-6.417 13.983-12.847 20.966-19.278.427-.395.933-.777 1.188-1.275 2.508-4.902 4.973-9.829 7.525-14.898-3.043-1.144-5.928-2.263-8.849-3.281-.396-.138-1.02.136-1.449.375-6.761 3.777-13.649 7.353-20.195 11.472-3.275 2.061-5.943 5.098-8.843 7.743-4.674 4.266-9.342 8.542-13.948 12.882-1.222 1.152-2.336 2.468-3.288 3.854-3.15 4.587-6.206 9.24-9.402 14.025 1.786 1.847 3.41 3.613 5.148 5.259zM44.354 59.949c-3.825 16.159-7.627 32.227-11.556 48.823 18.423-11.871 36.421-23.468 54.3-34.987-14.228-4.605-28.41-9.196-42.744-13.836zM120.985 25.103c-15.566 2.601-30.76 5.139-46.15 7.71 5.242 12.751 10.379 25.246 15.662 38.096 10.221-15.359 20.24-30.41 30.488-45.806zM44.996 56.644c14.017 4.55 27.755 9.01 41.892 13.6-5.25-12.79-10.32-25.133-15.495-37.737-8.815 8.059-17.498 15.999-26.397 24.137zM16.831 75.643c-4.971 11.883-9.773 23.362-14.662 35.048 9.396-.278 18.504-.547 27.925-.825-4.423-11.412-8.759-22.6-13.263-34.223zM30.424 101.739l.346-.076c3.353-13.941 6.754-27.786 10.177-42.272-7.636 3.969-14.92 7.754-22.403 11.644 3.819 9.926 7.891 20.397 11.88 30.704zM115.351 22.842c-4.459-1.181-8.918-2.366-13.379-3.539-6.412-1.686-12.829-3.351-19.237-5.052-.801-.213-1.38-.352-1.851.613-2.265 4.64-4.6 9.245-6.901 13.868-.071.143-.056.328-.111.687 13.886-2.104 27.679-4.195 41.47-6.285l.009-.292zM89.482 12.288l36.343 10.054c-2.084-5.939-4.017-11.446-6.005-17.11l-30.285 6.715-.053.341zM33.505 114.007c-4.501-.519-9.122-.042-13.687.037-3.75.063-7.5.206-11.25.323-.386.012-.771.09-1.156.506 31.003 2.866 62.005 5.732 93.007 8.6l.063-.414c-9.938-1.357-19.877-2.714-29.815-4.07-12.384-1.691-24.747-3.551-37.162-4.982zM2.782 99.994c3.995-9.27 7.973-18.546 11.984-27.809.401-.929.37-1.56-.415-2.308-1.678-1.597-3.237-3.318-5.071-5.226-2.479 12.24-4.897 24.177-7.317 36.113l.271.127c.185-.297.411-.578.548-.897zM81.522 9.841c6.737-1.738 13.572-3.097 20.367-4.613.44-.099.87-.244 1.303-.368l-.067-.332c-9.571 1.287-19.141 2.575-29.194 3.928 2.741 1.197 4.853 2.091 7.591 1.385z"></path>
    </symbol>

    <symbol id="icon-sass" viewBox="0 0 128 128">
        <path fill-rule="evenodd" clip-rule="evenodd" fill="#CB6699" d="M1.219 56.156c0 .703.207 1.167.323 1.618.756 2.933 2.381 5.45 4.309 7.746 2.746 3.272 6.109 5.906 9.554 8.383 2.988 2.148 6.037 4.248 9.037 6.38.515.366 1.002.787 1.561 1.236-.481.26-.881.489-1.297.7-3.959 2.008-7.768 4.259-11.279 6.986-2.116 1.644-4.162 3.391-5.607 5.674-2.325 3.672-3.148 7.584-1.415 11.761.506 1.22 1.278 2.274 2.367 3.053.353.252.749.502 1.162.6 1.058.249 2.136.412 3.207.609l3.033-.002c3.354-.299 6.407-1.448 9.166-3.352 4.312-2.976 7.217-6.966 8.466-12.087.908-3.722.945-7.448-.125-11.153-.099-.344-.224-.681-.354-1.014-.13-.333-.283-.657-.463-1.072l6.876-3.954.103.088c-.125.409-.258.817-.371 1.23-.817 2.984-1.36 6.02-1.165 9.117.208 3.3 1.129 6.389 3.061 9.146 1.562 2.23 5.284 2.313 6.944.075.589-.795 1.16-1.626 1.589-2.513 1.121-2.315 2.159-4.671 3.23-7.011l.187-.428c-.077 1.108-.167 2.081-.208 3.055-.064 1.521.025 3.033.545 4.48.445 1.238 1.202 2.163 2.62 2.326.97.111 1.743-.333 2.456-.896 1.114-.879 2.019-1.965 2.691-3.199 1.901-3.491 3.853-6.961 5.576-10.54 1.864-3.871 3.494-7.855 5.225-11.792l.286-.698c.409 1.607.694 3.181 1.219 4.671.61 1.729 1.365 3.417 2.187 5.058.389.775.344 1.278-.195 1.928-2.256 2.72-4.473 5.473-6.692 8.223-.491.607-.98 1.225-1.389 1.888-.247.403-.411.894-.48 1.364-.133.898.422 1.764 1.383 1.971.878.189 1.813.259 2.708.193 3.097-.228 5.909-1.315 8.395-3.157 3.221-2.386 4.255-5.642 3.475-9.501-.211-1.047-.584-2.065-.947-3.074-.163-.455-.174-.774.123-1.198 2.575-3.677 4.775-7.578 6.821-11.569.081-.157.164-.314.306-.482.663 3.45 1.661 6.775 3.449 9.792-.912.879-1.815 1.676-2.632 2.554-1.799 1.934-3.359 4.034-4.173 6.595-.35 1.104-.619 2.226-.463 3.405.242 1.831 1.742 3.021 3.543 2.604 3.854-.892 7.181-2.708 9.612-5.925 1.636-2.166 1.785-4.582 1.1-7.113-.188-.688-.411-1.365-.651-2.154.951-.295 1.878-.649 2.837-.868 4.979-1.136 9.904-.938 14.702.86 2.801 1.05 5.064 2.807 6.406 5.571 1.639 3.379.733 6.585-2.452 8.721-.297.199-.637.356-.883.605-.151.153-.242.459-.205.67.021.123.346.277.533.275 1.047-.008 1.896-.557 2.711-1.121 2.042-1.413 3.532-3.314 3.853-5.817l.063-.188-.077-1.63c-.031-.094.023-.187.016-.258-.434-3.645-2.381-6.472-5.213-8.688-3.28-2.565-7.153-3.621-11.249-3.788-3.338-.136-6.619.36-9.765 1.503-.897.325-1.786.71-2.688 1.073-.121-.219-.251-.429-.358-.646-.926-1.896-2.048-3.708-2.296-5.882-.176-1.544-.392-3.086-.025-4.613.353-1.469.813-2.913 1.246-4.362.223-.746.066-1.164-.646-1.5-.248-.117-.518-.219-.786-.258-1.75-.254-3.476-.109-5.171.384-.6.175-1.036.511-1.169 1.175-.076.381-.231.746-.339 1.122-.443 1.563-.757 3.156-1.473 4.645-1.794 3.735-3.842 7.329-5.938 10.897-.227.385-.466.763-.752 1.23-.736-1.54-1.521-2.922-1.759-4.542-.269-1.832-.481-3.661-.025-5.479.339-1.356.782-2.687 1.19-4.025.193-.636.104-.97-.472-1.305-.291-.169-.62-.319-.948-.368-1.815-.269-3.603-.128-5.354.438-.543.176-.828.527-.994 1.087-.488 1.652-.904 3.344-1.589 4.915-2.774 6.36-5.628 12.687-8.479 19.013-.595 1.321-1.292 2.596-1.963 3.882-.17.326-.418.613-.63.919-.17-.201-.236-.339-.235-.477.005-.813-.092-1.65.063-2.436.469-2.378 1.009-4.743 1.578-7.099.47-1.946 1.017-3.874 1.538-5.807.175-.647.178-1.252-.287-1.796-.781-.911-2.413-1.111-3.381-.409l-.428.242.083-.69c.204-1.479.245-2.953-.161-4.41-.506-1.816-1.802-2.861-3.686-2.803-.878.027-1.8.177-2.613.497-3.419 1.34-6.048 3.713-8.286 6.568-.203.259-.471.495-.757.654-2.893 1.604-5.795 3.188-8.696 4.778l-3.229 1.769c-.866-.826-1.653-1.683-2.546-2.41-2.727-2.224-5.498-4.393-8.244-6.592-2.434-1.949-4.792-3.979-6.596-6.56-1.342-1.92-2.207-4.021-2.29-6.395-.105-3.025.753-5.789 2.293-8.362 1.97-3.292 4.657-5.934 7.611-8.327 3.125-2.53 6.505-4.678 10.008-6.639 4.901-2.743 9.942-5.171 15.347-6.774 5.542-1.644 11.165-2.585 16.965-1.929 2.28.258 4.494.78 6.527 1.895 1.557.853 2.834 1.97 3.428 3.716.586 1.718.568 3.459.162 5.204-.825 3.534-2.76 6.447-5.195 9.05-3.994 4.267-8.866 7.172-14.351 9.091-3.165 1.107-6.421 1.802-9.765 2.083-2.729.229-5.401-.013-7.985-.962-1.711-.629-3.201-1.591-4.399-2.987-.214-.25-.488-.521-.887-.287-.391.23-.46.602-.329.979.219.626.421 1.278.762 1.838.857 1.405 2.107 2.424 3.483 3.298 2.643 1.681 5.597 2.246 8.66 2.377 4.648.201 9.183-.493 13.654-1.74 6.383-1.78 11.933-4.924 16.384-9.884 3.706-4.13 6.353-8.791 6.92-14.419.277-2.747-.018-5.438-1.304-7.944-1.395-2.715-3.613-4.734-6.265-6.125-3.862-2.025-8.03-3.204-12.332-3.204h-4.31c-5.21 0-10.247 1.493-15.143 3.274-3.706 1.349-7.34 2.941-10.868 4.703-7.683 3.839-14.838 8.468-20.715 14.833-2.928 3.171-5.407 6.67-6.833 10.79-.417 1.206-.813 2.499-1.111 3.746m27.839 36.013c-.333 4.459-2.354 8.074-5.657 11.002-1.858 1.646-3.989 2.818-6.471 3.23-.9.149-1.821.185-2.694-.188-1.245-.532-1.524-1.637-1.548-2.814-.037-1.876.62-3.572 1.521-5.186 1.176-2.104 2.9-3.708 4.741-5.206 2.9-2.361 6.046-4.359 9.268-6.245l.243-.1c.498 1.84.735 3.657.597 5.507zm25.158-19.379c-.235 1.424-.529 2.849-.945 4.229-1.438 4.777-3.285 9.406-5.282 13.973-.369.845-.906 1.616-1.373 2.417-.072.124-.179.231-.283.334-.578.571-1.126.541-1.418-.206-.34-.868-.549-1.797-.729-2.716-.121-.617-.092-1.265-.13-1.897.039-4.494 1.41-8.578 3.736-12.38.959-1.568 2.003-3.062 3.598-4.054.49-.305 1.04-.55 1.595-.706.85-.239 1.372.154 1.231 1.006zm17.164 21.868l6.169-7.203c.257 2.675-4.29 8.015-6.169 7.203zm19.703-4.847c-.436.25-.911.43-1.358.661-.409.212-.544-.002-.556-.354-.008-.239.027-.489.093-.721.833-2.938 2.366-5.446 4.647-7.486l.16-.082c1.085 3.035-.169 6.368-2.986 7.982z"></path>
    </symbol>

    <symbol id="icon-travis" viewBox="0 0 128 128">
        <path fill="#BB2031" d="M40 34h18v61h-8v11h28v-12h-7v-61h19v9h10v-18h-71v18h11zM122.2 3h-116.169c-2.026 0-4.031 1.226-4.031 3.225v116.154c0 2 2.005 3.621 4.031 3.621h116.169c2.026 0 2.8-1.621 2.8-3.621v-116.154c0-1.999-.774-3.225-2.8-3.225zm-16.2 45h-21v-9h-9v48h9v24h-40v-23h6v-48h-6v8h-23v-30h84v30z"></path>
    </symbol>

    <symbol id="icon-twitter" viewBox="-16 -40 212 212">
        <defs id="defs6">
            <clipPath id="clipPath20" clipPathUnits="userSpaceOnUse">
                <path id="path18" d="m0 10.012h1366.9v1110.9h-1366.9z"/>
            </clipPath>
        </defs>

        <g id="g10" transform="matrix(1.3333 0 0 -1.3333 0 150.67)">
            <g id="g12" transform="scale(.1)">
                <g id="g14">
                    <g id="g16" clip-path="url(#clipPath20)">
                        <path id="path22" d="m1366.9 989.39c-50.27-22.309-104.33-37.387-161.05-44.18 57.89 34.723 102.34 89.679 123.28 155.15-54.18-32.15-114.18-55.47-178.09-68.04-51.13 54.49-124.02 88.55-204.68 88.55-154.89 0-280.43-125.55-280.43-280.43 0-21.988 2.457-43.398 7.258-63.91-233.08 11.68-439.72 123.36-578.04 293.01-24.141-41.4-37.969-89.567-37.969-140.97 0-97.308 49.489-183.13 124.76-233.44-45.969 1.437-89.218 14.058-127.03 35.078-0.043-1.18-0.043-2.348-0.043-3.52 0-135.9 96.68-249.22 224.96-275-23.512-6.41-48.281-9.8-73.86-9.8-18.089 0-35.628 1.711-52.781 5 35.711-111.41 139.26-192.5 262-194.77-96.058-75.23-216.96-120.04-348.36-120.04-22.621 0-44.961 1.332-66.918 3.91 124.16-79.568 271.55-125.98 429.94-125.98 515.82 0 797.86 427.31 797.86 797.93 0 12.153-0.28 24.223-0.79 36.25 54.77 39.571 102.31 88.95 139.93 145.2"/>
                    </g>
                </g>
            </g>
        </g>
    </symbol>

    <symbol id="icon-wildlyinaccurate" viewBox="0 0 100 100">
        <path d="m 80.90625,9.40625 c -3.64841,0.045172 -7.071232,1.286327 -9.21875,3.4375 -2.599875,2.604294 -3.662776,5.880358 -3.875,11.96875 -0.166006,4.762383 0.07267,5.876596 2.53125,12.84375 2.400067,6.801362 1.979096,9.139773 -3.1875,12.125 l -3.71875,-2.25 -2.8125,4.625 -5.53125,-3.3125 L 51.75,54.4375 48,52.15625 45.625,56.125 42.5,54.25 40.84375,57 c -0.07541,0.01287 -0.143996,0.04972 -0.21875,0.0625 L 38.9375,56.03125 38.0625,57.5 c -8.482332,1.487738 -12.198203,2.352485 -14.96875,3.46875 -3.522334,1.419157 -8.429882,2.079843 -11.4375,4.5 C 8.4231642,68.070332 5,71.158939 5,71.5 5,71.675471 5.1742605,71.661293 5.40625,71.46875 5.6228774,71.288964 7.4586394,70.330592 9.5,69.3125 c 10.412066,-5.192824 18.996055,-3.59403 26.9375,0.03125 0.934068,0.426401 2.07772,1.02081 2.53125,1.34375 l 0.8125,0.59375 L 39.25,69.5 C 38.824991,68.110376 38.511985,66.578687 38.46875,65.78125 L 39,66.09375 c 0.08939,0.279445 0.169837,0.596446 0.25,0.9375 0.210412,0.895198 1.182734,3.827291 2.1875,6.53125 1.201171,3.23251 1.75792,5.159206 1.625,5.59375 -0.111187,0.363494 -0.832529,1.477514 -1.59375,2.5 -1.34761,1.810133 -1.361743,1.908616 -1.21875,3.71875 0.193503,2.449583 0.981062,4.316992 2,4.78125 0.843719,0.384427 6.410392,0.502423 7.3125,0.15625 0.753411,-0.289113 0.654039,-0.726418 -0.5625,-2.4375 -0.596448,-0.838918 -1.09411,-1.660728 -1.09375,-1.84375 3.52e-4,-0.183021 0.819948,-1.591273 1.84375,-3.125 1.023803,-1.533729 2.180328,-3.567466 2.53125,-4.5 1.28021,-3.401991 0.588473,-7.623934 -1.75,-10.6875 -1.128435,-1.478332 -1.043197,-1.767229 0.25,-0.75 1.072946,0.843981 2.612542,3.962911 3.0625,6.25 l 0.34375,1.875 3.125,-0.15625 c 3.558608,-0.171359 3.091026,0.235623 -0.65625,0.5625 l -2.5,0.1875 -0.8125,2.125 c -0.457608,1.166374 -1.535566,3.259564 -2.375,4.65625 C 50.129316,83.86544 48.5,85.759014 48.5,85.875 c 0,0.276812 1.684078,2.068429 2.375,3.03125 0.467705,0.651766 1.650861,1.110733 3.5625,1.21875 2.466305,0.139358 2.448034,0.249944 0.6875,-2.0625 -0.561342,-0.737311 -1.03125,-1.676985 -1.03125,-2.09375 0,-0.416766 0.5663,-1.858937 1.25,-3.21875 0.683701,-1.359814 1.444994,-3.335468 1.6875,-4.375 0.24251,-1.039539 0.477575,-1.921071 0.53125,-1.96875 0.05367,-0.04768 1.117208,-0.31793 2.34375,-0.59375 4.297998,-0.966504 4.25,-0.981761 4.25,4.21875 0,3.451343 0.125899,4.515319 0.75,6.59375 0.409369,1.363313 0.993169,2.721964 1.28125,3.03125 0.619179,0.664748 2.995486,1.040393 5.875,0.90625 2.498511,-0.116395 2.896644,-0.434497 1.78125,-1.46875 -0.463484,-0.429766 -1.142424,-1.361593 -1.5,-2.0625 -0.563563,-1.104671 -0.605108,-1.606809 -0.4375,-3.78125 0.444971,-5.77282 0.536587,-8.370327 0.34375,-9.65625 l -0.21875,-1.375 -1.15625,0.59375 c -1.243427,0.634351 -3.73499,1.390011 -3.9375,1.1875 -0.06907,-0.06907 0.818447,-0.505183 2,-0.96875 3.069013,-1.204084 3.201205,-1.411967 1.625,-3.28125 -0.715546,-0.848598 -1.192269,-1.5625 -1.03125,-1.5625 0.550528,0 3.940022,3.873417 4.53125,5.1875 0.566661,1.259484 0.886103,1.384134 0.90625,3.9375 0.03024,3.831358 0.294324,7.048871 1,7.6875 1.22516,1.108755 7.344868,2.317886 7.625,1.71875 C 84.011157,85.826025 83.901345,84.960931 83.5625,83.6875 82.984967,81.516963 83.272413,81.655329 82.84375,77 c 0,0 0.03782,-3.067471 -0.4375,-4.96875 l -1.84375,-3.375 C 79.310397,66.355804 78.136042,64.700127 76.875,63.4375 l -1.84375,-1.84375 1.25,0.65625 c 1.202142,0.613287 3.100178,2.445838 3.78125,3.65625 0.308647,0.548537 0.406666,0.528789 1.40625,-0.4375 C 82.750585,64.22962 84.025925,61.710542 84.5,59.5 c 0.204767,-0.954803 0.276239,-3.164997 0.1875,-5.375 -0.24631,-6.134369 -1.915634,-10.739032 -6.625,-18.1875 -3.174758,-5.021288 -4.20985,-7.95869 -4.21875,-11.90625 -0.01264,-5.609601 2.471996,-8.494277 7.28125,-8.5 1.866376,-0.0022 2.868835,0.383233 4.3125,1.6875 0.67875,0.61321 1.656993,1.156396 2.34375,1.28125 0.649218,0.118029 1.796994,0.534658 2.5625,0.9375 0.76551,0.402843 1.771734,0.71875 2.21875,0.71875 C 93.570721,20.15625 95,19.076892 95,18.3125 95,17.434957 92.885548,12.672077 92.125,11.84375 91.211417,10.848745 89.940868,10.35817 87.71875,10.125 86.696265,10.01771 84.76625,9.7495373 83.4375,9.5625 82.582506,9.4421473 81.748193,9.3958269 80.90625,9.40625 z m 9.375,3.625 c 0.806738,0 1.3125,0.621248 1.3125,1.625 0,0.873055 -0.01047,0.885575 -0.9375,0.40625 -0.652854,-0.337604 -0.9375,-0.711545 -0.9375,-1.25 0,-0.531697 0.175707,-0.78125 0.5625,-0.78125 z"/>
    </symbol>
</svg>
