<svg xmlns="http://www.w3.org/2000/svg" style="display:none;">
    <!-- Icons from http://devicon.fr/ unless otherwise stated -->

    <symbol id="icon-aws" viewBox="0 0 128 128">
        <path fill="#F7A80D" d="M38.089 77.466l-11.4 4.896 10.559 4.514 12.241-4.514-11.4-4.896zm-17.138 6.12l-.382 22.034 16.679 7.345v-22.876l-16.297-6.503zm34.276 0l-15.073 5.739v21.575l15.073-6.121v-21.193zM73.206 15.035l-11.476 4.896 10.635 4.515 12.241-4.515-11.4-4.896zm-15.914 6.503v22.034l14.231 4.132.459-20.046-14.69-6.12zm31.828 1.224l-13.466 5.738v21.652l13.466-6.121v-21.269zM19.306 46.047l-11.399 4.897 10.558 4.514 12.241-4.514-11.4-4.897zm-17.138 6.121l-.382 22.034 16.679 7.345v-22.876l-16.297-6.503zm34.275 0l-15.071 5.738v21.574l15.071-6.12v-21.192zM56.03 45.231l-11.4 4.897 10.558 4.514 12.241-4.514-11.399-4.897zm-17.137 6.121l-.383 22.035 16.679 7.345v-22.877l-16.296-6.503zm34.275 0l-15.072 5.738v21.576l15.072-6.121v-21.193zM109.076 15.035l-11.399 4.896 10.559 4.515 12.241-4.515-11.401-4.896zm-17.137 6.121l-.382 22.034 16.679 7.344v-22.876l-16.297-6.502zm34.275 0l-15.071 5.738v21.575l15.071-6.12v-21.193z"></path>
    </symbol>

    <symbol id="icon-apache" viewBox="0 0 128 128">
        <path fill="#303284" d="M127.6 75.9l-.3-.5-.2-.1v-.4l-.1-.4-.2-.3-.4-.2h-.1l-.1-.2-.3-.2-.3-.2-.4-.1h-.2l-.4-.4-.5-.3-.6-.3-.6-.2h-.2l-.5-.6-.6-.4-.6-.3-.6-.2h-.1l-.6-.4-.8-.3-.5-.1-.5-.4-.5-.2-.5-.1-.5-.1h-.5l-.6.1h-.1l-.4-.6-.6-.4-.8-.2h-.9l-1 .2-.4.1-.8-.3-.8-.2h-2.6000000000000005l-1-.4-.9-.3-.9-.1h-.6l-.8-.8-.9-.6-.8-.4-.8-.2h-.8l-.4.3-.5-.4-.6-.3-.7-.1-.6.1-.7-.3-.7-.2h-1l-1.1-.4-1.2-.3-1.1-.1h-.2l-1.2-.7-1.2-.3h-1.1.1l-1.7-.4-1.1-.1h-.5l-.7-.7-.8-.5-.9-.2-.9.1-.6.2-.8-.1h-1.8000000000000003v-.2l-1.4-.3-1.4-.2-1.3-.1-.5.1v-.1l-1-.1-1-.1h-.1l-1.1-.5-1.1-.3-1-.1h-.8l-1.1-.4-.9-.2h-1l-1.1-.8-.9-.3-.7-.1-.8-.4-1.2-.2h-1.1l-1.1-.5-1-.2h-.6l-1.2-.6-1-.3-1-.1-.3.1h.1l-1.4-.8-1.1-.4-1-.1h-.1l-.7-.5-.6-.3-.6-.2-.7-.1-.7.1-.8-.6-.7-.3-.9-.1h-.8l-.9.2-.2.1-1-.5-1-.3h-.9l-.8-.5-.7-.3h-.8l-.7.1-.7.2h-.1l-.7-.7-.6-.4-.7-.1-.7.1-.6.3-.2-.1-.3-.2-.3-.1-.3-.1h-.7l-.3.1-.5.3-.1.1-.9-.2h-.8l-.7.2-.6.5-.4.5-.3.7-.3.8-.2.8-.1.8-.1 1.6.1 1.8v.3c-.5-.2-1-.4-1.6-.6v-.4l.1-.6.1-1.3.1-1.2-.1-1.2-.1-.6-.1-.5-.1-.5-.2-.5-.2-.4-.3-.4-.3-.4-.6-.5.2.9.1.6.1.6.1.5.1.6.1.5v.1-.1l-.1-.3-.1-.3-.2-.6-.3-1-.1-.3-.2-1.3v-.4l.1-.7.1-.3.2-.7h-.2l-.5.6-.3.7-.3.7-.1.6v1.4l.1.7.1.7-.1-.1-.3-.4-.3-.4-.2-.5-.2-.5-.2-.5-.1-.7-.1-1-.7.6-.3.6-.2.6v.6l.1.6.2.6.3.6.1.2-.2.2-.6-.1-.1.2.4.2.4.3 1 .8.3.3.5.6.5.5.5.5.4.4.3.4.2.2c-5.7-2.3-11.7-5-19.1-8.5l-.4-.2.2.4c1 1.7 3.9 3.4 6.4 5 1.2.7 2.3 1.4 3.1 2 2.4 1.3 5.6 2.7 8.4 3.8h-.2l-2 .4-1.4.3-1.4.5-.7.3-.7.2-.6.4-.5.4-.5.5-.4.5-.3.6-.2.7.2.1.2-.2.5-.5.2-.2.6-.4.3-.2.3-.2.6-.3.4-.1.3-.1.7-.2.7-.1.6-.2 1.3-.7.6-.4.6-.4.5-.3.4-.2.3-.1.6.2-2.4 1.2-1.3.8-.7.5-.6.5-.6.5-.5.6-.3.5-.2.6-.1.6.1.7.4.9.5-1 .4-.6.4-.5.4-.4.4-.3.9-.6.4-.2-.1.4-.2.8v.9l.1 1 .3 1.1h.2l.2-1.1.3-1 .2-.5.4-.9.5-.9.8-1.4 1.1-1.8c.4.2.8.3 1.2.4l-.1.2-.7 1.4-.4.6-.3.7-.1.7-.2.7-.1.7v.7l.1.6.3.6.5.5.7.4.8.3.3.6.4.5.4.4.4.3.4.2.4.1h1v.1l.4.6.6.5.7.3h.8l.8-.2.2.2.6.6.6.4.7.3.8.1h.6l.6.4.7.3.8.2.6.5.8.4 1 .2 1.1.1h.2l.7.6.8.4.7.3.8.1.9-.2.4.2.6.3.6.1h.6l.6-.1.3.2 1 .3 1.1.1 1.3-.1.4.2.9.3 1 .1 1.4-.1h.1l.9.3 1 .1 1.1-.1.4.3 1 .4 1 .1 1.1-.1v-.1l.6.2h1l1.1-.2.7.2h.8l.8-.1 1.1.2.3.2 1 .3 1 .2 1.1.1 1.1-.1v-.1l.6.2.9.1.9.1v-.1l.6.2 1.2.4 1.3.3 1.4-.3v-.1h.2l.9.2.8.1h.9l.1.1.8.6.8.4h1.3l.8-.4.7-.6.9.1 1.1-.1h1.2v.1l.3.2 1.1.2 1.1-.1 1.1-.5h1l1.2.1 1-.1.6.1h1.4l.9-.1.5.2.6.1.6-.1.6-.3.1.1.8.1h2.5l.8-.3 1.1-.4h1.6l.8-.1.5.2.8.2.8.1.8-.1.9-.2.2.1.9.4.8.3h.8l.6-.3.5-.5.3.1.5.1.5.1h.5l.5-.1.5-.2.7.1.8-.1.7-.3h.7l.6-.1.6-.3.5-.4.1-.1.6.1.6-.1.5.1h.8999999999999999l.4-.3.3-.2.1-.2h.1l.3-.1.3-.2.2-.5.1-.6h.2l.3-.1.1-.3.1.1v-.7zm-107-16.3l.2-.5.3.1-.2.2-.3.2zm.6-6.8l.1.5.1.5.1.5.3 1.6.2.7-.4-.2h.1l-.2-.1-.5-.4v-2.4l.1-.8.1.1z"></path>
    </symbol>

    <symbol id="icon-css" viewBox="0 0 128 128">
        <path fill="#1572B6" d="M8.76 1l10.055 112.883 45.118 12.58 45.244-12.626 10.063-112.837h-110.48zm89.591 25.862l-3.347 37.605.01.203-.014.467v-.004l-2.378 26.294-.262 2.336-28.36 7.844v.001l-.022.019-28.311-7.888-1.917-21.739h13.883l.985 11.054 15.386 4.17-.004.008v-.002l15.443-4.229 1.632-18.001h-32.282999999999994l-.277-3.043-.631-7.129-.331-3.828h34.748999999999995l1.264-14h-52.926l-.277-3.041-.63-7.131-.332-3.828h69.281l-.331 3.862z"></path>
    </symbol>

    <symbol id="icon-docker" viewBox="0 0 128 128">
        <path fill="#019BC6" d="M124.8 52.1c-4.3-2.5-10-2.8-14.8-1.4-.6-5.2-4-9.7-8-12.9l-1.6-1.3-1.4 1.6c-2.7 3.1-3.5 8.3-3.1 12.3.3 2.9 1.2 5.9 3 8.3-1.4.8-2.9 1.9-4.3 2.4-2.8 1-5.9 2-8.9 2h-6.7v-14.1h-13v-25h-15v12h-25v13h-13v14h-11.2l-.2 1.5c-.5 6.4.3 12.6 3 18.5l1.1 2.2.1.2c7.9 13.4 21.7 19 36.8 19 29.2 0 53.3-13.1 64.3-40.6 7.4.4 15-1.8 18.6-8.9l.9-1.8-1.6-1zm-96.8-13.1h10v11h-10v-11zm13.1 44.2c0 1.7-1.4 3.1-3.1 3.1-1.7 0-3.1-1.4-3.1-3.1 0-1.7 1.4-3.1 3.1-3.1 1.7.1 3.1 1.4 3.1 3.1zm-13.1-31.2h10v11h-10v-11zm-13 0h11v11h-11v-11zm27.7 50.2c-15.8-.1-24.3-5.4-31.3-12.4 2.1.1 4.1.2 5.9.2 1.6 0 3.2 0 4.7-.1 3.9-.2 7.3-.7 10.1-1.5 2.3 5.3 6.5 10.2 14 13.8h-3.4zm8.3-39.2h-11v-11h11v11zm0-13h-11v-11h11v11zm13 13h-11v-11h11v11zm0-13h-11v-11h11v11zm0-13h-11v-11h11v11zm13 26h-11v-11h11v11zM38.8 81.2c-.2-.1-.5-.2-.8-.2-1.2 0-2.2 1-2.2 2.2 0 1.2 1 2.2 2.2 2.2s2.2-1 2.2-2.2c0-.3-.1-.6-.2-.8-.2.3-.4.5-.8.5-.5 0-.9-.4-.9-.9.1-.4.3-.7.5-.8z"></path>
    </symbol>

    <!-- Taken from https://github.com/evancz/elm-svg/blob/master/examples/Logo.elm -->
    <symbol id="icon-elm" viewBox="-16 -16 360 360">
        <polygon fill="#F0AD00" points="161.649,152.782 231.514,82.916 91.783,82.916"></polygon><polygon fill="#7FD13B" points="8.867,0 79.241,70.375 232.213,70.375 161.838,0"></polygon><rect fill="#7FD13B" x="192.99" y="107.392" width="107.676" height="108.167" transform="matrix(0.7071 0.7071 -0.7071 0.7071 186.4727 -127.2386)"></rect><polygon fill="#60B5CC" points="323.298,143.724 323.298,0 179.573,0"></polygon><polygon fill="#5A6378" points="152.781,161.649 0,8.868 0,314.432"></polygon><polygon fill="#F0AD00" points="255.522,246.655 323.298,314.432 323.298,178.879"></polygon><polygon fill="#60B5CC" points="161.649,170.517 8.869,323.298 314.43,323.298"></polygon>
    </symbol>

    <symbol id="icon-git" viewBox="0 0 128 128">
        <path fill="#F34F29" d="M124.737 58.378l-55.116-55.114c-3.172-3.174-8.32-3.174-11.497 0l-11.444 11.446 14.518 14.518c3.375-1.139 7.243-.375 9.932 2.314 2.703 2.706 3.461 6.607 2.294 9.993l13.992 13.993c3.385-1.167 7.292-.413 9.994 2.295 3.78 3.777 3.78 9.9 0 13.679-3.78 3.78-9.901 3.78-13.683 0-2.842-2.844-3.545-7.019-2.105-10.521l-13.048-13.048-.002 34.341c.922.455 1.791 1.063 2.559 1.828 3.778 3.777 3.778 9.898 0 13.683-3.779 3.777-9.904 3.777-13.679 0-3.778-3.784-3.778-9.905 0-13.683.934-.933 2.014-1.638 3.167-2.11v-34.659c-1.153-.472-2.231-1.172-3.167-2.111-2.862-2.86-3.551-7.06-2.083-10.576l-14.313-14.313-37.792 37.79c-3.175 3.177-3.175 8.325 0 11.5l55.117 55.114c3.174 3.174 8.32 3.174 11.499 0l54.858-54.858c3.174-3.176 3.174-8.327-.001-11.501z"></path>
    </symbol>

    <symbol id="icon-github" viewBox="0 0 128 128">
        <path fill-rule="evenodd" clip-rule="evenodd" d="M64 5.103c-33.347 0-60.388 27.035-60.388 60.388 0 26.682 17.303 49.317 41.297 57.303 3.017.56 4.125-1.31 4.125-2.905 0-1.44-.056-6.197-.082-11.243-16.8 3.653-20.345-7.125-20.345-7.125-2.747-6.98-6.705-8.836-6.705-8.836-5.48-3.748.413-3.67.413-3.67 6.063.425 9.257 6.223 9.257 6.223 5.386 9.23 14.127 6.562 17.573 5.02.542-3.903 2.107-6.568 3.834-8.076-13.413-1.525-27.514-6.704-27.514-29.843 0-6.593 2.36-11.98 6.223-16.21-.628-1.52-2.695-7.662.584-15.98 0 0 5.07-1.623 16.61 6.19C53.7 35 58.867 34.327 64 34.304c5.13.023 10.3.694 15.127 2.033 11.526-7.813 16.59-6.19 16.59-6.19 3.287 8.317 1.22 14.46.593 15.98 3.872 4.23 6.215 9.617 6.215 16.21 0 23.194-14.127 28.3-27.574 29.796 2.167 1.874 4.097 5.55 4.097 11.183 0 8.08-.07 14.583-.07 16.572 0 1.607 1.088 3.49 4.148 2.897 23.98-7.994 41.263-30.622 41.263-57.294C124.388 32.14 97.35 5.104 64 5.104z"></path><path d="M26.484 91.806c-.133.3-.605.39-1.035.185-.44-.196-.685-.605-.543-.906.13-.31.603-.395 1.04-.188.44.197.69.61.537.91zm-.743-.55M28.93 94.535c-.287.267-.85.143-1.232-.28-.396-.42-.47-.983-.177-1.254.298-.266.844-.14 1.24.28.394.426.472.984.17 1.255zm-.575-.618M31.312 98.012c-.37.258-.976.017-1.35-.52-.37-.538-.37-1.183.01-1.44.373-.258.97-.025 1.35.507.368.545.368 1.19-.01 1.452zm0 0M34.573 101.373c-.33.365-1.036.267-1.552-.23-.527-.487-.674-1.18-.343-1.544.336-.366 1.045-.264 1.564.23.527.486.686 1.18.333 1.543zm0 0M39.073 103.324c-.147.473-.825.688-1.51.486-.683-.207-1.13-.76-.99-1.238.14-.477.823-.7 1.512-.485.683.206 1.13.756.988 1.237zm0 0M44.016 103.685c.017.498-.563.91-1.28.92-.723.017-1.308-.387-1.315-.877 0-.503.568-.91 1.29-.924.717-.013 1.306.387 1.306.88zm0 0M48.614 102.903c.086.485-.413.984-1.126 1.117-.7.13-1.35-.172-1.44-.653-.086-.498.422-.997 1.122-1.126.714-.123 1.354.17 1.444.663zm0 0"></path>
    </symbol>

    <!-- Taken from https://upload.wikimedia.org/wikipedia/commons/1/1c/Haskell-Logo.svg -->
    <symbol id="icon-haskell" viewBox="0 -70 480 480">
        <defs>
            <clipPath id="clip1">
                <path d="M 0 340.15625 L 481.890625 340.15625 L 481.890625 0 L 0 0 L 0 340.15625 Z M 0 340.15625 "/>
            </clipPath>
        </defs>
        <g id="surface0">
            <g clip-path="url(#clip1)" clip-rule="nonzero">
                <path style=" stroke:none;fill-rule: nonzero; fill: rgb(40%,40%,40%); fill-opacity: 1;" d="M 0 340.15625 L 113.386719 170.078125 L 0 0 L 85.039062 0 L 198.425781 170.078125 L 85.039062 340.15625 L 0 340.15625 Z M 0 340.15625 "/>
                <path style=" stroke:none;fill-rule: nonzero; fill: rgb(60%,60%,60%); fill-opacity: 1;" d="M 113.386719 340.15625 L 226.773438 170.078125 L 113.386719 0 L 198.425781 0 L 425.195312 340.15625 L 340.15625 340.15625 L 269.292969 233.859375 L 198.425781 340.15625 L 113.386719 340.15625 Z M 113.386719 340.15625 "/>
                <path style=" stroke:none;fill-rule: nonzero; fill: rgb(40%,40%,40%); fill-opacity: 1;" d="M 387.402344 240.945312 L 349.609375 184.253906 L 481.890625 184.25 L 481.890625 240.945312 L 387.402344 240.945312 Z M 387.402344 240.945312 "/>
                <path style=" stroke:none;fill-rule: nonzero; fill: rgb(40%,40%,40%); fill-opacity: 1;" d="M 330.710938 155.90625 L 292.914062 99.214844 L 481.890625 99.210938 L 481.890625 155.90625 L 330.710938 155.90625 Z M 330.710938 155.90625 "/>
            </g>
        </g>
    </symbol>

    <symbol id="icon-html" viewBox="0 0 128 128">
        <path fill="#E44D26" d="M9.032 2l10.005 112.093 44.896 12.401 45.02-12.387 10.015-112.107h-109.936zm89.126 26.539l-.627 7.172-.276 3.289h-52.665000000000006l1.257 14h50.156000000000006l-.336 3.471-3.233 36.119-.238 2.27-28.196 7.749v.002l-.034.018-28.177-7.423-1.913-21.206h13.815000000000001l.979 10.919 15.287 4.081h.043v-.546l15.355-3.875 1.604-17.579h-47.698l-3.383-38.117-.329-3.883h68.939l-.33 3.539z"></path>
    </symbol>

    <symbol id="icon-jenkins" viewBox="0 0 180 180">
        <g transform="matrix(1.25 0 0 -1.25 0 180)">
            <path d="M107.965 30.661l-12.507-1.876-16.883-1.876-10.943-.312-10.629.312-8.13 2.502-7.19 7.816-5.628 15.944-1.25 3.44-7.503 2.5-4.378 7.191-3.126 10.318 3.44 9.067 8.128 2.813 6.565-3.127 3.127-6.878 3.752.626 1.25 1.563-1.25 7.19-.313 9.068 1.876 12.505-.074 7.143L52 125.704l10.005 7.191 17.508 7.504 19.384-2.814 16.882-12.193 7.817-12.506 5.002-9.067 1.25-22.51-3.751-19.384-6.878-17.195-6.566-9.067" fill="#f0d6b7" fill-rule="evenodd"/>
            <path d="M97.334-23.425l-44.708-1.876v-7.504l3.751-26.262-1.876-2.189-31.263 10.63-2.19 3.752-3.126 35.328-7.19 21.26-1.563 5.002 25.01 17.195 7.817 3.127 6.878-8.44 5.94-5.316 6.879-2.188 3.126-.938L68.57 1.899l2.814-3.44L78.575.961l-5.002-9.693 27.2-12.818-3.439-1.875" fill="#335061" fill-rule="evenodd"/>
            <path d="M23.238 85.687l8.128 2.813 6.565-3.127 3.127-6.878 3.752.626.938 3.752-1.876 7.19 1.876 17.196-1.564 9.38 5.628 6.565 12.193 9.691-3.44 4.69-17.195-8.441-7.19-5.628-4.065-8.754-6.253-8.441-1.876-10.005 1.252-10.63" fill="#6d6b6d" fill-rule="evenodd"/>
            <path d="M36.055 115.075s4.69 11.567 23.449 17.195c18.758 5.627.938 4.065.938 4.065l-20.322-7.817-7.816-7.816-3.439-6.253 7.19.626M26.676 87.875s-6.565 21.885 18.446 25.011l-.938 3.752-17.195-4.065-5.003-16.257 1.252-10.63 3.438 2.189" fill="#dcd9d8" fill-rule="evenodd"/>
            <path d="M36.68 58.799l4.094 3.966s1.848-.214 2.16-2.402c.312-2.19 1.25-21.886 14.694-32.517 1.226-.97-10.004 1.565-10.004 1.565L37.619 45.042M94.209 64.739s.729 9.477 3.28 8.748c2.553-.729 2.553-3.28 2.553-3.28s-6.198-4.01-5.833-5.468" fill="#f7e4cd" fill-rule="evenodd"/>
            <path d="M120.157 99.442s-5.153-1.088-5.628-5.627c-.474-4.54 5.628-.938 6.566-.626M82.327 99.129s-6.879-.938-6.879-5.314c0-4.378 7.817-4.065 10.005-2.19" fill="#f7e4cd"/>
            <path d="M39.807 78.808s-11.88 7.19-13.13.312c-1.251-6.878-4.066-11.88 1.875-19.07l-4.064 1.25-3.752 9.691-1.25 9.38 7.19 7.504 8.129-.626 4.69-3.752.312-4.69M45.435 98.504s5.315 27.512 32.202 32.828c22.137 4.375 33.765-.938 38.142-5.94 0 0-19.696 23.447-38.455 16.257-18.758-7.191-32.514-20.322-32.202-28.763.533-14.376.313-14.382.313-14.382M117.969 122.266s-9.066.312-9.38-7.817c0 0 0-1.25.625-2.5 0 0 7.192 8.129 11.568 3.751" fill="#f7e4cd" fill-rule="evenodd"/>
            <path d="M78.268 111.102s-1.561 12.477-12.199 5.223c-6.878-4.69-6.252-11.255-5.002-12.506 1.25-1.25.91-3.769 1.862-2.04.952 1.728.638 7.356 4.078 8.918 3.44 1.564 9.077 3.31 11.26.405" fill="#f7e4cd" fill-rule="evenodd"/>
            <path d="M48.874 26.597l-29.388-13.13s12.193-48.46 5.94-63.468l-4.377 1.563-.313 18.446-8.128 35.016-3.44 9.692 30.64 20.634 9.066-8.753M51.896-.206l4.17-5.087v-18.759h-5.004s-.624 13.131-.624 14.695c0 1.563.624 7.19.624 7.19M52-26.866l-14.069-.624 4.065-2.814L52-31.867" fill="#49728b" fill-rule="evenodd"/>
            <path d="M100.148-23.739l11.567.313 2.814-28.764-11.88-1.562-2.501 30.013" fill="#335061" fill-rule="evenodd"/>
            <path d="M103.274-23.739l17.508.938s7.19 18.133 7.19 19.071c0 .938 6.254 26.262 6.254 26.262l-14.07 14.694-2.813 2.501-7.503-7.503V3.148l-6.566-26.887" fill="#335061" fill-rule="evenodd"/>
            <path d="M111.09-21.55l-10.942-2.189 1.563-8.754c4.064-1.876 10.942 3.127 10.942 3.127M111.403 33.162l21.885-16.257.625 7.503-16.57 15.32-5.94-6.566" fill="#49728b" fill-rule="evenodd"/>
            <path d="M62.85-85.332l-6.473 26.265-3.219 19.38-.532 14.386 29.296 1.56 18.226.002-1.657-32.83 2.813-25.324-.312-4.69-23.76-1.876-14.382 3.127" fill="#fff" fill-rule="evenodd"/>
            <path d="M96.083-23.426s-1.563-32.515 3.127-55.65c0 0-9.38-5.941-23.136-7.504l26.262.938 3.126 1.876-3.751 51.273-.938 10.943" fill="#dcd9d8" fill-rule="evenodd"/>
            <path d="M115.062-49.691l12.193 3.44 23.135 1.25 3.44 10.629-6.254 18.446-7.19.938-10.005-3.126-9.599-4.687-5.095.935-3.972-1.56" fill="#fff" fill-rule="evenodd"/>
            <path d="M114.841-43.435s8.129 3.75 9.38 3.438L120.782-22.8l4.064 1.563s2.814-16.257 2.814-18.133c0 0 17.508-.938 19.071-.938 0 0 3.752 7.191 2.814 14.695l3.44-10.005.312-5.628-5.002-7.503-5.628-1.25-9.38.312-3.125 4.064-10.943-1.563-3.44-1.251" fill="#dcd9d8" fill-rule="evenodd"/>
            <path d="M102.556-21.241L95.678-3.733 88.487 6.585s1.562 4.377 3.751 4.377h7.191l6.878-2.502-.624-11.567-3.127-18.134" fill="#fff"/>
            <path d="M103.9-15.297S95.145 1.585 95.145 4.086c0 0 1.563 3.752 3.752 2.814 2.189-.938 6.878-3.439 6.878-3.439v5.94l-10.63 2.19-7.19-.939 12.193-28.763 2.5-.313" fill="#dcd9d8" fill-rule="evenodd"/>
            <path d="M65.664 25.968l-8.66.941-8.13 2.502v-2.814l3.972-4.38 12.505-5.628" fill="#fff"/>
            <path d="M51.689 25.03s9.692-4.064 12.819-3.126l.31-3.748-8.752 1.872-5.315 3.752.938 1.25" fill="#dcd9d8" fill-rule="evenodd"/>
            <path d="M115.028 9.897c-5.305.156-10.098.786-14.294 1.97.285 1.72-.248 3.408.18 4.647 1.17.843 3.13.83 4.898 1.027-1.529.752-3.677 1.049-5.44.615-.042 1.194-.578 1.934-.902 2.868 2.982 1.065 10.023 8.044 13.984 5.733 1.887-1.1 2.69-7.378 2.836-10.431.122-2.533-.23-5.087-1.262-6.429" fill="#d33833" fill-rule="evenodd"/>
            <path d="M115.028 9.897c-5.305.156-10.098.786-14.294 1.97.285 1.72-.248 3.408.18 4.647 1.17.843 3.13.83 4.898 1.027-1.529.752-3.677 1.049-5.44.615-.042 1.194-.578 1.934-.902 2.868 2.982 1.065 10.023 8.044 13.984 5.733 1.887-1.1 2.69-7.378 2.836-10.431.122-2.533-.23-5.087-1.262-6.429z" fill="none" stroke="#d33833" stroke-width="2"/>
            <path d="M89.66 18.57c-.014-.402-.03-.806-.047-1.211-1.656-1.088-4.33-1.075-6.148-1.99 2.68-.117 4.79-.762 6.614-1.672l-.118-3.032c-3.036-2.079-5.81-5.174-9.384-7.123-1.69-.922-7.622-3.294-9.42-2.875-1.017.237-1.109 1.5-1.516 2.69-.866 2.548-2.861 6.604-3.035 10.44-.222 4.846-.71 12.966 4.51 11.968 4.213-.804 9.113-2.744 12.374-4.526 1.993-1.09 3.146-2.437 6.17-2.67" fill="#d33833" fill-rule="evenodd"/>
            <path d="M89.66 18.57c-.014-.402-.03-.806-.047-1.211-1.656-1.088-4.33-1.075-6.148-1.99 2.68-.117 4.79-.762 6.614-1.672l-.118-3.032c-3.036-2.079-5.81-5.174-9.384-7.123-1.69-.922-7.622-3.294-9.42-2.875-1.017.237-1.109 1.5-1.516 2.69-.866 2.548-2.861 6.604-3.035 10.44-.222 4.846-.71 12.966 4.51 11.968 4.213-.804 9.113-2.744 12.374-4.526 1.993-1.09 3.146-2.437 6.17-2.67z" fill="none" stroke="#d33833" stroke-width="2"/>
            <path d="M92.675 12.788c-.463 2.64-.998 3.392-.791 5.695 7.039 4.693 8.36-8.061.791-5.695" fill="#d33833" fill-rule="evenodd"/>
            <path d="M92.675 12.788c-.463 2.64-.998 3.392-.791 5.695 7.039 4.693 8.36-8.061.791-5.695z" fill="none" stroke="#d33833" stroke-width="2"/>
            <path d="M102.868 10.649s-2.19 3.127-.626 4.065c1.564.938 3.127-.001 4.065 1.562.938 1.564 0 2.502.313 4.377.312 1.876 1.876 2.19 3.439 2.502 1.563.312 5.94.938 6.566-.626l-1.876 5.628-3.752 1.25-11.88-6.878-.626-3.44v-6.877M70.04.331c-.375 4.88-.772 9.752-1.215 14.626-.661 7.279 1.749 6.009 8.058 6.009.963 0 5.933-1.15 6.288-1.876 1.706-3.483-2.85-2.709 1.964-5.335 4.065-2.216 11.246 1.346 9.604 6.273-.92 1.095-4.79.341-6.176 1.06l-7.328 3.8c-3.107 1.612-10.29 3.962-13.603 1.71-8.394-5.71.53-19.975 3.525-25.93" fill="#ef3d3a" fill-rule="evenodd"/>
            <path d="M78.268 111.102c-8.522 1.984-12.756-3.566-15.339-9.323-2.306.559-1.388 3.695-.806 5.293 1.525 4.195 7.672 9.778 12.695 9.021 2.16-.325 5.086-2.301 3.45-4.991M119.786 101.398l.404-.016c1.926-4 3.593-8.238 6.022-11.77-1.627-3.79-12.322-7.143-12.157-.338 2.313 1.011 6.305.207 8.356 1.498-1.186 3.254-2.897 6.023-2.625 10.626M82.63 101.294c1.827-3.35 2.422-6.869 5.02-9.4 1.169-1.14 3.443-2.529 2.316-5.698-.264-.748-2.19-2.414-3.3-2.742-4.061-1.198-13.522-.247-10.318 4.815 3.358-.157 7.871-2.181 10.381.257-1.927 3.08-5.364 9.176-4.099 12.768M118.262 67.253c-6.113-3.928-12.93-8.198-22.947-7.208-2.14 1.861-2.957 6.002-.877 8.737 1.082-1.86.402-5.283 3.419-5.798 5.683-.973 12.299 3.477 16.387 5.032 2.535 4.274-.218 5.846-2.502 8.597-4.676 5.636-10.948 12.622-10.72 21.06 1.89 1.37 2.053-2.092 2.324-2.723 2.442-5.713 8.586-13.02 13.07-17.911 1.101-1.204 2.914-2.36 3.116-3.156.582-2.316-1.513-5.09-1.27-6.63M37.668 71.387c-1.917 1.094-2.373 5.91-4.622 6.048-3.215.195-2.63-6.25-2.616-10.018-2.213 2.009-2.602 8.194-.977 11.371-1.852.91-2.68-1.003-3.707-1.678 1.32 9.595 14.036 4.45 11.922-5.723M122.155 63.257c-2.846-5.417-6.872-11.382-15.222-11.555-.17 1.749-.3 4.41.009 5.464 6.383.613 10.325 3.862 15.212 6.091M82.149 59.745c5.326-2.8 15.114-3.101 22.353-2.89.388-1.585.379-3.545.394-5.479-9.305-.464-20.307 1.839-22.747 8.37M81.136 54.523c3.683-9.247 16.342-8.183 27.016-7.927-.47-1.2-1.488-2.62-2.754-3.132-3.421-1.392-12.856-2.448-17.604.074-3.012 1.601-4.947 5.219-6.597 7.34-.797 1.023-4.765 3.64-.06 3.645" fill="#231f20" fill-rule="evenodd"/>
            <path d="M117.818 3.516c-4.322-7.402-8.458-15.005-13.585-21.534 2.15 6.32 3.07 16.9 3.394 24.965 4.497 2.104 8.348-.474 10.19-3.431" fill="#81b0c4" fill-rule="evenodd"/>
            <path d="M141.074-23.089c-4.838-.968-8.238-5.671-12.959-5.37 2.594 3.658 7.14 5.2 12.96 5.37M143.21-30.661c-3.945-.417-8.577-1.056-12.578-.727 1.894 2.893 9.19 1.895 12.577.727M144.576-37.19c-4.433-.096-9.942-.008-14.156.346 2.493 2.676 11.28.993 14.156-.346" fill="#231f20" fill-rule="evenodd"/>
            <path d="M109.478-55.057c.635-5.567 2.842-11.207 2.566-17.304-2.451-.826-3.859-1.55-7.143-1.545-.231 5.182-.924 13.102-.717 18.041 1.615-.106 3.996 1.154 5.294.808" fill="#dcd9d8" fill-rule="evenodd"/>
            <path d="M102.331 26.985c-2.225-1.452-4.12-3.266-6.258-4.818-4.74-.234-7.327.329-10.81 3.05.057.219.407.121.42.39 5.074-2.262 11.525.92 16.648 1.378" fill="#f0d6b7" fill-rule="evenodd"/>
            <path d="M75.694-7.603c1.394 6.04 6.857 9.17 11.817 12.496 5.12-6.498 8.234-14.854 11.663-22.919-8.101 2.443-16.38 6.405-23.48 10.423" fill="#81b0c4" fill-rule="evenodd"/><path d="M104.184-55.865c-.207-4.939.486-12.86.717-18.04 3.284-.005 4.692.718 7.143 1.544.276 6.097-1.93 11.737-2.567 17.304-1.297.346-3.678-.914-5.293-.808zm-51.13 28.09c2.165-19.905 5.301-36.639 11.053-54.265 12.767-3.877 28.157-4.214 39.44-.717-2.071 9.949-1.166 22.061-2.377 32.678-.912 7.98-.447 16.008-1.698 24.15-13.673 2.844-33 .664-46.418-1.846zm49.65 1.72c-.115-8.549.383-16.981 1.036-25.541 3.283.493 5.51.822 8.56 1.49-.99 8.24-.868 17.513-2.885 24.803-2.332-.022-4.385.027-6.71-.752zm16.654 1.378c-1.558.358-3.372.014-4.86-.015.699-6.968 2.397-14.658 2.994-21.974 2.342-.072 3.593 1.032 5.52 1.404.103 6.42-.561 15.267-3.654 20.585zm25.215-23.038c4.882 1.186 7.952 7.165 6.586 13.306-.916 4.126-2.548 11.897-4.295 14.537-1.29 1.953-4.79 4.51-7.584 2.72-4.545-2.91-12.552-3.755-15.867-7.278 1.662-5.534 2.178-13.135 2.864-20.146 5.678-.354 12.665 1.562 17.387-.472-3.297-1.068-7.575-1.076-10.423-2.632 2.328-1.125 7.778-.898 11.332-.035zm-45.399 29.69c-3.429 8.064-6.543 16.42-11.663 22.918-4.96-3.326-10.423-6.455-11.817-12.496 7.1-4.018 15.379-7.98 23.48-10.423zm8.453 24.972c-.325-8.065-1.245-18.645-3.394-24.965 5.127 6.529 9.263 14.132 13.585 21.534-1.843 2.957-5.694 5.535-10.191 3.43zm-9.582 3.404c-1.942.21-3.591-2.233-6.117-1.177-.579-.64-1.105-1.333-1.695-1.957 5.579-6.723 8.114-16.262 12.423-24.163 2.312 7.59 2.046 15.904 2.555 24.188-3.177-.202-4.94 2.873-7.166 3.11zm-6.161 8.132c-.207-2.303.328-3.056.791-5.695 7.57-2.366 6.248 10.388-.791 5.695zM83.49 21.24c-3.261 1.782-8.16 3.722-12.373 4.526-5.222 1-4.733-7.122-4.511-11.968.174-3.836 2.169-7.892 3.035-10.44.407-1.19.499-2.453 1.516-2.69 1.798-.419 7.73 1.953 9.42 2.875 3.575 1.949 6.348 5.044 9.384 7.123l.118 3.032c-1.825.91-3.934 1.555-6.614 1.672 1.818.915 4.492.902 6.148 1.99.016.405.033.809.047 1.21-3.024.233-4.177 1.58-6.17 2.67zm-31.152 5.658c-2.706-2.748 7.592-6.494 10.872-6.696-.019 1.74.99 3.379.787 4.626-3.894.684-9.013.233-11.659 2.07zm33.345-1.29c-.013-.269-.363-.171-.42-.39 3.483-2.721 6.07-3.284 10.81-3.05 2.137 1.552 4.033 3.366 6.258 4.818-5.123-.457-11.574-3.64-16.648-1.378zm30.607-9.281c-.147 3.053-.949 9.331-2.836 10.43-3.96 2.313-11.002-4.667-13.984-5.732.324-.934.86-1.674.901-2.868 1.764.434 3.912.137 5.441-.615-1.768-.197-3.728-.184-4.898-1.027-.428-1.239.105-2.927-.18-4.647 4.196-1.184 8.99-1.814 14.294-1.97 1.032 1.342 1.384 3.896 1.262 6.429zM47.78 24.239c-.85.606-6.6 8.088-7.388 7.777-10.405-4.103-20.134-11.198-28.828-17.91C19.855-3.68 23.2-25.471 23.792-46.475c9.495-4.441 17.836-10.843 30.722-11.512-1.492 10.55-2.853 19.962-3.7 29.895-3.237 1.364-7.882-.062-10.912.423-.025 3.651 4.628 1.599 5.015 4.054.292 1.857-2.56 1.998-1.631 4.922 2.369-.86 3.612-2.762 6.139-3.477 2.308 5.05-.033 13.985.3 18.206.063.792.396 4.39 2.17 3.759 1.572-.559-.089-9.569.083-13.563.157-3.68-.444-7.242 1.046-9.552a355.804 355.804 0 0 0 38.577 3.16c-2.964 1.271-6.485 2.475-10.346 4.65-2.092 1.18-8.689 3.635-9.293 5.623-.963 3.167 2.528 4.854 3.125 7.57-6.285-3.428-7.51 3.285-8.998 8.042-1.347 4.307-2.114 7.525-2.444 10.01-5.415 2.581-11.203 5.195-15.864 8.505zm63.01 6.872c8.669 4.204 10.231-15.71 6.833-22.126.526-1.914 2.332-2.646 3.07-4.366-4.839-8.667-10.212-16.756-15.148-25.32 3.672 2.285 8.917.408 13.238 2.12 1.58.624 2.722 4.24 3.918 7.132 3.29 7.958 6.743 17.991 8.28 25.586.346 1.73 1.292 5.5 1.08 7.04-.378 2.758-4.12 4.803-6.023 6.508-3.506 3.15-5.713 5.921-9.37 8.866-1.483-2.189-4.666-3.66-5.878-5.44zm-82.836 76.88c-4.131-4.545-3.266-13.061-2.766-19.12 7.466 4.697 17.377-.372 17.284-8.36 3.564.094 1.331 4.451.686 7.259-2.107 9.169 3.55 19.13.257 27.516-6.395-.485-11.65-3.097-15.461-7.295zm29.557 26.38c-9.351-2.65-21.337-9.445-25.18-17.846 2.976.432 5.042 1.933 7.977 2.118 1.11.073 2.563-.465 3.838-.148 2.54.63 4.685 6.328 6.602 8.447 1.869 2.07 4.114 2.955 5.651 4.842.988.476 2.448.443 2.504 1.926-.428.458-.879.807-1.392.662zm48.682-2.492c-9.707 5.476-26.137 9.595-36.462 4.448C61.401 132.173 50.14 125.3 46.3 116.59c3.587-8.404-1.062-16.106-1.359-24.639-.157-4.54 2.138-8.504 2.314-13.447-1.228-2.025-4.978-2.275-7.573-2.136-.874 4.373-2.404 9.288-6.906 9.78-6.372.698-11.03-4.575-11.32-10.086-.342-6.48 4.977-17.22 12.518-16.474 2.912.288 3.628 3.207 6.801 3.177 1.72-3.431-2.653-4.51-3.103-6.964-.117-.634.363-3.112.642-4.274 1.37-5.658 4.423-12.982 7.428-17.29 3.814-5.464 11.307-6.287 19.368-6.823 1.44 3.102 6.744 2.847 10.2 2.035-4.142 1.64-7.992 5.618-11.184 9.138-3.665 4.038-7.378 8.37-7.566 13.65 6.927-9.61 12.65-18.003 25.246-22.23 9.531-3.197 20.662 1.465 27.986 6.607 3.039 2.138 4.853 5.53 7.013 8.634 8.082 11.625 11.853 28.22 11.024 44.303-.341 6.633-.326 13.243-2.552 17.706-2.326 4.666-10.193 8.84-14.799 4.62-.853 4.538 3.83 7.344 9.33 5.711-3.922 5.062-8.038 11.145-13.613 14.29zm18.084-149.663c7.585 3.77 21.757 10.15 26.512-.014 1.755-3.746 3.814-10.079 4.723-13.946 1.284-5.456-1.392-16.923-7-18.754-4.953-1.617-10.733-1.518-16.699-.32-.702.585-1.484 1.603-2.031 2.665-4.26.165-8.25-.229-11.615-1.98.32-3.15-1.812-3.656-3.81-4.305-1.48-5.872 2.963-13.54 1.9-18.895-.759-3.815-5.452-4.405-8.902-5.119-.113-2.12.15-3.89.386-5.683-.788-2.906-4.326-4.56-7.678-4.966-11.03-1.326-27.776-1.922-38.384 1.893-2.96 7.261-5.292 16.093-7.758 24.384-10.347-1.105-18.715 4.464-26.604 8.113-2.73 1.266-6.51 1.964-7.53 4.138-.989 2.105-.584 6.14-.83 9.95-.624 9.733-1.16 19.12-3.73 29.086C14.076-7.065 12.064-3.12 10.66 1.19 9.363 5.183 7.097 10.119 6.506 14.1c-.876 5.902 4.681 6.23 8.235 8.788 5.494 3.956 9.807 6.143 15.756 9.713 1.763 1.057 7.077 3.733 7.682 4.965 1.201 2.443-2.063 5.888-2.936 7.804-1.38 3.028-2.1 5.601-2.298 8.59-4.991.788-8.775 3.758-11.06 7.108-3.781 5.543-6.403 15.798-3.132 23.599.257.614 1.536 1.822 1.725 2.766.372 1.858-.7 4.328-.767 6.305-.344 10.139 1.715 18.875 8.54 21.932 2.771 11.039 12.689 14.709 22.033 20.195 3.492 2.05 7.343 3.36 11.319 4.823 14.264 5.25 36.15 4.261 47.988-4.692 5.02-3.797 13.044-11.813 15.914-17.617 7.58-15.323 7.042-40.931 1.74-59.57-.713-2.503-1.747-6.182-3.19-9.188-1.007-2.099-4.135-6.299-3.755-8.152.391-1.916 7.132-7.035 8.578-8.428 2.602-2.511 7.547-5.844 7.948-9.012.43-3.372-1.486-7.985-2.457-11.238-3.245-10.859-6.412-20.895-10.091-30.576" fill="#231f20" fill-rule="evenodd"/>
            <path d="M73.674 57.38c.411.548 2.674 1.38 5.84-.145 0 0-3.752-.625-3.44-6.88l-1.564.313s-1.615 5.672-.836 6.712" fill="#f7e4cd" fill-rule="evenodd"/>
            <path d="M101.086 3.617a1.72 1.72 0 1 0-3.44.001 1.72 1.72 0 0 0 3.44-.001M102.805-4.355a1.72 1.72 0 1 0-3.44 0 1.72 1.72 0 0 0 3.44 0" fill="#1d1919" fill-rule="evenodd"/>
            <rect width="70.412" height="4.12" x="16.854" y="177.378" transform="matrix(.8 0 0 -.8 0 144)" rx=".983" ry=".983"/>
            <rect width="50.037" height="3.296" x="78.502" y="-2.097" rx=".786" ry=".786" transform="scale(1 -1)"/>
            <rect width="54.831" height="3.296" x="13.483" y="-3.697" rx=".786" ry=".786" transform="scale(1 -1)"/>
            <rect width="45.243" height="3.296" x="83.296" y="-3.697" rx=".786" ry=".786" transform="scale(1 -1)"/>
        </g>
    </symbol>

    <symbol id="icon-js" viewBox="0 0 128 128">
        <path fill="#83CD29" d="M112.771 30.334l-44.097-25.605c-2.781-1.584-6.402-1.584-9.205 0l-44.568 25.605c-2.87 1.651-4.901 4.754-4.901 8.073v51.142c0 3.319 2.084 6.423 4.954 8.083l11.775 6.688c5.628 2.772 7.617 2.772 10.178 2.772 8.333 0 13.093-5.039 13.093-13.828v-50.49c0-.713-.371-1.774-1.071-1.774h-5.623c-.712 0-2.306 1.061-2.306 1.773v50.49c0 3.896-3.524 7.773-10.11 4.48l-12.167-7.013c-.424-.23-.723-.693-.723-1.181v-51.142c0-.482.555-.966.982-1.213l44.424-25.561c.415-.235 1.025-.235 1.439 0l43.882 25.555c.42.253.272.722.272 1.219v51.142c0 .488.183.963-.232 1.198l-44.086 25.576c-.378.227-.847.227-1.261 0l-11.307-6.749c-.341-.198-.746-.269-1.073-.086-3.146 1.783-3.726 2.02-6.677 3.043-.726.253-1.797.692.41 1.929l14.798 8.754c1.417.82 3.027 1.246 4.647 1.246 1.642 0 3.25-.426 4.667-1.246l43.885-25.582c2.87-1.672 4.23-4.764 4.23-8.083v-51.142c0-3.319-1.36-6.414-4.229-8.073zM77.91 81.445c-11.726 0-14.309-3.235-15.17-9.066-.1-.628-.633-1.379-1.272-1.379h-5.731c-.709 0-1.279.86-1.279 1.566 0 7.466 4.059 16.512 23.453 16.512 14.039 0 22.088-5.455 22.088-15.109 0-9.572-6.467-12.084-20.082-13.886-13.762-1.819-15.16-2.738-15.16-5.962 0-2.658 1.184-6.203 11.374-6.203 9.105 0 12.461 1.954 13.842 8.091.118.577.645.991 1.24.991h5.754c.354 0 .692-.143.94-.396.24-.272.367-.613.335-.979-.891-10.568-7.912-15.493-22.112-15.493-12.631 0-20.166 5.334-20.166 14.275 0 9.698 7.497 12.378 19.622 13.577 14.505 1.422 15.633 3.542 15.633 6.395 0 4.955-3.978 7.066-13.309 7.066z"></path>
    </symbol>

    <symbol id="icon-nginx" viewBox="0 0 128 128">
        <path fill="#090" d="M24.5 50.5c-1.5 0-2.5 1.2-2.5 2.7v14.1l-15.9-16c-.8-.8-2.2-1-3.2-.6s-1.9 1.4-1.9 2.5v20.7c0 1.5 1.5 2.7 3 2.7s3-1.2 3-2.7v-14.1l16.1 16c.5.5 1.2.8 1.9.8.3 0 .4-.1.7-.2 1-.4 1.3-1.4 1.3-2.5v-20.6c0-1.5-1-2.8-2.5-2.8zM44.2 62.3c-1.4 0-2.7 1.4-2.7 2.8s1.3 2.8 2.7 2.8l6.6.4-1.5 3.7h-8.5l-4.2-7.9 4.3-8.1h9.1l2.1 4h5.5l-3.6-7.9-.8-1.1h-15.6l-.7 1.2-5.9 10.3-.7 1.3.7 1.3 5.8 10.3.8 1.6h15.1l.7-1.7 4.3-9 1.9-4.3h-4.4l-11 .3zM65 50.5c-1.4 0-3 1.3-3 2.7v6.8h6v-6.7c0-1.5-1.6-2.8-3-2.8zM95.4 50.8c-1-.4-2.4-.2-3.1.6l-16.3 16v-14.1c0-1.5-1-2.7-2.5-2.7s-2.5 1.2-2.5 2.7v20.7c0 1.1.7 2.1 1.7 2.5.3.1.7.2 1 .2.7 0 1.6-.3 2.1-.8l16.2-16v14.1c0 1.5 1 2.7 2.5 2.7s2.5-1.2 2.5-2.7v-20.7c0-1.1-.6-2.1-1.6-2.5zM117.2 63.6l8.4-8.4c1.1-1.1 1.1-2.8 0-3.8-1.1-1.1-2.8-1.1-3.8 0l-8.4 8.4-8.4-8.4c-1.1-1.1-2.8-1.1-3.8 0-1.1 1.1-1.1 2.8 0 3.8l8.4 8.4-8.4 8.4c-1.1 1.1-1.1 2.8 0 3.8.5.5 1.2.8 1.9.8s1.4-.3 1.9-.8l8.4-8.4 8.4 8.4c.5.5 1.2.8 1.9.8s1.4-.3 1.9-.8c1.1-1.1 1.1-2.8 0-3.8l-8.4-8.4zM62 73.9c0 1.4 1.5 2.7 3 2.7 1.4 0 3-1.3 3-2.7v-11.9h-6v11.9z"></path>
    </symbol>

    <symbol id="icon-postgresql" viewBox="0 0 128 128">
        <path fill-rule="evenodd" clip-rule="evenodd" fill="#336791" d="M123.258 76.784c-.45-2.918-2.901-4.829-5.752-4.958-1.032-.047-2.08.061-3.109.192-1.243.158-2.471.438-3.711.623-.857.128-1.726.187-2.582.275l-.021-.111c1.598-3.018 3.263-6.003 4.775-9.064 1.159-2.348 2.151-4.781 3.176-7.194 1.696-3.998 3.051-8.12 4.173-12.309 1.075-4.011 1.995-8.066 2.284-12.227.116-1.662.196-3.331.187-4.995-.008-1.327-.151-2.656-.284-3.979-.15-1.516-.608-2.953-1.242-4.336-.836-1.822-2.132-3.317-3.496-4.737-1.092-1.137-2.293-2.173-3.484-3.208-1.698-1.477-3.607-2.656-5.59-3.703-2.253-1.19-4.621-2.121-7.09-2.75-1.493-.381-3.02-.664-4.532-.966-.544-.11-1.089-.337-1.633-.337h-10.241c-.37 0-.737.191-1.11.233-2.452.273-4.875.735-7.228 1.464-.88.273-1.684.101-2.52.024-.641-.059-1.271-.231-1.912-.263-2.442-.122-4.887-.301-7.328-.275-2.339.024-4.654.409-6.918 1.052-1.895.538-3.749 1.195-5.447 2.191-.727.426-1.303.346-2.055.129-2.527-.729-5.072-1.414-7.639-1.989-1.6-.358-3.245-.536-4.879-.707-1.566-.163-3.144-.261-4.718-.294-1.538-.033-3.087-.032-4.618.104-2.439.217-4.832.713-7.158 1.513-2.583.888-4.951 2.175-7.086 3.865-2.167 1.715-3.905 3.809-5.303 6.2-1.473 2.523-2.483 5.224-3.111 8.061-.34 1.537-.555 3.117-.788 4.678-.073.486.732.972-.268 1.456v6.794c1 .452.208.903.266 1.356.139 1.089.262 2.187.446 3.268.291 1.711.636 3.417.988 5.117.491 2.375 1.002 4.748 1.546 7.111.396 1.72.847 3.43 1.319 5.131.721 2.598 1.431 5.201 2.246 7.77.757 2.387 1.624 4.74 2.484 7.093 1.191 3.255 2.617 6.405 4.327 9.424 1.479 2.614 3.169 5.062 5.436 7.076 1.494 1.327 3.157 2.347 5.093 2.857 1.521.4 3.067.448 4.624.129 1.805-.37 3.403-1.147 4.824-2.311.163-.134.342-.236.535.01.735.931 1.719 1.552 2.748 2.089 2.777 1.448 5.803 1.882 8.877 2.059.744.043 1.496-.064 2.246-.085 1.461-.04 2.881-.325 4.278-.729.732-.212 1.447-.481 2.192-.732.039.793.089 1.557.112 2.321l.104 4.166c.019.634.044 1.27.103 1.901.151 1.627.299 3.255.493 4.877.135 1.118.275 2.245.538 3.336.529 2.203 1.246 4.348 2.158 6.428.895 2.041 2.182 3.764 3.9 5.185 2.22 1.836 4.822 2.619 7.632 2.764 1.162.061 2.357.004 3.501-.204 1.813-.329 3.622-.743 5.387-1.275 3.591-1.084 6.695-2.956 9.014-5.981 1.32-1.724 2.404-3.589 3.1-5.648.574-1.701 1.115-3.419 1.545-5.16.34-1.372.508-2.787.715-4.188.137-.927.219-1.863.305-2.797.14-1.517.283-3.033.384-4.553.07-1.058.067-2.121.109-3.181.013-.323.065-.644.095-.966.028-.298.178-.401.482-.396 1.071.016 2.144.044 3.212-.004 1.197-.054 2.405-.105 3.583-.303 1.677-.281 3.346-.636 4.99-1.067 1.943-.508 3.725-1.418 5.44-2.455 1.998-1.207 3.819-2.623 5.297-4.447 1.285-1.591 1.894-3.43 1.584-5.438zm-3.412.982c-.066.915-.485 1.699-1.093 2.369-2.869 3.163-6.468 5.082-10.585 6.027-1.564.358-3.178.544-4.779.692-1.363.126-2.746.147-4.114.097-1.006-.038-2.004-.268-3.032-.416-.103.94-.201 1.919-.32 2.896l-.479 3.745c-.145 1.187-.258 2.378-.407 3.564-.146 1.151-.328 2.298-.481 3.449-.143 1.072-.248 2.149-.407 3.219-.245 1.64-.479 3.284-.799 4.911-.384 1.945-.973 3.829-1.934 5.583-1.172 2.141-2.834 3.772-4.949 4.98-2.18 1.246-4.563 1.894-6.979 2.436-1.71.384-3.472.447-5.204.291-3.004-.272-5.568-1.557-7.506-3.886-1.85-2.223-3.102-4.771-3.55-7.655-.214-1.371-.368-2.754-.491-4.136-.136-1.537-.229-3.079-.299-4.62-.089-1.957-.154-3.914-.197-5.871-.053-2.406-.07-4.812-.104-7.218l-.006-.092c-1.224.734-2.427 1.538-3.703 2.2-1.494.776-3.117 1.226-4.798 1.353-1.318.1-2.653.191-3.965.086-2.151-.173-4.3-.51-6.226-1.569-.781-.43-1.596-.953-2.134-1.64-1.29-1.646-.672-3.726 1.273-4.727 1.344-.693 2.811-.982 4.268-1.319 1.266-.293 2.526-.626 3.761-1.029 1.222-.4 1.993-1.391 2.754-2.363l1.206-1.551c-.503-.053-.977-.107-1.451-.151-1.439-.136-2.812-.532-4.125-1.114-1.124-.497-1.141-.551-1.965.343-1.376 1.494-2.714 3.023-4.062 4.542-.992 1.117-1.978 2.241-2.965 3.361-.978 1.108-1.894 2.279-2.947 3.31-1.564 1.531-3.449 2.452-5.698 2.348-1.443-.066-2.764-.572-3.952-1.399-2.452-1.708-4.104-4.097-5.608-6.606-1.927-3.215-3.406-6.64-4.672-10.159-.876-2.432-1.756-4.866-2.521-7.333-.831-2.681-1.56-5.396-2.277-8.11-.542-2.048-1.023-4.113-1.482-6.182-.521-2.353-1.022-4.71-1.464-7.079-.298-1.599-.471-3.221-.712-4.831-.325-2.17-.385-4.36-.267-6.539.105-1.963.387-3.921.667-5.871.388-2.698 1.277-5.244 2.556-7.648.783-1.473 1.755-2.812 2.879-4.056 1.845-2.042 4.078-3.518 6.562-4.626 1.736-.774 3.57-1.24 5.439-1.604 2.774-.54 5.573-.519 8.373-.461 1.224.025 2.443.248 3.666.369 2.633.262 5.214.816 7.762 1.5 1.857.498 3.676 1.143 5.518 1.703.185.056.456.051.607-.048 2.496-1.629 5.224-2.704 8.125-3.319 1.101-.233 2.237-.335 3.363-.407 1.369-.087 2.749-.167 4.115-.088 1.642.094 3.276.336 4.908.56.792.108 1.565.383 2.359.458.38.036.783-.242 1.185-.335 2.049-.473 4.089-1 6.156-1.374 1.539-.278 3.111-.409 4.676-.499 1.745-.1 3.503-.173 5.247-.089 2.205.106 4.394.42 6.555.923 2.677.623 5.245 1.528 7.686 2.784 1.824.938 3.558 2.026 5.119 3.364 1.023.878 2.07 1.745 2.994 2.723 1.14 1.206 2.303 2.413 3.018 3.958.538 1.165.922 2.371 1.028 3.647.132 1.586.292 3.178.277 4.766-.014 1.519-.221 3.037-.368 4.552-.334 3.454-1.085 6.833-1.997 10.167-.754 2.754-1.635 5.478-2.589 8.17-.879 2.481-1.893 4.917-2.918 7.343-.757 1.794-1.572 3.569-2.458 5.303-1.677 3.286-3.421 6.538-5.438 9.633-.348.535-.678 1.083-1.018 1.629.88.594 1.877.803 2.881.911.955.104 1.929.166 2.883.095 1.527-.113 3.049-.331 4.567-.544 1.504-.21 2.978-.638 4.522-.525 1.542.112 2.645 1.284 2.54 2.729zM97.833 74.413c-.655-.846-1.323-1.682-1.964-2.538-1.006-1.344-1.729-2.845-2.455-4.353-.688-1.429-1.532-2.782-2.257-4.195-1.265-2.465-2.553-4.922-3.718-7.435-1.465-3.157-2.62-6.426-2.984-9.923-.154-1.48-.193-2.958.106-4.424.479-2.341 1.702-4.172 3.758-5.428 1.907-1.165 4.032-1.541 6.209-1.659 1.351-.073 2.708-.013 4.11-.013l-.047-.237c-.872-1.823-1.687-3.677-2.641-5.457-1.346-2.512-3.068-4.777-4.986-6.877-1.421-1.555-2.96-2.998-4.646-4.273-1.658-1.255-3.405-2.376-5.269-3.293-2.223-1.093-4.538-1.938-6.967-2.477-2.334-.518-4.683-.835-7.077-.861-2.042-.022-4.071.07-6.06.531-3.002.695-5.748 1.931-8.137 3.933-1.334 1.118-2.498 2.373-3.517 3.77-1.196 1.643-2.161 3.417-2.986 5.277-1.132 2.552-1.909 5.208-2.44 7.938-.266 1.361-.474 2.734-.686 4.106-.074.48-.08.971-.123 1.521.369-.192.635-.34.907-.472l.885-.397c2.993-1.369 6.094-2.25 9.427-2.149 1.416.043 2.771.323 4.03.943 2.415 1.191 3.828 3.216 4.442 5.779.424 1.769.714 3.573.996 5.372.221 1.405.447 2.825.473 4.242.037 2.071-.068 4.146-.181 6.216-.096 1.764-.464 3.5-1.08 5.146-1.12 2.993-2.368 5.937-3.534 8.913-.385.983-.681 2.001-1.045 3.082.562 0 1.018-.004 1.474.002.178.003.36.008.532.049 1.34.316 2.502.923 3.455 1.954 1.271 1.372 1.938 2.973 1.972 4.826.019 1.027-.089 2.057-.084 3.084.021 4.786.057 9.572.097 14.357.007.782.046 1.565.102 2.346.117 1.635.235 3.271.395 4.902.112 1.157.268 2.312.451 3.461.259 1.628 1 3.077 1.841 4.462.724 1.191 1.665 2.203 2.905 2.901 2.107 1.186 4.376 1.285 6.663.848 1.545-.295 3.062-.769 4.562-1.258 1.479-.481 2.815-1.269 3.937-2.354 1.051-1.019 1.797-2.261 2.3-3.632.976-2.659 1.28-5.459 1.684-8.237.151-1.04.282-2.083.42-3.125.157-1.186.316-2.371.468-3.556.112-.883.214-1.768.322-2.651.154-1.268.317-2.535.464-3.804.113-.981.209-1.966.309-2.949.129-1.256.268-2.512.379-3.77.086-.955.051-1.927.22-2.864.311-1.718 1.123-3.18 2.646-4.125.637-.395 1.356-.655 2.063-.989l-.12-.186zM40.236 67.361c-.761-1.802-1.218-3.68-1.354-5.622-.128-1.825.089-3.643.276-5.46.182-1.76.333-3.528.386-5.296.088-2.906-.108-5.808-.247-8.712-.084-1.729.117-3.479.271-5.212.139-1.561.312-3.126.607-4.664.495-2.581 1.152-5.125 2.086-7.591.887-2.338 1.906-4.615 3.345-6.665.986-1.406 2.105-2.72 3.18-4.094l-.319-.113c-3.498-1.111-7.053-1.979-10.709-2.358-1.729-.179-3.464-.284-5.198-.387-.532-.032-1.072.04-1.606.091-1.322.126-2.66.176-3.961.424-2.214.421-4.338 1.129-6.305 2.282-1.766 1.035-3.249 2.373-4.491 3.978-1.372 1.772-2.295 3.776-2.958 5.913-.783 2.521-1.156 5.115-1.257 7.733-.088 2.295-.132 4.603.264 6.889.295 1.702.492 3.422.817 5.117.443 2.311.918 4.617 1.467 6.904.785 3.274 1.569 6.553 2.499 9.787.89 3.099 1.894 6.17 2.982 9.204.89 2.476 1.919 4.906 3.003 7.304.706 1.562 1.561 3.065 2.457 4.528.953 1.553 2.037 3.027 3.508 4.154 1.856 1.423 3.293 1.644 5.179.083.808-.669 1.491-1.495 2.194-2.282 1.117-1.25 2.195-2.534 3.307-3.788 1.416-1.598 2.85-3.179 4.273-4.769.301-.336.59-.682.883-1.022l-.484-.425c-1.769-1.699-3.139-3.669-4.095-5.931zM93.924 19.792c1.156 1.356 2.275 2.752 3.309 4.204 2 2.809 3.598 5.842 4.775 9.087.521 1.43.937 2.874.751 4.439-.129 1.096-.118 2.208-.215 3.31-.081.917-.226 1.829-.345 2.743-.178 1.378-.436 2.752-.513 4.136-.073 1.317.003 2.648.086 3.968.084 1.341.265 2.676.388 4.015.139 1.518.326 3.036.369 4.557.035 1.249-.076 2.506-.185 3.753-.13 1.502-.511 2.956-1.079 4.351-.399.982-.876 1.934-1.327 2.917l.181.192.275.213.277-.496c2.339-3.688 4.42-7.518 6.222-11.493 1.159-2.56 2.245-5.156 3.287-7.766 1.624-4.064 2.909-8.242 3.903-12.503.446-1.913.787-3.855 1.09-5.797.236-1.518.433-3.054.477-4.586.047-1.625-.043-3.263-.193-4.884-.112-1.224-.414-2.456-1.181-3.451-1.233-1.602-2.564-3.134-4.201-4.346-1.378-1.021-2.751-2.068-4.23-2.927-2.345-1.36-4.883-2.266-7.535-2.883-2.588-.603-5.21-.863-7.849-.918-1.556-.033-3.119.134-4.672.28-1.407.132-2.805.357-4.222.543 1.52.855 3.019 1.615 4.433 2.511 2.973 1.883 5.637 4.149 7.924 6.831zM55.299 72.514c.961-3.073 2.27-6.007 3.538-8.959 1.028-2.394 1.59-4.916 1.777-7.506.093-1.277.067-2.57.004-3.851-.071-1.423-.185-2.85-.392-4.259-.266-1.801-.569-3.603-.995-5.371-.462-1.913-1.627-3.245-3.623-3.736-1.216-.299-2.424-.287-3.653-.093-3.002.473-5.75 1.579-8.31 3.199-.515.326-.798.589-.709 1.328.188 1.565.229 3.155.222 4.735-.01 2.236-.105 4.472-.19 6.707-.028.728-.133 1.452-.211 2.177-.12 1.11-.351 2.219-.344 3.327.007 1.142.124 2.311.401 3.417.88 3.507 2.744 6.377 5.799 8.402 1.879 1.245 3.958 1.873 6.24 1.992.155-.524.293-1.019.446-1.509zm-3.586-30.087c-.402-.844-.172-1.543.76-1.867.227-.08.461-.165.697-.188.324-.032.654-.008.982-.008 1.182.006 2.319.171 3.295.923.626.482.794 1.122.389 1.779-.575.932-1.452 1.4-2.529 1.49-1.697.141-2.888-.65-3.594-2.129zM98.753 42.119c.136-1.124.245-2.251.384-3.375.056-.452-.182-.574-.561-.585-1.192-.033-2.384-.075-3.576-.097-1.344-.024-2.652.192-3.896.703-1.38.568-2.431 1.478-2.86 2.98-.32 1.12-.406 2.239-.293 3.41.172 1.785.568 3.517 1.193 5.176.834 2.221 1.707 4.441 2.75 6.569 1.413 2.881 3.012 5.67 4.513 8.507.401.757.738 1.547 1.156 2.431.875-1.853 1.302-3.708 1.351-5.622.041-1.61-.088-3.227-.182-4.838-.059-.986-.198-1.966-.294-2.95-.134-1.371-.337-2.741-.368-4.115-.031-1.397.068-2.802.188-4.197.113-1.338.334-2.665.495-3.997zm-2.689-1.082c-.443 1.223-1.39 1.913-2.618 2.116-1.145.188-2.148-.235-2.894-1.148-.531-.65-.328-1.42.468-1.859.914-.506 1.919-.634 3.104-.711.322.059.807.108 1.268.24.669.189.916.692.672 1.362zM60.642 78.697c-.655-.535-1.521-.566-2.144.021-.773.73-1.453 1.565-2.133 2.388-.785.951-1.521 1.94-2.534 2.677-1.474 1.071-3.192 1.515-4.919 1.935-1.373.334-2.752.644-4.129.965l-.017.178c.409.189.805.425 1.231.56 2.1.665 4.236.996 6.455.808 1.602-.136 3.128-.485 4.574-1.171 1.99-.943 3.521-2.437 4.823-4.175.218-.29.317-.719.343-1.093.089-1.321-.582-2.303-1.55-3.093zM112.393 79.223c-1.69.181-3.382.373-5.077.47-.818.047-1.648-.109-2.474-.176-1.385-.112-2.737-.42-3.908-1.16-.678-.427-1.241-.475-1.961-.233-1.028.346-1.867.872-2.115 1.986-.169.753-.23 1.533-.298 2.304-.013.136.157.386.287.42.793.209 1.59.456 2.401.529.996.09 2.01.061 3.013.011 1.083-.054 2.173-.124 3.24-.304 2.515-.422 4.948-1.11 7.109-2.536.779-.515 1.551-1.041 2.325-1.562l-.064-.11c-.826.123-1.648.273-2.478.361z"></path>
    </symbol>

    <symbol id="icon-react" viewBox="0 0 128 128">
        <path fill="#61DAFB" d="M107.3 45.2c-2.2-.8-4.5-1.6-6.9-2.3.6-2.4 1.1-4.8 1.5-7.1 2.1-13.2-.2-22.5-6.6-26.1-1.9-1.1-4-1.6-6.4-1.6-7 0-15.9 5.2-24.9 13.9-9-8.7-17.9-13.9-24.9-13.9-2.4 0-4.5.5-6.4 1.6-6.4 3.7-8.7 13-6.6 26.1.4 2.3.9 4.7 1.5 7.1-2.4.7-4.7 1.4-6.9 2.3-12.5 4.8-19.3 11.4-19.3 18.8s6.9 14 19.3 18.8c2.2.8 4.5 1.6 6.9 2.3-.6 2.4-1.1 4.8-1.5 7.1-2.1 13.2.2 22.5 6.6 26.1 1.9 1.1 4 1.6 6.4 1.6 7.1 0 16-5.2 24.9-13.9 9 8.7 17.9 13.9 24.9 13.9 2.4 0 4.5-.5 6.4-1.6 6.4-3.7 8.7-13 6.6-26.1-.4-2.3-.9-4.7-1.5-7.1 2.4-.7 4.7-1.4 6.9-2.3 12.5-4.8 19.3-11.4 19.3-18.8s-6.8-14-19.3-18.8zm-14.8-30.5c4.1 2.4 5.5 9.8 3.8 20.3-.3 2.1-.8 4.3-1.4 6.6-5.2-1.2-10.7-2-16.5-2.5-3.4-4.8-6.9-9.1-10.4-13 7.4-7.3 14.9-12.3 21-12.3 1.3 0 2.5.3 3.5.9zm-11.2 59.3c-1.8 3.2-3.9 6.4-6.1 9.6-3.7.3-7.4.4-11.2.4-3.9 0-7.6-.1-11.2-.4-2.2-3.2-4.2-6.4-6-9.6-1.9-3.3-3.7-6.7-5.3-10 1.6-3.3 3.4-6.7 5.3-10 1.8-3.2 3.9-6.4 6.1-9.6 3.7-.3 7.4-.4 11.2-.4 3.9 0 7.6.1 11.2.4 2.2 3.2 4.2 6.4 6 9.6 1.9 3.3 3.7 6.7 5.3 10-1.7 3.3-3.4 6.6-5.3 10zm8.3-3.3c1.5 3.5 2.7 6.9 3.8 10.3-3.4.8-7 1.4-10.8 1.9 1.2-1.9 2.5-3.9 3.6-6 1.2-2.1 2.3-4.2 3.4-6.2zm-25.6 27.1c-2.4-2.6-4.7-5.4-6.9-8.3 2.3.1 4.6.2 6.9.2 2.3 0 4.6-.1 6.9-.2-2.2 2.9-4.5 5.7-6.9 8.3zm-18.6-15c-3.8-.5-7.4-1.1-10.8-1.9 1.1-3.3 2.3-6.8 3.8-10.3 1.1 2 2.2 4.1 3.4 6.1 1.2 2.2 2.4 4.1 3.6 6.1zm-7-25.5c-1.5-3.5-2.7-6.9-3.8-10.3 3.4-.8 7-1.4 10.8-1.9-1.2 1.9-2.5 3.9-3.6 6-1.2 2.1-2.3 4.2-3.4 6.2zm25.6-27.1c2.4 2.6 4.7 5.4 6.9 8.3-2.3-.1-4.6-.2-6.9-.2-2.3 0-4.6.1-6.9.2 2.2-2.9 4.5-5.7 6.9-8.3zm22.2 21l-3.6-6c3.8.5 7.4 1.1 10.8 1.9-1.1 3.3-2.3 6.8-3.8 10.3-1.1-2.1-2.2-4.2-3.4-6.2zm-54.5-16.2c-1.7-10.5-.3-17.9 3.8-20.3 1-.6 2.2-.9 3.5-.9 6 0 13.5 4.9 21 12.3-3.5 3.8-7 8.2-10.4 13-5.8.5-11.3 1.4-16.5 2.5-.6-2.3-1-4.5-1.4-6.6zm-24.7 29c0-4.7 5.7-9.7 15.7-13.4 2-.8 4.2-1.5 6.4-2.1 1.6 5 3.6 10.3 6 15.6-2.4 5.3-4.5 10.5-6 15.5-13.8-4-22.1-10-22.1-15.6zm28.5 49.3c-4.1-2.4-5.5-9.8-3.8-20.3.3-2.1.8-4.3 1.4-6.6 5.2 1.2 10.7 2 16.5 2.5 3.4 4.8 6.9 9.1 10.4 13-7.4 7.3-14.9 12.3-21 12.3-1.3 0-2.5-.3-3.5-.9zm60.8-20.3c1.7 10.5.3 17.9-3.8 20.3-1 .6-2.2.9-3.5.9-6 0-13.5-4.9-21-12.3 3.5-3.8 7-8.2 10.4-13 5.8-.5 11.3-1.4 16.5-2.5.6 2.3 1 4.5 1.4 6.6zm9-15.6c-2 .8-4.2 1.5-6.4 2.1-1.6-5-3.6-10.3-6-15.6 2.4-5.3 4.5-10.5 6-15.5 13.8 4 22.1 10 22.1 15.6 0 4.7-5.8 9.7-15.7 13.4z"></path>
    </symbol>

    <symbol id="icon-ruby" viewBox="0 0 128 128">
        <path fill-rule="evenodd" clip-rule="evenodd" fill="#D91404" d="M35.971 111.33c27.466 3.75 54.444 7.433 81.958 11.188-9.374-15.606-18.507-30.813-27.713-46.144l-54.245 34.956zM125.681 24.947c-2.421 3.636-4.847 7.269-7.265 10.907-8.304 12.493-16.607 24.986-24.903 37.485-.462.696-1.061 1.248-.41 2.321 8.016 13.237 15.969 26.513 23.942 39.777 1.258 2.095 2.53 4.182 4.157 6.192 1.612-32.193 3.223-64.387 4.834-96.58l-.355-.102zM16.252 66.22c.375.355 1.311.562 1.747.347 7.689-3.779 15.427-7.474 22.948-11.564 2.453-1.333 4.339-3.723 6.452-5.661 6.997-6.417 13.983-12.847 20.966-19.278.427-.395.933-.777 1.188-1.275 2.508-4.902 4.973-9.829 7.525-14.898-3.043-1.144-5.928-2.263-8.849-3.281-.396-.138-1.02.136-1.449.375-6.761 3.777-13.649 7.353-20.195 11.472-3.275 2.061-5.943 5.098-8.843 7.743-4.674 4.266-9.342 8.542-13.948 12.882-1.222 1.152-2.336 2.468-3.288 3.854-3.15 4.587-6.206 9.24-9.402 14.025 1.786 1.847 3.41 3.613 5.148 5.259zM44.354 59.949c-3.825 16.159-7.627 32.227-11.556 48.823 18.423-11.871 36.421-23.468 54.3-34.987-14.228-4.605-28.41-9.196-42.744-13.836zM120.985 25.103c-15.566 2.601-30.76 5.139-46.15 7.71 5.242 12.751 10.379 25.246 15.662 38.096 10.221-15.359 20.24-30.41 30.488-45.806zM44.996 56.644c14.017 4.55 27.755 9.01 41.892 13.6-5.25-12.79-10.32-25.133-15.495-37.737-8.815 8.059-17.498 15.999-26.397 24.137zM16.831 75.643c-4.971 11.883-9.773 23.362-14.662 35.048 9.396-.278 18.504-.547 27.925-.825-4.423-11.412-8.759-22.6-13.263-34.223zM30.424 101.739l.346-.076c3.353-13.941 6.754-27.786 10.177-42.272-7.636 3.969-14.92 7.754-22.403 11.644 3.819 9.926 7.891 20.397 11.88 30.704zM115.351 22.842c-4.459-1.181-8.918-2.366-13.379-3.539-6.412-1.686-12.829-3.351-19.237-5.052-.801-.213-1.38-.352-1.851.613-2.265 4.64-4.6 9.245-6.901 13.868-.071.143-.056.328-.111.687 13.886-2.104 27.679-4.195 41.47-6.285l.009-.292zM89.482 12.288l36.343 10.054c-2.084-5.939-4.017-11.446-6.005-17.11l-30.285 6.715-.053.341zM33.505 114.007c-4.501-.519-9.122-.042-13.687.037-3.75.063-7.5.206-11.25.323-.386.012-.771.09-1.156.506 31.003 2.866 62.005 5.732 93.007 8.6l.063-.414c-9.938-1.357-19.877-2.714-29.815-4.07-12.384-1.691-24.747-3.551-37.162-4.982zM2.782 99.994c3.995-9.27 7.973-18.546 11.984-27.809.401-.929.37-1.56-.415-2.308-1.678-1.597-3.237-3.318-5.071-5.226-2.479 12.24-4.897 24.177-7.317 36.113l.271.127c.185-.297.411-.578.548-.897zM81.522 9.841c6.737-1.738 13.572-3.097 20.367-4.613.44-.099.87-.244 1.303-.368l-.067-.332c-9.571 1.287-19.141 2.575-29.194 3.928 2.741 1.197 4.853 2.091 7.591 1.385z"></path>
    </symbol>

    <symbol id="icon-sass" viewBox="0 0 128 128">
        <path fill-rule="evenodd" clip-rule="evenodd" fill="#CB6699" d="M1.219 56.156c0 .703.207 1.167.323 1.618.756 2.933 2.381 5.45 4.309 7.746 2.746 3.272 6.109 5.906 9.554 8.383 2.988 2.148 6.037 4.248 9.037 6.38.515.366 1.002.787 1.561 1.236-.481.26-.881.489-1.297.7-3.959 2.008-7.768 4.259-11.279 6.986-2.116 1.644-4.162 3.391-5.607 5.674-2.325 3.672-3.148 7.584-1.415 11.761.506 1.22 1.278 2.274 2.367 3.053.353.252.749.502 1.162.6 1.058.249 2.136.412 3.207.609l3.033-.002c3.354-.299 6.407-1.448 9.166-3.352 4.312-2.976 7.217-6.966 8.466-12.087.908-3.722.945-7.448-.125-11.153-.099-.344-.224-.681-.354-1.014-.13-.333-.283-.657-.463-1.072l6.876-3.954.103.088c-.125.409-.258.817-.371 1.23-.817 2.984-1.36 6.02-1.165 9.117.208 3.3 1.129 6.389 3.061 9.146 1.562 2.23 5.284 2.313 6.944.075.589-.795 1.16-1.626 1.589-2.513 1.121-2.315 2.159-4.671 3.23-7.011l.187-.428c-.077 1.108-.167 2.081-.208 3.055-.064 1.521.025 3.033.545 4.48.445 1.238 1.202 2.163 2.62 2.326.97.111 1.743-.333 2.456-.896 1.114-.879 2.019-1.965 2.691-3.199 1.901-3.491 3.853-6.961 5.576-10.54 1.864-3.871 3.494-7.855 5.225-11.792l.286-.698c.409 1.607.694 3.181 1.219 4.671.61 1.729 1.365 3.417 2.187 5.058.389.775.344 1.278-.195 1.928-2.256 2.72-4.473 5.473-6.692 8.223-.491.607-.98 1.225-1.389 1.888-.247.403-.411.894-.48 1.364-.133.898.422 1.764 1.383 1.971.878.189 1.813.259 2.708.193 3.097-.228 5.909-1.315 8.395-3.157 3.221-2.386 4.255-5.642 3.475-9.501-.211-1.047-.584-2.065-.947-3.074-.163-.455-.174-.774.123-1.198 2.575-3.677 4.775-7.578 6.821-11.569.081-.157.164-.314.306-.482.663 3.45 1.661 6.775 3.449 9.792-.912.879-1.815 1.676-2.632 2.554-1.799 1.934-3.359 4.034-4.173 6.595-.35 1.104-.619 2.226-.463 3.405.242 1.831 1.742 3.021 3.543 2.604 3.854-.892 7.181-2.708 9.612-5.925 1.636-2.166 1.785-4.582 1.1-7.113-.188-.688-.411-1.365-.651-2.154.951-.295 1.878-.649 2.837-.868 4.979-1.136 9.904-.938 14.702.86 2.801 1.05 5.064 2.807 6.406 5.571 1.639 3.379.733 6.585-2.452 8.721-.297.199-.637.356-.883.605-.151.153-.242.459-.205.67.021.123.346.277.533.275 1.047-.008 1.896-.557 2.711-1.121 2.042-1.413 3.532-3.314 3.853-5.817l.063-.188-.077-1.63c-.031-.094.023-.187.016-.258-.434-3.645-2.381-6.472-5.213-8.688-3.28-2.565-7.153-3.621-11.249-3.788-3.338-.136-6.619.36-9.765 1.503-.897.325-1.786.71-2.688 1.073-.121-.219-.251-.429-.358-.646-.926-1.896-2.048-3.708-2.296-5.882-.176-1.544-.392-3.086-.025-4.613.353-1.469.813-2.913 1.246-4.362.223-.746.066-1.164-.646-1.5-.248-.117-.518-.219-.786-.258-1.75-.254-3.476-.109-5.171.384-.6.175-1.036.511-1.169 1.175-.076.381-.231.746-.339 1.122-.443 1.563-.757 3.156-1.473 4.645-1.794 3.735-3.842 7.329-5.938 10.897-.227.385-.466.763-.752 1.23-.736-1.54-1.521-2.922-1.759-4.542-.269-1.832-.481-3.661-.025-5.479.339-1.356.782-2.687 1.19-4.025.193-.636.104-.97-.472-1.305-.291-.169-.62-.319-.948-.368-1.815-.269-3.603-.128-5.354.438-.543.176-.828.527-.994 1.087-.488 1.652-.904 3.344-1.589 4.915-2.774 6.36-5.628 12.687-8.479 19.013-.595 1.321-1.292 2.596-1.963 3.882-.17.326-.418.613-.63.919-.17-.201-.236-.339-.235-.477.005-.813-.092-1.65.063-2.436.469-2.378 1.009-4.743 1.578-7.099.47-1.946 1.017-3.874 1.538-5.807.175-.647.178-1.252-.287-1.796-.781-.911-2.413-1.111-3.381-.409l-.428.242.083-.69c.204-1.479.245-2.953-.161-4.41-.506-1.816-1.802-2.861-3.686-2.803-.878.027-1.8.177-2.613.497-3.419 1.34-6.048 3.713-8.286 6.568-.203.259-.471.495-.757.654-2.893 1.604-5.795 3.188-8.696 4.778l-3.229 1.769c-.866-.826-1.653-1.683-2.546-2.41-2.727-2.224-5.498-4.393-8.244-6.592-2.434-1.949-4.792-3.979-6.596-6.56-1.342-1.92-2.207-4.021-2.29-6.395-.105-3.025.753-5.789 2.293-8.362 1.97-3.292 4.657-5.934 7.611-8.327 3.125-2.53 6.505-4.678 10.008-6.639 4.901-2.743 9.942-5.171 15.347-6.774 5.542-1.644 11.165-2.585 16.965-1.929 2.28.258 4.494.78 6.527 1.895 1.557.853 2.834 1.97 3.428 3.716.586 1.718.568 3.459.162 5.204-.825 3.534-2.76 6.447-5.195 9.05-3.994 4.267-8.866 7.172-14.351 9.091-3.165 1.107-6.421 1.802-9.765 2.083-2.729.229-5.401-.013-7.985-.962-1.711-.629-3.201-1.591-4.399-2.987-.214-.25-.488-.521-.887-.287-.391.23-.46.602-.329.979.219.626.421 1.278.762 1.838.857 1.405 2.107 2.424 3.483 3.298 2.643 1.681 5.597 2.246 8.66 2.377 4.648.201 9.183-.493 13.654-1.74 6.383-1.78 11.933-4.924 16.384-9.884 3.706-4.13 6.353-8.791 6.92-14.419.277-2.747-.018-5.438-1.304-7.944-1.395-2.715-3.613-4.734-6.265-6.125-3.862-2.025-8.03-3.204-12.332-3.204h-4.31c-5.21 0-10.247 1.493-15.143 3.274-3.706 1.349-7.34 2.941-10.868 4.703-7.683 3.839-14.838 8.468-20.715 14.833-2.928 3.171-5.407 6.67-6.833 10.79-.417 1.206-.813 2.499-1.111 3.746m27.839 36.013c-.333 4.459-2.354 8.074-5.657 11.002-1.858 1.646-3.989 2.818-6.471 3.23-.9.149-1.821.185-2.694-.188-1.245-.532-1.524-1.637-1.548-2.814-.037-1.876.62-3.572 1.521-5.186 1.176-2.104 2.9-3.708 4.741-5.206 2.9-2.361 6.046-4.359 9.268-6.245l.243-.1c.498 1.84.735 3.657.597 5.507zm25.158-19.379c-.235 1.424-.529 2.849-.945 4.229-1.438 4.777-3.285 9.406-5.282 13.973-.369.845-.906 1.616-1.373 2.417-.072.124-.179.231-.283.334-.578.571-1.126.541-1.418-.206-.34-.868-.549-1.797-.729-2.716-.121-.617-.092-1.265-.13-1.897.039-4.494 1.41-8.578 3.736-12.38.959-1.568 2.003-3.062 3.598-4.054.49-.305 1.04-.55 1.595-.706.85-.239 1.372.154 1.231 1.006zm17.164 21.868l6.169-7.203c.257 2.675-4.29 8.015-6.169 7.203zm19.703-4.847c-.436.25-.911.43-1.358.661-.409.212-.544-.002-.556-.354-.008-.239.027-.489.093-.721.833-2.938 2.366-5.446 4.647-7.486l.16-.082c1.085 3.035-.169 6.368-2.986 7.982z"></path>
    </symbol>

    <symbol id="icon-star" viewBox="0 0 1792 1792">
        <path d="M1728 647q0 22-26 48l-363 354 86 500q1 7 1 20 0 21-10.5 35.5t-30.5 14.5q-19 0-40-12l-449-236-449 236q-22 12-40 12-21 0-31.5-14.5t-10.5-35.5q0-6 2-20l86-500-364-354q-25-27-25-48 0-37 56-46l502-73 225-455q19-41 49-41t49 41l225 455 502 73q56 9 56 46z"/>
    </symbol>

    <symbol id="icon-travis" viewBox="0 0 128 128">
        <path fill="#BB2031" d="M40 34h18v61h-8v11h28v-12h-7v-61h19v9h10v-18h-71v18h11zM122.2 3h-116.169c-2.026 0-4.031 1.226-4.031 3.225v116.154c0 2 2.005 3.621 4.031 3.621h116.169c2.026 0 2.8-1.621 2.8-3.621v-116.154c0-1.999-.774-3.225-2.8-3.225zm-16.2 45h-21v-9h-9v48h9v24h-40v-23h6v-48h-6v8h-23v-30h84v30z"></path>
    </symbol>

    <symbol id="icon-twitter" viewBox="-16 -40 212 212">
        <defs id="defs6">
            <clipPath id="clipPath20" clipPathUnits="userSpaceOnUse">
                <path id="path18" d="m0 10.012h1366.9v1110.9h-1366.9z"/>
            </clipPath>
        </defs>

        <g id="g10" transform="matrix(1.3333 0 0 -1.3333 0 150.67)">
            <g id="g12" transform="scale(.1)">
                <g id="g14">
                    <g id="g16" clip-path="url(#clipPath20)">
                        <path id="path22" d="m1366.9 989.39c-50.27-22.309-104.33-37.387-161.05-44.18 57.89 34.723 102.34 89.679 123.28 155.15-54.18-32.15-114.18-55.47-178.09-68.04-51.13 54.49-124.02 88.55-204.68 88.55-154.89 0-280.43-125.55-280.43-280.43 0-21.988 2.457-43.398 7.258-63.91-233.08 11.68-439.72 123.36-578.04 293.01-24.141-41.4-37.969-89.567-37.969-140.97 0-97.308 49.489-183.13 124.76-233.44-45.969 1.437-89.218 14.058-127.03 35.078-0.043-1.18-0.043-2.348-0.043-3.52 0-135.9 96.68-249.22 224.96-275-23.512-6.41-48.281-9.8-73.86-9.8-18.089 0-35.628 1.711-52.781 5 35.711-111.41 139.26-192.5 262-194.77-96.058-75.23-216.96-120.04-348.36-120.04-22.621 0-44.961 1.332-66.918 3.91 124.16-79.568 271.55-125.98 429.94-125.98 515.82 0 797.86 427.31 797.86 797.93 0 12.153-0.28 24.223-0.79 36.25 54.77 39.571 102.31 88.95 139.93 145.2"/>
                    </g>
                </g>
            </g>
        </g>
    </symbol>

    <!-- Taken from https://github.com/webpack/webpack.js.org/blob/master/assets/icon-square-small.svg -->
    <symbol id="icon-webpack" viewBox="0 0 600 600">
        <path fill="#FFF" d="M300 .1L565 150v299.9L300 599.8 35 449.9V150z"/><path fill="#8ED6FB" d="M517.7 439.5L308.8 557.8v-92L439 394.1l78.7 45.4zm14.3-12.9V179.4l-76.4 44.1v159l76.4 44.1zM81.5 439.5l208.9 118.2v-92l-130.2-71.6-78.7 45.4zm-14.3-12.9V179.4l76.4 44.1v159l-76.4 44.1zm8.9-263.2L290.4 42.2v89l-137.3 75.5-1.1.6-75.9-43.9zm446.9 0L308.8 42.2v89L446 206.8l1.1.6 75.9-44z"/><path fill="#1C78C0" d="M290.4 444.8L162 374.1V234.2l128.4 74.1v136.5zm18.4 0l128.4-70.6v-140l-128.4 74.1v136.5zM299.6 303zm-129-85l129-70.9L428.5 218l-128.9 74.4-129-74.4z"/>
    </symbol>


    <symbol id="icon-wildlyinaccurate" viewBox="0 0 100 100">
        <path d="m 80.90625,9.40625 c -3.64841,0.045172 -7.071232,1.286327 -9.21875,3.4375 -2.599875,2.604294 -3.662776,5.880358 -3.875,11.96875 -0.166006,4.762383 0.07267,5.876596 2.53125,12.84375 2.400067,6.801362 1.979096,9.139773 -3.1875,12.125 l -3.71875,-2.25 -2.8125,4.625 -5.53125,-3.3125 L 51.75,54.4375 48,52.15625 45.625,56.125 42.5,54.25 40.84375,57 c -0.07541,0.01287 -0.143996,0.04972 -0.21875,0.0625 L 38.9375,56.03125 38.0625,57.5 c -8.482332,1.487738 -12.198203,2.352485 -14.96875,3.46875 -3.522334,1.419157 -8.429882,2.079843 -11.4375,4.5 C 8.4231642,68.070332 5,71.158939 5,71.5 5,71.675471 5.1742605,71.661293 5.40625,71.46875 5.6228774,71.288964 7.4586394,70.330592 9.5,69.3125 c 10.412066,-5.192824 18.996055,-3.59403 26.9375,0.03125 0.934068,0.426401 2.07772,1.02081 2.53125,1.34375 l 0.8125,0.59375 L 39.25,69.5 C 38.824991,68.110376 38.511985,66.578687 38.46875,65.78125 L 39,66.09375 c 0.08939,0.279445 0.169837,0.596446 0.25,0.9375 0.210412,0.895198 1.182734,3.827291 2.1875,6.53125 1.201171,3.23251 1.75792,5.159206 1.625,5.59375 -0.111187,0.363494 -0.832529,1.477514 -1.59375,2.5 -1.34761,1.810133 -1.361743,1.908616 -1.21875,3.71875 0.193503,2.449583 0.981062,4.316992 2,4.78125 0.843719,0.384427 6.410392,0.502423 7.3125,0.15625 0.753411,-0.289113 0.654039,-0.726418 -0.5625,-2.4375 -0.596448,-0.838918 -1.09411,-1.660728 -1.09375,-1.84375 3.52e-4,-0.183021 0.819948,-1.591273 1.84375,-3.125 1.023803,-1.533729 2.180328,-3.567466 2.53125,-4.5 1.28021,-3.401991 0.588473,-7.623934 -1.75,-10.6875 -1.128435,-1.478332 -1.043197,-1.767229 0.25,-0.75 1.072946,0.843981 2.612542,3.962911 3.0625,6.25 l 0.34375,1.875 3.125,-0.15625 c 3.558608,-0.171359 3.091026,0.235623 -0.65625,0.5625 l -2.5,0.1875 -0.8125,2.125 c -0.457608,1.166374 -1.535566,3.259564 -2.375,4.65625 C 50.129316,83.86544 48.5,85.759014 48.5,85.875 c 0,0.276812 1.684078,2.068429 2.375,3.03125 0.467705,0.651766 1.650861,1.110733 3.5625,1.21875 2.466305,0.139358 2.448034,0.249944 0.6875,-2.0625 -0.561342,-0.737311 -1.03125,-1.676985 -1.03125,-2.09375 0,-0.416766 0.5663,-1.858937 1.25,-3.21875 0.683701,-1.359814 1.444994,-3.335468 1.6875,-4.375 0.24251,-1.039539 0.477575,-1.921071 0.53125,-1.96875 0.05367,-0.04768 1.117208,-0.31793 2.34375,-0.59375 4.297998,-0.966504 4.25,-0.981761 4.25,4.21875 0,3.451343 0.125899,4.515319 0.75,6.59375 0.409369,1.363313 0.993169,2.721964 1.28125,3.03125 0.619179,0.664748 2.995486,1.040393 5.875,0.90625 2.498511,-0.116395 2.896644,-0.434497 1.78125,-1.46875 -0.463484,-0.429766 -1.142424,-1.361593 -1.5,-2.0625 -0.563563,-1.104671 -0.605108,-1.606809 -0.4375,-3.78125 0.444971,-5.77282 0.536587,-8.370327 0.34375,-9.65625 l -0.21875,-1.375 -1.15625,0.59375 c -1.243427,0.634351 -3.73499,1.390011 -3.9375,1.1875 -0.06907,-0.06907 0.818447,-0.505183 2,-0.96875 3.069013,-1.204084 3.201205,-1.411967 1.625,-3.28125 -0.715546,-0.848598 -1.192269,-1.5625 -1.03125,-1.5625 0.550528,0 3.940022,3.873417 4.53125,5.1875 0.566661,1.259484 0.886103,1.384134 0.90625,3.9375 0.03024,3.831358 0.294324,7.048871 1,7.6875 1.22516,1.108755 7.344868,2.317886 7.625,1.71875 C 84.011157,85.826025 83.901345,84.960931 83.5625,83.6875 82.984967,81.516963 83.272413,81.655329 82.84375,77 c 0,0 0.03782,-3.067471 -0.4375,-4.96875 l -1.84375,-3.375 C 79.310397,66.355804 78.136042,64.700127 76.875,63.4375 l -1.84375,-1.84375 1.25,0.65625 c 1.202142,0.613287 3.100178,2.445838 3.78125,3.65625 0.308647,0.548537 0.406666,0.528789 1.40625,-0.4375 C 82.750585,64.22962 84.025925,61.710542 84.5,59.5 c 0.204767,-0.954803 0.276239,-3.164997 0.1875,-5.375 -0.24631,-6.134369 -1.915634,-10.739032 -6.625,-18.1875 -3.174758,-5.021288 -4.20985,-7.95869 -4.21875,-11.90625 -0.01264,-5.609601 2.471996,-8.494277 7.28125,-8.5 1.866376,-0.0022 2.868835,0.383233 4.3125,1.6875 0.67875,0.61321 1.656993,1.156396 2.34375,1.28125 0.649218,0.118029 1.796994,0.534658 2.5625,0.9375 0.76551,0.402843 1.771734,0.71875 2.21875,0.71875 C 93.570721,20.15625 95,19.076892 95,18.3125 95,17.434957 92.885548,12.672077 92.125,11.84375 91.211417,10.848745 89.940868,10.35817 87.71875,10.125 86.696265,10.01771 84.76625,9.7495373 83.4375,9.5625 82.582506,9.4421473 81.748193,9.3958269 80.90625,9.40625 z m 9.375,3.625 c 0.806738,0 1.3125,0.621248 1.3125,1.625 0,0.873055 -0.01047,0.885575 -0.9375,0.40625 -0.652854,-0.337604 -0.9375,-0.711545 -0.9375,-1.25 0,-0.531697 0.175707,-0.78125 0.5625,-0.78125 z"/>
    </symbol>
</svg>
